<svg xmlns="http://www.w3.org/2000/svg" viewBox="0 0 24 24" width="24px" height="24px">
    <defs>
        <linearGradient id="coinGradient" x1="0%" y1="0%" x2="100%" y2="100%">
            <stop offset="0%" style="stop-color:#FFD700;stop-opacity:1" />
            <stop offset="100%" style="stop-color:#DAA520;stop-opacity:1" />
        </linearGradient>
    </defs>
    <path fill="url(#coinGradient)" d="M12 2c-4.97 0-9 2.24-9 5s4.03 5 9 5 9-2.24 9-5-4.03-5-9-5zm0 16c-4.97 0-9-2.24-9-5v-1c0 2.76 4.03 5 9 5s9-2.24 9-5v1c0 2.76-4.03 5-9 5zm0 2c-4.97 0-9-2.24-9-5v-1c0 2.76 4.03 5 9 5s9-2.24 9-5v1c0 2.76-4.03 5-9 5z"/>
</svg>