<svg xmlns="http://www.w3.org/2000/svg" viewBox="0 0 24 24" width="24px" height="24px">
    <defs>
        <linearGradient id="spinGradient" x1="0%" y1="0%" x2="100%" y2="100%">
            <stop offset="0%" style="stop-color:#FFD700;stop-opacity:1" />
            <stop offset="100%" style="stop-color:#FF4500;stop-opacity:1" />
        </linearGradient>
    </defs>
    <path fill="url(#spinGradient)" d="M12 2c-5.52 0-10 4.48-10 10s4.48 10 10 10 10-4.48 10-10S17.52 2 12 2zm0 18c-4.41 0-8-3.59-8-8s3.59-8 8-8 8 3.59 8 8-3.59 8-8 8z"/>
    <path fill="white" d="M16.5 12c0-2.48-2.02-4.5-4.5-4.5S7.5 9.52 7.5 12h-2c0-3.59 2.91-6.5 6.5-6.5s6.5 2.91 6.5 6.5h-2z">
        <animateTransform attributeName="transform" type="rotate" from="0 12 12" to="360 12 12" dur="1s" repeatCount="indefinite"/>
    </path>
</svg>