<?xml version="1.0" encoding="UTF-8"?>
<svg xmlns="http://www.w3.org/2000/svg" xmlns:xlink="http://www.w3.org/1999/xlink" width="3750" height="3750" viewBox="0 0 3750 3750">
<path fill-rule="evenodd" fill="rgb(100%, 100%, 100%)" fill-opacity="1" d="M 1.628906 0 L 3748.371094 0 C 3749.269531 0 3750 0.730469 3750 1.628906 L 3750 3748.371094 C 3750 3749.273438 3749.269531 3750 3748.371094 3750 L 1.628906 3750 C 0.726562 3750 0 3749.273438 0 3748.371094 L 0 1.628906 C 0 0.730469 0.726562 0 1.628906 0 Z M 1.628906 0 "/>
<path fill-rule="nonzero" fill="rgb(32.542419%, 51.367188%, 16.868591%)" fill-opacity="1" d="M 1313.460938 2314.769531 C 1266.101562 1573.988281 1563.941406 1165.128906 1928.011719 819.941406 L 1828.351562 595.71875 L 1928.011719 562.5 C 2002.820312 1358.179688 2236.269531 1770.5 2501.019531 2107.160156 L 2393.070312 2132.070312 C 2146.828125 1758.328125 1945.691406 1373.320312 1952.921875 936.210938 C 1530.261719 1349.808594 1247.640625 1789.910156 1413.121094 2314.769531 Z M 1313.460938 2314.769531 "/>
<path fill-rule="nonzero" fill="rgb(84.375%, 8.227539%, 8.227539%)" fill-opacity="1" d="M 1803.441406 2156.988281 C 2049.089844 1685.019531 2177.648438 1867.671875 2359.851562 1924.460938 C 3097.03125 1513.988281 2823.441406 2379.710938 2741.859375 2846.269531 C 2741.859375 2846.269531 2069.179688 3012.363281 1803.441406 2156.988281 Z M 1803.441406 2156.988281 "/>
<path fill-rule="nonzero" fill="rgb(92.1875%, 18.821716%, 18.821716%)" fill-opacity="1" d="M 1313.460938 2090.550781 C 605.046875 1578.429688 919.804688 3028.921875 1296.859375 3186.757812 C 1747.851562 3230.277344 2820.71875 1338.449219 1313.460938 2090.550781 Z M 1313.460938 2090.550781 "/>
<path fill-rule="evenodd" fill="rgb(100%, 100%, 100%)" fill-opacity="1" d="M 1308.878906 2459.070312 C 1295.289062 2576.578125 1219.601562 2664.359375 1139.820312 2655.140625 C 1060.03125 2645.910156 1006.371094 2543.179688 1019.949219 2425.660156 C 1033.539062 2308.148438 1109.230469 2220.371094 1189.019531 2229.589844 C 1268.800781 2238.820312 1322.460938 2341.558594 1308.878906 2459.070312 Z M 1308.878906 2459.070312 "/>
<path fill-rule="evenodd" fill="rgb(11.767578%, 11.767578%, 11.767578%)" fill-opacity="1" d="M 1253.851562 2462.910156 C 1245.328125 2536.609375 1197.859375 2591.660156 1147.820312 2585.878906 C 1097.789062 2580.089844 1064.128906 2515.660156 1072.648438 2441.960938 C 1081.179688 2368.269531 1128.640625 2313.210938 1178.679688 2319 C 1228.710938 2324.78125 1262.371094 2389.21875 1253.851562 2462.910156 Z M 1253.851562 2462.910156 "/>
<path fill-rule="evenodd" fill="rgb(100%, 100%, 100%)" fill-opacity="1" d="M 1165.519531 2373.269531 C 1160.480469 2416.929688 1132.351562 2449.550781 1102.699219 2446.121094 C 1073.058594 2442.699219 1053.109375 2404.519531 1058.160156 2360.851562 C 1063.210938 2317.179688 1091.339844 2284.558594 1120.980469 2287.988281 C 1150.628906 2291.421875 1170.570312 2329.601562 1165.519531 2373.269531 Z M 1165.519531 2373.269531 "/>
<path fill-rule="evenodd" fill="rgb(100%, 100%, 100%)" fill-opacity="1" d="M 1696.640625 2438.46875 C 1678.109375 2555.300781 1598.78125 2639.808594 1519.449219 2627.230469 C 1440.128906 2614.640625 1390.859375 2509.730469 1409.390625 2392.890625 C 1427.929688 2276.058594 1507.261719 2191.550781 1586.578125 2204.140625 C 1665.910156 2216.730469 1715.179688 2321.640625 1696.640625 2438.46875 Z M 1696.640625 2438.46875 "/>
<path fill-rule="evenodd" fill="rgb(11.767578%, 11.767578%, 11.767578%)" fill-opacity="1" d="M 1641.5 2439.988281 C 1629.878906 2513.261719 1580.128906 2566.261719 1530.378906 2558.371094 C 1480.628906 2550.480469 1449.730469 2484.679688 1461.359375 2411.410156 C 1472.980469 2338.140625 1522.730469 2285.140625 1572.480469 2293.03125 C 1622.230469 2300.929688 1653.128906 2366.71875 1641.5 2439.988281 Z M 1641.5 2439.988281 "/>
<path fill-rule="evenodd" fill="rgb(100%, 100%, 100%)" fill-opacity="1" d="M 1557.039062 2346.691406 C 1550.160156 2390.109375 1520.679688 2421.511719 1491.199219 2416.828125 C 1461.71875 2412.160156 1443.410156 2373.171875 1450.300781 2329.75 C 1457.191406 2286.339844 1486.671875 2254.941406 1516.140625 2259.609375 C 1545.621094 2264.289062 1563.929688 2303.28125 1557.039062 2346.691406 Z M 1557.039062 2346.691406 "/>
<path fill-rule="evenodd" fill="rgb(100%, 100%, 100%)" fill-opacity="1" d="M 2761.871094 2228.640625 C 2782.769531 2338.199219 2739.410156 2438.53125 2665.019531 2452.71875 C 2590.628906 2466.921875 2513.378906 2389.601562 2492.480469 2280.03125 C 2471.570312 2170.46875 2514.929688 2070.140625 2589.320312 2055.949219 C 2663.71875 2041.75 2740.96875 2119.070312 2761.871094 2228.640625 Z M 2761.871094 2228.640625 "/>
<path fill-rule="evenodd" fill="rgb(11.767578%, 11.767578%, 11.767578%)" fill-opacity="1" d="M 2713.441406 2247.609375 C 2726.550781 2316.328125 2699.359375 2379.25 2652.699219 2388.148438 C 2606.050781 2397.050781 2557.601562 2348.558594 2544.488281 2279.839844 C 2531.378906 2211.128906 2558.570312 2148.210938 2605.230469 2139.308594 C 2651.878906 2130.410156 2700.328125 2178.898438 2713.441406 2247.609375 Z M 2713.441406 2247.609375 "/>
<path fill-rule="evenodd" fill="rgb(100%, 100%, 100%)" fill-opacity="1" d="M 2608.691406 2191.851562 C 2616.460938 2232.558594 2600.351562 2269.839844 2572.699219 2275.121094 C 2545.058594 2280.390625 2516.351562 2251.660156 2508.578125 2210.941406 C 2500.820312 2170.230469 2516.929688 2132.949219 2544.570312 2127.679688 C 2572.21875 2122.398438 2600.921875 2151.128906 2608.691406 2191.851562 Z M 2608.691406 2191.851562 "/>
<path fill-rule="evenodd" fill="rgb(100%, 100%, 100%)" fill-opacity="1" d="M 2459.191406 2309.351562 C 2480.089844 2418.921875 2436.730469 2519.25 2362.339844 2533.441406 C 2287.949219 2547.628906 2210.699219 2470.320312 2189.800781 2360.75 C 2168.890625 2251.179688 2212.25 2150.859375 2286.640625 2136.660156 C 2361.03125 2122.46875 2438.28125 2199.78125 2459.191406 2309.351562 Z M 2459.191406 2309.351562 "/>
<path fill-rule="evenodd" fill="rgb(11.767578%, 11.767578%, 11.767578%)" fill-opacity="1" d="M 2410.761719 2328.328125 C 2423.871094 2397.039062 2396.679688 2459.960938 2350.019531 2468.859375 C 2303.371094 2477.761719 2254.921875 2429.269531 2241.808594 2360.558594 C 2228.699219 2291.851562 2255.890625 2228.929688 2302.550781 2220.03125 C 2349.199219 2211.121094 2397.648438 2259.609375 2410.761719 2328.328125 Z M 2410.761719 2328.328125 "/>
<path fill-rule="evenodd" fill="rgb(100%, 100%, 100%)" fill-opacity="1" d="M 2306.011719 2272.558594 C 2313.78125 2313.28125 2297.660156 2350.558594 2270.019531 2355.828125 C 2242.378906 2361.109375 2213.671875 2332.371094 2205.898438 2291.660156 C 2198.128906 2250.941406 2214.25 2213.660156 2241.890625 2208.390625 C 2269.539062 2203.121094 2298.238281 2231.851562 2306.011719 2272.558594 Z M 2306.011719 2272.558594 "/>
<path fill-rule="nonzero" fill="rgb(84.375%, 8.227539%, 8.227539%)" fill-opacity="1" d="M 1281.109375 2606.339844 L 1422.359375 2598.269531 C 1426.140625 2599.53125 1338.601562 3229.519531 1281.109375 2606.339844 Z M 1281.109375 2606.339844 "/>
<path fill-rule="nonzero" fill="rgb(70.506287%, 7.054138%, 7.054138%)" fill-opacity="1" d="M 2326.371094 2574.050781 C 2346.550781 2570.019531 2685.550781 2501.410156 2685.550781 2501.410156 C 2685.550781 2501.410156 2544.300781 2715.300781 2326.371094 2574.050781 Z M 2326.371094 2574.050781 "/>
<path fill-rule="nonzero" fill="rgb(93.75%, 35.693359%, 35.693359%)" fill-opacity="1" d="M 1622.980469 2047.820312 L 1968.589844 2111.488281 C 1968.589844 2111.488281 1947.371094 1932.621094 1622.980469 2047.820312 Z M 1622.980469 2047.820312 "/>
<path fill-rule="nonzero" fill="rgb(92.1875%, 18.821716%, 18.821716%)" fill-opacity="1" d="M 2637.5 1909.601562 L 2802.039062 2071.140625 C 2802.039062 2071.140625 2802.039062 1828.820312 2637.5 1909.601562 Z M 2637.5 1909.601562 "/>
<path fill-rule="nonzero" fill="rgb(11.767578%, 11.767578%, 11.767578%)" fill-opacity="1" d="M 1112.679688 2169.421875 L 1241.890625 2203.421875 C 1241.890625 2203.421875 1255.5 2074.210938 1112.679688 2169.421875 Z M 1112.679688 2169.421875 "/>
<path fill-rule="nonzero" fill="rgb(11.767578%, 11.767578%, 11.767578%)" fill-opacity="1" d="M 1496.921875 2183.019531 L 1629.539062 2142.210938 C 1629.539062 2142.210938 1456.121094 2050.398438 1496.921875 2183.019531 Z M 1496.921875 2183.019531 "/>
<path fill-rule="nonzero" fill="rgb(11.767578%, 11.767578%, 11.767578%)" fill-opacity="1" d="M 2224.601562 2081.011719 L 2336.808594 2084.410156 C 2336.808594 2084.410156 2326.609375 1968.800781 2224.601562 2081.011719 Z M 2224.601562 2081.011719 "/>
<path fill-rule="nonzero" fill="rgb(11.767578%, 11.767578%, 11.767578%)" fill-opacity="1" d="M 2479.628906 2036.800781 L 2602.039062 1985.800781 C 2602.039062 1985.800781 2458.230469 1966.441406 2479.628906 2036.800781 Z M 2479.628906 2036.800781 "/>
</svg>
