<?xml version="1.0" encoding="UTF-8"?>
<svg xmlns="http://www.w3.org/2000/svg" xmlns:xlink="http://www.w3.org/1999/xlink" width="5000" height="5000" viewBox="0 0 5000 5000">
<path fill-rule="evenodd" fill="rgb(94.921875%, 94.921875%, 94.921875%)" fill-opacity="1" d="M 1394.539062 3693.25 C 908.21875 3603.488281 590.710938 3456.101562 590.710938 3289.621094 C 590.710938 3016.359375 1446.238281 2794.511719 2500 2794.511719 C 3553.761719 2794.511719 4409.289062 3016.359375 4409.289062 3289.621094 C 4409.289062 3411.609375 4238.808594 3523.351562 3956.359375 3609.671875 C 4011.949219 3664.109375 4042.378906 3723.121094 4042.378906 3784.738281 C 4042.378906 4058.003906 3444.039062 4279.855469 2707.058594 4279.855469 C 1970.078125 4279.855469 1371.75 4058.003906 1371.75 3784.738281 C 1371.75 3753.480469 1379.578125 3722.890625 1394.539062 3693.25 "/>
<path fill-rule="evenodd" fill="rgb(95.701599%, 61.326599%, 2.600098%)" fill-opacity="1" d="M 1989.761719 1393.941406 C 2561.269531 1278.179688 3117.941406 1641.808594 3232.101562 2205.449219 C 3346.261719 2769.089844 2974.960938 3320.679688 2403.449219 3436.429688 C 1831.949219 3552.179688 1275.28125 3188.558594 1161.121094 2624.910156 C 1046.960938 2061.269531 1418.261719 1509.691406 1989.761719 1393.941406 "/>
<path fill-rule="evenodd" fill="rgb(96.484375%, 65.234375%, 16.697693%)" fill-opacity="1" d="M 1906.300781 1410.839844 C 2431.75 1304.421875 2951.019531 1675.621094 3065.179688 2239.261719 C 3179.339844 2802.898438 2845.441406 3346.910156 2319.988281 3453.328125 C 1794.550781 3559.761719 1275.28125 3188.558594 1161.121094 2624.910156 C 1046.960938 2061.269531 1380.859375 1517.261719 1906.300781 1410.839844 "/>
<path fill-rule="evenodd" fill="rgb(95.701599%, 68.75%, 25.488281%)" fill-opacity="1" d="M 1663.339844 1690.351562 C 2029.949219 1616.101562 2400.210938 1914.289062 2489.640625 2355.828125 C 2579.070312 2797.378906 2354.03125 3216.140625 1987.410156 3290.390625 C 1620.800781 3364.648438 1250.550781 3066.460938 1161.121094 2624.910156 C 1071.691406 2183.371094 1296.71875 1764.609375 1663.339844 1690.351562 "/>
<path fill-rule="evenodd" fill="rgb(90.234375%, 75.976562%, 53.318787%)" fill-opacity="1" d="M 1423.921875 2063.988281 C 1365.609375 2050.921875 1339.878906 2284.039062 1405.699219 2299.488281 C 1474.898438 2315.730469 1493.019531 2079.480469 1423.921875 2063.988281 "/>
<path fill-rule="evenodd" fill="rgb(10.78949%, 45.506287%, 5.599976%)" fill-opacity="1" d="M 2031.160156 1494.601562 C 2037.550781 1489.871094 2056.53125 1419.390625 2085.808594 1403.488281 C 2093.558594 1399.28125 2076.761719 1401.378906 2144.238281 1307.808594 C 2155.128906 1292.710938 2209.929688 1196.390625 2327.011719 1144.230469 C 2504.171875 1065.308594 2902.511719 1289.480469 2919.480469 1373.21875 C 2920.078125 1376.21875 2790.539062 1344.539062 2728.890625 1360.449219 C 2635.660156 1384.5 2537.890625 1531.601562 2360.070312 1517.511719 C 2250.089844 1508.800781 2119.839844 1396.601562 2085.808594 1403.488281 "/>
<path fill-rule="evenodd" fill="rgb(11.69281%, 68.75%, 3.100586%)" fill-opacity="1" d="M 2086.199219 1401.300781 C 2085.929688 1401.339844 2085.660156 1401.390625 2085.398438 1401.441406 C 2084.691406 1401.578125 2084.140625 1402.058594 2083.890625 1402.679688 C 2075.910156 1407.269531 2068.609375 1415.691406 2062.078125 1425.660156 C 2050.511719 1443.308594 2041.371094 1465.878906 2035.148438 1480.050781 C 2033.46875 1483.890625 2032.011719 1487.089844 2030.78125 1489.378906 C 2030.089844 1490.640625 2029.628906 1491.570312 2029.160156 1491.910156 C 2027.679688 1493.011719 2027.359375 1495.109375 2028.460938 1496.601562 C 2029.558594 1498.089844 2031.671875 1498.398438 2033.148438 1497.300781 C 2034.339844 1496.390625 2036.078125 1493.710938 2037.929688 1489.519531 C 2043.5 1476.890625 2052.71875 1449.011719 2065.628906 1427.910156 C 2071.511719 1418.308594 2078.121094 1410.109375 2085.519531 1405.558594 C 2085.75 1405.589844 2085.988281 1405.589844 2086.230469 1405.539062 C 2094.121094 1403.941406 2107.28125 1409.179688 2124.320312 1417.851562 C 2161.410156 1436.738281 2215.910156 1472.351562 2272.828125 1496.121094 C 2301.878906 1508.261719 2331.570312 1517.308594 2359.910156 1519.550781 C 2421.738281 1524.441406 2473.949219 1509.96875 2519.671875 1487.941406 C 2605.621094 1446.511719 2668.441406 1378.058594 2729.371094 1362.328125 C 2744.988281 1358.289062 2765.011719 1357.359375 2786.148438 1358.121094 C 2831.730469 1359.769531 2882.480469 1369.371094 2905.929688 1373.429688 C 2911.890625 1374.460938 2916.121094 1375.140625 2918.109375 1375.25 C 2919.351562 1375.328125 2920.109375 1375.078125 2920.390625 1374.910156 C 2921.25 1374.378906 2921.460938 1373.648438 2921.289062 1372.851562 C 2917.328125 1353.359375 2893.128906 1326.21875 2855.738281 1297.210938 C 2805.421875 1258.160156 2731.261719 1215.441406 2651.808594 1182.53125 C 2599.019531 1160.671875 2543.878906 1143.210938 2491.828125 1133.949219 C 2429.191406 1122.808594 2371 1123.609375 2326.640625 1143.378906 C 2284.128906 1162.289062 2249.808594 1187.011719 2222.789062 1211.558594 C 2175.210938 1254.789062 2150.289062 1297.511719 2143.328125 1307.148438 C 2125.429688 1331.878906 2113.441406 1349.941406 2105.328125 1363.191406 C 2100.921875 1370.398438 2097.691406 1376.210938 2095.21875 1380.871094 C 2089.078125 1392.480469 2087.980469 1397.210938 2087.140625 1399.699219 C 2086.890625 1400.441406 2086.660156 1400.898438 2086.199219 1401.300781 Z M 2917.148438 1371.441406 C 2912.03125 1352.628906 2888.578125 1327.339844 2853.558594 1300.011719 C 2803.539062 1260.960938 2729.851562 1218.058594 2650.800781 1184.941406 C 2598.261719 1162.929688 2543.371094 1145.179688 2491.488281 1135.828125 C 2429.300781 1124.628906 2371.46875 1125.460938 2327.390625 1145.078125 C 2285.121094 1163.949219 2250.988281 1188.570312 2224.140625 1213.050781 C 2176.800781 1256.199219 2152.078125 1298.851562 2145.148438 1308.46875 C 2127.390625 1333.191406 2115.488281 1351.238281 2107.449219 1364.480469 C 2103.109375 1371.648438 2099.871094 1377.390625 2097.5 1382.050781 C 2091.691406 1393.488281 2090.890625 1398.210938 2090.140625 1400.660156 C 2090.089844 1400.828125 2090.039062 1400.988281 2089.988281 1401.140625 C 2098.570312 1401.519531 2111 1406.390625 2126.210938 1414.140625 C 2163.230469 1433 2217.609375 1468.578125 2274.421875 1492.328125 C 2303.050781 1504.300781 2332.300781 1513.261719 2360.230469 1515.480469 C 2421.261719 1520.320312 2472.789062 1506.050781 2517.929688 1484.320312 C 2604.160156 1442.800781 2667.28125 1374.308594 2728.398438 1358.570312 C 2749.019531 1353.261719 2777.171875 1353.191406 2805.558594 1355.421875 C 2846.96875 1358.660156 2888.898438 1366.71875 2908.460938 1370.078125 C 2912.300781 1370.738281 2915.261719 1371.21875 2917.148438 1371.441406 "/>
<path fill-rule="evenodd" fill="rgb(6.591797%, 32.493591%, 2.700806%)" fill-opacity="1" d="M 2112.339844 1396.480469 C 2112.46875 1396.449219 2112.609375 1396.410156 2112.75 1396.359375 C 2114.261719 1395.859375 2117.449219 1394.871094 2121.800781 1393.519531 C 2144.800781 1386.378906 2200.070312 1369.46875 2212.890625 1364.570312 C 2232.96875 1356.871094 2255.039062 1351.191406 2277.679688 1346.488281 C 2311.378906 1339.488281 2346.320312 1334.621094 2377.800781 1328.261719 C 2408.679688 1322.050781 2439.78125 1317.199219 2470.769531 1311.511719 C 2478.53125 1310.078125 2486.289062 1308.589844 2494.03125 1307.019531 C 2503.859375 1305.011719 2513.671875 1302.890625 2523.460938 1300.738281 C 2546.28125 1295.730469 2569.058594 1290.679688 2592.050781 1287.5 C 2613.808594 1284.5 2635.761719 1283.128906 2658.058594 1285.011719 C 2686.289062 1287.371094 2715.691406 1290.851562 2744.308594 1296.761719 C 2763.480469 1300.710938 2782.289062 1305.738281 2800.160156 1312.269531 C 2810.199219 1315.941406 2827.660156 1322.5 2838.550781 1326.460938 C 2844.300781 1328.550781 2848.308594 1329.839844 2848.628906 1329.769531 C 2849.03125 1329.691406 2849.28125 1329.308594 2849.199219 1328.921875 C 2849.121094 1328.519531 2848.738281 1328.269531 2848.339844 1328.351562 C 2847.96875 1328.421875 2842.109375 1326.101562 2834.351562 1323.089844 C 2823.691406 1318.960938 2809.589844 1313.390625 2800.980469 1310.078125 C 2778.691406 1301.5 2754.878906 1295.210938 2730.71875 1290.488281 C 2706.609375 1285.769531 2682.148438 1282.621094 2658.5 1280.25 C 2635.828125 1277.988281 2613.488281 1279 2591.289062 1281.75 C 2568.101562 1284.621094 2545.078125 1289.339844 2522.050781 1294.199219 C 2512.269531 1296.269531 2502.488281 1298.390625 2492.679688 1300.351562 C 2461.789062 1306.640625 2430.699219 1311.558594 2399.75 1317.308594 C 2391.988281 1318.761719 2384.238281 1320.25 2376.5 1321.839844 C 2339.789062 1329.269531 2298.398438 1334.75 2259.710938 1343.78125 C 2242.578125 1347.789062 2225.96875 1352.46875 2210.519531 1358.351562 C 2197.75 1363.21875 2142.710938 1380.011719 2119.808594 1387.109375 C 2115.410156 1388.480469 2112.179688 1389.488281 2110.660156 1389.988281 C 2110.089844 1390.179688 2109.71875 1390.308594 2109.550781 1390.371094 C 2108.910156 1390.628906 2108.601562 1390.929688 2108.488281 1391.03125 C 2107.53125 1391.890625 2107.398438 1392.808594 2107.371094 1393.390625 C 2107.328125 1394.460938 2107.699219 1395.441406 2108.710938 1396.199219 C 2108.988281 1396.421875 2109.679688 1396.960938 2110.96875 1396.871094 C 2111.460938 1396.839844 2111.929688 1396.699219 2112.339844 1396.480469 "/>
<path fill-rule="evenodd" fill="rgb(6.591797%, 32.493591%, 2.700806%)" fill-opacity="1" d="M 2250.089844 1350.148438 C 2251.378906 1342.839844 2253.570312 1326.109375 2260.140625 1305.949219 C 2264.289062 1293.171875 2270.261719 1279.03125 2278.730469 1265 C 2281.148438 1260.898438 2283.621094 1256.96875 2286.039062 1253.089844 C 2291.980469 1243.589844 2297.910156 1234.660156 2304.308594 1226.050781 C 2313.359375 1213.859375 2323.101562 1202.210938 2334.25 1190.039062 C 2334.53125 1189.75 2334.519531 1189.289062 2334.238281 1189.011719 C 2333.949219 1188.730469 2333.488281 1188.730469 2333.210938 1189.019531 C 2321.171875 1200.46875 2310.5 1211.449219 2300.621094 1223.128906 C 2293.578125 1231.449219 2286.878906 1240.058594 2280.511719 1249.488281 C 2277.898438 1253.339844 2275.410156 1257.371094 2272.890625 1261.5 C 2264.25 1276.058594 2258.28125 1290.75 2254 1303.960938 C 2247.328125 1324.519531 2244.851562 1341.511719 2243.488281 1348.960938 C 2243.160156 1350.78125 2244.371094 1352.53125 2246.191406 1352.851562 C 2248.011719 1353.179688 2249.761719 1351.96875 2250.089844 1350.148438 "/>
<path fill-rule="evenodd" fill="rgb(6.591797%, 32.493591%, 2.700806%)" fill-opacity="1" d="M 2406.308594 1318.46875 C 2408.460938 1308.03125 2413.710938 1295.089844 2420.671875 1281.738281 C 2423.25 1276.761719 2426.121094 1271.761719 2429.078125 1266.769531 C 2432.148438 1261.601562 2435.410156 1256.488281 2438.628906 1251.460938 C 2440.03125 1249.261719 2441.410156 1247.078125 2442.769531 1244.921875 C 2449.929688 1233.640625 2457 1223.25 2463.320312 1215.199219 C 2470.589844 1205.949219 2476.609375 1199.738281 2480.109375 1198.859375 C 2480.511719 1198.78125 2480.761719 1198.390625 2480.679688 1198 C 2480.601562 1197.609375 2480.21875 1197.359375 2479.828125 1197.429688 C 2473.730469 1198.398438 2458.878906 1213.128906 2443.46875 1233.101562 C 2440.859375 1236.46875 2438.230469 1239.980469 2435.691406 1243.648438 C 2434.039062 1246.019531 2432.441406 1248.460938 2430.871094 1250.941406 C 2425.640625 1259.160156 2420.769531 1267.78125 2416.328125 1276.199219 C 2408.449219 1291.101562 2402.210938 1305.519531 2399.738281 1317.101562 C 2399.359375 1318.910156 2400.53125 1320.691406 2402.339844 1321.070312 C 2404.148438 1321.449219 2405.929688 1320.289062 2406.308594 1318.46875 "/>
<path fill-rule="evenodd" fill="rgb(6.591797%, 32.493591%, 2.700806%)" fill-opacity="1" d="M 2531.738281 1295.96875 C 2534 1290.160156 2539.679688 1279.988281 2547.128906 1268.699219 C 2551.570312 1261.980469 2556.730469 1254.960938 2561.929688 1248.039062 C 2563.199219 1246.339844 2564.480469 1244.648438 2565.730469 1242.949219 C 2568.960938 1238.558594 2572.101562 1234.238281 2575.238281 1230.25 C 2584.570312 1218.398438 2593.308594 1209.261719 2599.539062 1207.640625 C 2599.929688 1207.558594 2600.179688 1207.179688 2600.109375 1206.78125 C 2600.03125 1206.390625 2599.640625 1206.140625 2599.25 1206.21875 C 2594.289062 1206.929688 2587.320312 1211.640625 2579.570312 1218.691406 C 2574.410156 1223.390625 2568.890625 1229.078125 2563.449219 1235.328125 C 2561.949219 1237.058594 2560.449219 1238.820312 2559.011719 1240.648438 C 2552.46875 1248.929688 2546.488281 1257.960938 2541.148438 1266.148438 C 2533.699219 1277.550781 2527.851562 1287.640625 2525.5 1293.511719 C 2524.820312 1295.230469 2525.671875 1297.179688 2527.390625 1297.859375 C 2529.121094 1298.539062 2531.058594 1297.691406 2531.738281 1295.96875 "/>
<path fill-rule="evenodd" fill="rgb(6.591797%, 32.493591%, 2.700806%)" fill-opacity="1" d="M 2182.75 1375.5 C 2183.089844 1375.589844 2184.558594 1376 2185.910156 1376.46875 C 2193.089844 1379 2208.03125 1385.25 2223.019531 1391.808594 C 2240.648438 1399.53125 2258.351562 1407.660156 2263.828125 1410.28125 C 2268.261719 1412.390625 2276.75 1414.609375 2287.320312 1416.398438 C 2294.390625 1417.589844 2302.410156 1418.570312 2310.699219 1419.460938 C 2334.980469 1422.039062 2361.609375 1423.511719 2373.96875 1423.851562 C 2377.101562 1423.941406 2379.320312 1423.949219 2380.371094 1423.878906 C 2380.820312 1423.851562 2381.109375 1423.789062 2381.230469 1423.738281 C 2381.75 1423.519531 2381.789062 1423.128906 2381.730469 1422.871094 C 2381.648438 1422.480469 2381.261719 1422.230469 2380.871094 1422.308594 C 2380.828125 1422.308594 2380.78125 1422.328125 2380.738281 1422.339844 L 2380.75 1422.371094 C 2380.761719 1422.410156 2380.699219 1422.410156 2380.621094 1422.410156 C 2380.660156 1422.378906 2380.699219 1422.359375 2380.738281 1422.339844 C 2380.699219 1422.128906 2380.609375 1422.210938 2380.519531 1422.398438 L 2380.609375 1422.410156 L 2380.621094 1422.410156 C 2380.558594 1422.449219 2380.5 1422.5 2380.449219 1422.570312 C 2380.46875 1422.5 2380.488281 1422.449219 2380.519531 1422.398438 C 2380.449219 1422.390625 2380.378906 1422.378906 2380.320312 1422.378906 C 2379.289062 1422.378906 2377.128906 1422.230469 2374.078125 1421.960938 C 2361.808594 1420.851562 2335.46875 1417.621094 2311.449219 1413.789062 C 2303.320312 1412.488281 2295.46875 1411.089844 2288.511719 1409.761719 C 2278.761719 1407.898438 2270.820312 1406.160156 2266.710938 1404.21875 C 2262.75 1402.359375 2252.441406 1397.78125 2240.421875 1392.441406 C 2227.308594 1386.609375 2212.179688 1379.839844 2200.839844 1375.128906 C 2193.800781 1372.210938 2188.191406 1370.050781 2185.398438 1369.25 C 2183.699219 1368.75 2182.53125 1368.761719 2182.039062 1368.859375 C 2180.230469 1369.21875 2179.050781 1371 2179.421875 1372.808594 C 2179.75 1374.421875 2181.171875 1375.519531 2182.75 1375.5 "/>
<path fill-rule="evenodd" fill="rgb(6.591797%, 32.493591%, 2.700806%)" fill-opacity="1" d="M 2377.789062 1325.359375 C 2377.578125 1324.171875 2376.71875 1323.140625 2375.480469 1322.75 C 2372.929688 1321.96875 2371.71875 1323.441406 2371.21875 1324.351562 C 2370.871094 1324.960938 2370.601562 1325.839844 2370.910156 1326.988281 C 2371.03125 1327.429688 2371.421875 1328.289062 2372.320312 1329.359375 C 2374.050781 1331.429688 2378.558594 1335.769531 2384.679688 1341.128906 C 2391.039062 1346.691406 2399.21875 1353.351562 2407.609375 1359.898438 C 2417.800781 1367.839844 2428.339844 1375.621094 2436.878906 1380.488281 C 2439.96875 1382.25 2442.800781 1383.628906 2445.261719 1384.570312 C 2454.671875 1387.910156 2468.660156 1391.261719 2482.269531 1393.558594 C 2498.171875 1396.25 2513.460938 1397.550781 2520.070312 1396.320312 C 2520.460938 1396.261719 2520.738281 1395.890625 2520.679688 1395.5 C 2520.621094 1395.101562 2520.25 1394.820312 2519.859375 1394.878906 C 2514.359375 1395.46875 2503.019531 1393.75 2490.429688 1390.980469 C 2481.839844 1389.089844 2472.699219 1386.679688 2464.429688 1384.148438 C 2458.109375 1382.230469 2452.308594 1380.25 2447.710938 1378.300781 C 2437.898438 1374.5 2421.679688 1362.949219 2407.25 1351.429688 C 2397.199219 1343.398438 2388.039062 1335.339844 2382.359375 1329.988281 C 2380.460938 1328.191406 2378.699219 1326.339844 2377.789062 1325.359375 "/>
<path fill-rule="evenodd" fill="rgb(6.591797%, 32.493591%, 2.700806%)" fill-opacity="1" d="M 2728.550781 1324.710938 C 2728.601562 1324.808594 2728.660156 1324.871094 2728.710938 1324.769531 L 2728.691406 1324.75 L 2728.648438 1324.71875 L 2728.640625 1324.71875 L 2728.550781 1324.710938 C 2728.511719 1324.621094 2728.480469 1324.5 2728.449219 1324.410156 C 2728.488281 1324.53125 2728.558594 1324.640625 2728.648438 1324.71875 L 2728.699219 1324.730469 C 2728.71875 1324.75 2728.71875 1324.738281 2728.71875 1324.761719 L 2728.710938 1324.769531 C 2728.871094 1324.890625 2729.078125 1324.941406 2729.289062 1324.898438 C 2729.679688 1324.820312 2729.941406 1324.441406 2729.859375 1324.039062 C 2729.839844 1323.921875 2729.730469 1323.648438 2729.351562 1323.441406 C 2729.140625 1323.328125 2728.671875 1323.160156 2727.980469 1322.929688 C 2725.800781 1322.230469 2721.171875 1320.96875 2715.199219 1319.398438 C 2708.390625 1317.609375 2699.898438 1315.390625 2691.339844 1313.191406 C 2685.910156 1311.789062 2680.5 1310.320312 2675.460938 1309.089844 C 2668.71875 1307.429688 2662.691406 1306.128906 2658.558594 1304.949219 C 2654.300781 1303.78125 2647.769531 1301.179688 2640.96875 1298.058594 C 2631.238281 1293.589844 2620.96875 1288.050781 2615.691406 1284.601562 C 2615.03125 1284.171875 2614.359375 1283.679688 2613.871094 1283.300781 C 2613.5 1281.488281 2611.730469 1280.320312 2609.921875 1280.691406 C 2608.550781 1280.960938 2607.828125 1281.699219 2607.398438 1282.390625 C 2607.019531 1283.011719 2606.820312 1283.71875 2606.878906 1284.53125 C 2606.921875 1285.121094 2607.109375 1285.910156 2607.761719 1286.761719 C 2608.339844 1287.53125 2609.808594 1288.789062 2612.039062 1290.230469 C 2617.511719 1293.761719 2628.238281 1299.230469 2638.289062 1303.878906 C 2645.449219 1307.191406 2652.261719 1310.089844 2656.730469 1311.390625 C 2660.050781 1312.351562 2664.53125 1313.550781 2669.679688 1314.679688 C 2672.410156 1315.28125 2675.320312 1315.851562 2678.351562 1316.398438 C 2695.070312 1319.441406 2714.890625 1322.238281 2723.988281 1323.820312 C 2726.171875 1324.199219 2727.71875 1324.488281 2728.449219 1324.691406 C 2728.480469 1324.699219 2728.519531 1324.699219 2728.550781 1324.710938 Z M 2611.539062 1287.179688 L 2611.460938 1287.210938 L 2611.5 1287.199219 Z M 2611.738281 1287.121094 L 2611.660156 1287.148438 L 2611.730469 1287.121094 L 2611.78125 1287.101562 Z M 2611.949219 1287.03125 L 2611.929688 1287.039062 L 2611.949219 1287.039062 L 2611.949219 1287.03125 "/>
<path fill-rule="evenodd" fill="rgb(53.90625%, 29.492188%, 13.305664%)" fill-opacity="1" d="M 1990.679688 1521.171875 C 1982.570312 1506.269531 1994.308594 1461.039062 1993.480469 1426.140625 C 1993.089844 1410.128906 1982.46875 1357.921875 1976.769531 1343.660156 C 1972.398438 1332.710938 1963.898438 1311.621094 1968.039062 1300.519531 C 1972.171875 1289.429688 1978.429688 1286.800781 2001.570312 1277.101562 C 2015.71875 1271.160156 2027 1278.320312 2032.339844 1287.5 C 2037.679688 1296.671875 2033.988281 1319.660156 2033.589844 1332.148438 C 2033.019531 1350.03125 2032.589844 1430.28125 2037.070312 1452.390625 C 2041.449219 1474.019531 2049.839844 1504.050781 2042.109375 1515.511719 C 2034.378906 1526.96875 1998.78125 1536.058594 1990.679688 1521.171875 "/>
<path fill-rule="evenodd" fill="rgb(100%, 59.375%, 0%)" fill-opacity="1" d="M 1823.300781 1523.878906 C 1818.691406 1501.121094 1987.480469 1525.078125 2025.410156 1517.390625 C 2088.171875 1504.679688 2189.96875 1430.570312 2194.578125 1453.328125 C 2199.191406 1476.089844 2172.230469 1629.851562 2053.078125 1653.980469 C 1930.738281 1678.761719 1827.910156 1546.648438 1823.300781 1523.878906 "/>
<path fill-rule="evenodd" fill="rgb(72.068787%, 42.700195%, 0%)" fill-opacity="1" d="M 1868.480469 1521.261719 C 1865.878906 1508.429688 1995.320312 1514.980469 2024.96875 1508.980469 C 2074.011719 1499.050781 2155.828125 1452.320312 2158.429688 1465.148438 C 2161.03125 1477.980469 2133.671875 1567.089844 2040.558594 1585.949219 C 1944.949219 1605.320312 1871.078125 1534.089844 1868.480469 1521.261719 "/>
<path fill-rule="evenodd" fill="rgb(98.631287%, 61.131287%, 0%)" fill-opacity="1" d="M 2857.761719 1902.691406 C 3388.699219 1880.78125 3837.96875 2304.089844 3860.390625 2847.410156 C 3882.808594 3390.71875 3469.949219 3849.609375 2939 3871.519531 C 2408.050781 3893.429688 1958.789062 3470.121094 1936.371094 2926.800781 C 1913.949219 2383.488281 2326.808594 1924.601562 2857.761719 1902.691406 "/>
<path fill-rule="evenodd" fill="rgb(97.65625%, 84.568787%, 63.084412%)" fill-opacity="1" d="M 2881.21875 2029.101562 C 3378.039062 2008.601562 3797.628906 2385.109375 3817.609375 2869.378906 C 3837.589844 3353.640625 3450.460938 3763.441406 2953.628906 3783.941406 C 2456.800781 3804.441406 2037.21875 3427.929688 2017.230469 2943.671875 C 1997.25 2459.410156 2384.390625 2049.601562 2881.21875 2029.101562 "/>
<path fill-rule="evenodd" fill="rgb(100%, 68.164062%, 16.088867%)" fill-opacity="1" d="M 2904.820312 2857.609375 C 2872.699219 2872.289062 2891.609375 2943.609375 2936.78125 2919.230469 C 2947.359375 2913.519531 2960.820312 2902.820312 2964.328125 2887.039062 C 2971 2857.03125 2931.648438 2845.351562 2904.820312 2857.609375 "/>
<path fill-rule="evenodd" fill="rgb(98.826599%, 65.625%, 17.504883%)" fill-opacity="1" d="M 2973.539062 2810.769531 C 2969.148438 2827.210938 2955.101562 2839.269531 2938.179688 2841.121094 C 2921.261719 2842.96875 2904.941406 2834.238281 2897.089844 2819.140625 C 2793.550781 2621.679688 2665.019531 2415.058594 2588.191406 2237.179688 C 2582.328125 2223.46875 2584.328125 2207.671875 2593.410156 2195.851562 C 2688.601562 2072.78125 2999.820312 2089.738281 3116.328125 2174.761719 C 3130.121094 2184.789062 3136.308594 2202.28125 3131.910156 2218.761719 C 3107.289062 2310.828125 3019.230469 2640.019531 2973.539062 2810.769531 "/>
<path fill-rule="evenodd" fill="rgb(100%, 46.604919%, 0%)" fill-opacity="1" d="M 2760.941406 2230.921875 C 2759.019531 2229.71875 2760.949219 2236.429688 2760.960938 2238.820312 C 2761.070312 2278.328125 2772.148438 2325.769531 2794.660156 2357.660156 C 2798.050781 2362.46875 2801.640625 2370.148438 2806.578125 2372.738281 C 2810.148438 2374.621094 2811.839844 2379.460938 2815.089844 2381.171875 C 2815.390625 2381.320312 2817.070312 2383.269531 2817.351562 2382.96875 C 2818.410156 2381.808594 2816.570312 2376.601562 2816.199219 2375.679688 C 2811.128906 2363.109375 2804.109375 2351.71875 2799.128906 2339.371094 C 2789.390625 2315.210938 2787.691406 2288.429688 2778.558594 2264.179688 C 2775.179688 2255.199219 2772.308594 2246.941406 2767.179688 2238.761719 C 2765.808594 2236.570312 2760.75 2230.921875 2760.941406 2230.921875 "/>
<path fill-rule="evenodd" fill="rgb(97.068787%, 82.8125%, 62.109375%)" fill-opacity="1" d="M 2835.710938 2551.089844 C 2834.640625 2551.128906 2836 2558.050781 2836 2558.050781 C 2837.441406 2592.851562 2847.621094 2636.378906 2872.101562 2663.71875 C 2875.789062 2667.839844 2891.019531 2690.308594 2894.808594 2688.800781 C 2904.269531 2685.050781 2887.300781 2655.410156 2881.710938 2644.699219 C 2870.769531 2623.738281 2865.460938 2600.851562 2855.160156 2579.800781 C 2851.339844 2572 2848.078125 2564.820312 2842.46875 2557.789062 C 2840.96875 2555.898438 2836.789062 2551.050781 2835.710938 2551.089844 "/>
<path fill-rule="evenodd" fill="rgb(97.068787%, 82.8125%, 62.109375%)" fill-opacity="1" d="M 2948.769531 2658.039062 C 2948.261719 2657.898438 2947 2662.910156 2947 2662.910156 C 2938.160156 2687.210938 2930.96875 2718.96875 2934.789062 2741.851562 C 2935.371094 2745.300781 2936.25 2763.308594 2938.410156 2762.890625 C 2943.800781 2761.820312 2944.070312 2738.558594 2944.421875 2730.25 C 2945.101562 2713.980469 2948.898438 2697.289062 2949.898438 2681.050781 C 2950.269531 2675.039062 2950.71875 2669.539062 2950.058594 2663.769531 C 2949.878906 2662.21875 2949.28125 2658.191406 2948.769531 2658.039062 "/>
<path fill-rule="evenodd" fill="rgb(100%, 46.604919%, 0%)" fill-opacity="1" d="M 2961.921875 2257.871094 C 2963.839844 2256.339844 2963.089844 2262.828125 2963.601562 2264.988281 C 2971.988281 2300.558594 2969.648438 2345.828125 2951 2379.769531 C 2948.199219 2384.878906 2945.769531 2392.628906 2940.738281 2396.109375 C 2937.089844 2398.640625 2936.210938 2403.378906 2932.898438 2405.671875 C 2932.601562 2405.878906 2931.109375 2408.03125 2930.71875 2407.820312 C 2929.269531 2407.03125 2930.230469 2401.910156 2930.460938 2400.988281 C 2933.488281 2388.5 2939 2376.621094 2941.980469 2364.351562 C 2947.820312 2340.339844 2943.980469 2315.839844 2949.101562 2291.898438 C 2951 2283.03125 2952.480469 2274.929688 2956.53125 2266.371094 C 2957.609375 2264.078125 2962.128906 2257.820312 2961.921875 2257.871094 "/>
<path fill-rule="evenodd" fill="rgb(98.826599%, 65.625%, 17.504883%)" fill-opacity="1" d="M 2875.980469 2799.289062 C 2886.460938 2813.421875 2886.828125 2832.628906 2876.898438 2847.148438 C 2866.96875 2861.671875 2848.921875 2868.289062 2831.960938 2863.640625 C 2606.21875 2802.378906 2362.519531 2750.261719 2172.171875 2682.53125 C 2159.710938 2678.058594 2150.148438 2667.871094 2146.480469 2655.140625 C 2101.171875 2496.371094 2351.261719 2264.410156 2503.238281 2242.238281 C 2519 2239.960938 2534.660156 2246.960938 2543.480469 2260.21875 C 2580.699219 2317.199219 2617.601562 2385.011719 2652.871094 2439.941406 C 2739.199219 2574.328125 2805.601562 2704.558594 2875.980469 2799.289062 "/>
<path fill-rule="evenodd" fill="rgb(100%, 46.604919%, 0%)" fill-opacity="1" d="M 2329.550781 2529.878906 C 2327.070312 2530.230469 2334.21875 2533.769531 2336.238281 2535.460938 C 2369.679688 2563.378906 2418.230469 2590.070312 2462.421875 2598.640625 C 2469.078125 2599.929688 2478.320312 2603.128906 2484.300781 2601.890625 C 2488.628906 2601 2494.011719 2603.371094 2497.929688 2602.558594 C 2498.300781 2602.480469 2501.238281 2602.820312 2501.191406 2602.421875 C 2501.03125 2600.949219 2495.210938 2598.398438 2494.160156 2597.980469 C 2479.648438 2592.230469 2464.648438 2588.539062 2450.410156 2582.898438 C 2422.539062 2571.851562 2398.621094 2553.941406 2371.148438 2542.449219 C 2360.980469 2538.199219 2351.800781 2534.140625 2340.960938 2531.539062 C 2338.058594 2530.839844 2329.410156 2530 2329.550781 2529.878906 "/>
<path fill-rule="evenodd" fill="rgb(97.068787%, 82.8125%, 62.109375%)" fill-opacity="1" d="M 2527.828125 2679.238281 C 2527.171875 2680.050781 2533.898438 2683.96875 2533.898438 2683.96875 C 2564.21875 2707.589844 2607.601562 2731.089844 2646.609375 2732.820312 C 2652.480469 2733.078125 2681.359375 2738.03125 2682.558594 2734.21875 C 2685.53125 2724.738281 2649.460938 2715.96875 2636.789062 2712.410156 C 2611.980469 2705.449219 2589.199219 2693.050781 2564.71875 2685.558594 C 2555.648438 2682.789062 2547.460938 2680.050781 2537.878906 2679.109375 C 2535.308594 2678.859375 2528.488281 2678.429688 2527.828125 2679.238281 "/>
<path fill-rule="evenodd" fill="rgb(97.068787%, 82.8125%, 62.109375%)" fill-opacity="1" d="M 2766.46875 2722.421875 C 2766.019531 2722.679688 2769.429688 2727.140625 2769.429688 2727.140625 C 2784.210938 2750.730469 2806.359375 2778.421875 2828.171875 2791.878906 C 2831.460938 2793.910156 2847.25 2806.03125 2848.289062 2804.171875 C 2850.890625 2799.53125 2831.429688 2782.859375 2824.628906 2776.71875 C 2811.328125 2764.699219 2799.699219 2750.128906 2786.640625 2737.910156 C 2781.800781 2733.378906 2777.460938 2729.160156 2772.148438 2725.550781 C 2770.71875 2724.578125 2766.921875 2722.148438 2766.46875 2722.421875 "/>
<path fill-rule="evenodd" fill="rgb(100%, 46.604919%, 0%)" fill-opacity="1" d="M 2558.148438 2521.089844 C 2558.109375 2518.621094 2563.109375 2523.761719 2565.261719 2524.921875 C 2600.761719 2544.078125 2637.46875 2577.851562 2654.019531 2615.339844 C 2656.511719 2620.980469 2661.480469 2628.21875 2661.140625 2634.320312 C 2660.898438 2638.738281 2664.339844 2642.730469 2664.128906 2646.738281 C 2664.109375 2647.109375 2664.949219 2649.699219 2664.519531 2649.828125 C 2662.910156 2650.308594 2659.210938 2645.988281 2658.589844 2645.191406 C 2650.011719 2634.140625 2643.550781 2621.75 2635.128906 2610.910156 C 2618.640625 2589.691406 2595.460938 2575.101562 2578.558594 2554.441406 C 2572.308594 2546.789062 2566.421875 2539.980469 2561.828125 2531 C 2560.601562 2528.589844 2558.261719 2520.898438 2558.148438 2521.089844 "/>
<path fill-rule="evenodd" fill="rgb(98.826599%, 65.625%, 17.504883%)" fill-opacity="1" d="M 2838.839844 2867.621094 C 2855.621094 2871.199219 2868.429688 2884.789062 2871.011719 2901.75 C 2873.589844 2918.710938 2865.410156 2935.5 2850.460938 2943.921875 C 2644.441406 3060.820312 2429.828125 3204.761719 2243.410156 3292.738281 C 2230.558594 3298.738281 2215.53125 3297.730469 2203.601562 3290.039062 C 2063.601562 3199.171875 2063.691406 2870.480469 2149.25 2746.511719 C 2158.710938 2732.789062 2175.5 2726.121094 2191.800781 2729.589844 C 2288.851562 2750.28125 2654.011719 2828.191406 2838.839844 2867.621094 "/>
<path fill-rule="evenodd" fill="rgb(100%, 46.604919%, 0%)" fill-opacity="1" d="M 2228.628906 3113.371094 C 2227.460938 3115.410156 2234.5 3113.101562 2237.050781 3112.980469 C 2279.160156 3111.050781 2329.089844 3097.390625 2361.789062 3072.640625 C 2366.71875 3068.910156 2374.691406 3064.839844 2377.179688 3059.609375 C 2378.96875 3055.828125 2384.03125 3053.859375 2385.660156 3050.421875 C 2385.808594 3050.109375 2387.789062 3048.269531 2387.449219 3047.988281 C 2386.160156 3046.949219 2380.699219 3049.101562 2379.75 3049.519531 C 2366.640625 3055.339844 2354.898438 3063.140625 2342.03125 3068.851562 C 2316.839844 3080.039062 2288.378906 3083.039062 2263.058594 3093.601562 C 2253.679688 3097.511719 2245.039062 3100.859375 2236.621094 3106.550781 C 2234.359375 3108.070312 2228.640625 3113.558594 2228.628906 3113.371094 "/>
<path fill-rule="evenodd" fill="rgb(97.068787%, 82.8125%, 62.109375%)" fill-opacity="1" d="M 2480.808594 3036.300781 C 2480.921875 3037.410156 2488.21875 3035.679688 2488.21875 3035.679688 C 2525.230469 3032.589844 2571.050781 3020.050781 2598.78125 2993.460938 C 2602.949219 2989.460938 2626.03125 2972.660156 2624.199219 2968.808594 C 2619.640625 2959.191406 2589.03125 2978.121094 2577.941406 2984.390625 C 2556.230469 2996.679688 2532.128906 3003.21875 2510.289062 3014.851562 C 2502.199219 3019.160156 2494.730469 3022.871094 2487.558594 3029 C 2485.640625 3030.640625 2480.699219 3035.179688 2480.808594 3036.300781 "/>
<path fill-rule="evenodd" fill="rgb(97.068787%, 82.8125%, 62.109375%)" fill-opacity="1" d="M 2673.078125 2899.359375 C 2672.949219 2899.890625 2678.359375 2900.960938 2678.359375 2900.960938 C 2704.789062 2908.988281 2739.070312 2914.96875 2763.238281 2909.960938 C 2766.878906 2909.210938 2786.039062 2907.460938 2785.460938 2905.238281 C 2784.011719 2899.71875 2759.199219 2900.511719 2750.308594 2900.53125 C 2732.929688 2900.578125 2714.910156 2897.410156 2697.539062 2897.128906 C 2691.109375 2897.019531 2685.230469 2896.800781 2679.109375 2897.761719 C 2677.46875 2898.011719 2673.199219 2898.820312 2673.078125 2899.359375 "/>
<path fill-rule="evenodd" fill="rgb(100%, 46.604919%, 0%)" fill-opacity="1" d="M 2245.671875 2904.171875 C 2243.929688 2902.25 2250.890625 2902.730469 2253.160156 2902.101562 C 2290.609375 2891.78125 2339.011719 2892.121094 2376.269531 2909.851562 C 2381.878906 2912.519531 2390.28125 2914.671875 2394.289062 2919.71875 C 2397.191406 2923.378906 2402.308594 2924.070312 2404.941406 2927.390625 C 2405.179688 2927.691406 2407.558594 2929.140625 2407.351562 2929.550781 C 2406.589844 2931.078125 2401.078125 2930.320312 2400.089844 2930.128906 C 2386.589844 2927.570312 2373.609375 2922.410156 2360.359375 2919.890625 C 2334.421875 2914.960938 2308.519531 2920.058594 2282.699219 2915.859375 C 2273.128906 2914.308594 2264.410156 2913.148438 2255.050781 2909.351562 C 2252.550781 2908.328125 2245.609375 2903.949219 2245.671875 2904.171875 "/>
<path fill-rule="evenodd" fill="rgb(98.826599%, 65.625%, 17.504883%)" fill-opacity="1" d="M 2846.738281 2945.621094 C 2860.871094 2936.648438 2879.03125 2937.101562 2892.691406 2946.769531 C 2906.351562 2956.441406 2912.808594 2973.410156 2909.050781 2989.71875 C 2860.03125 3206.011719 2825.398438 3446.648438 2768.238281 3630.96875 C 2763.628906 3645.730469 2751.160156 3656.671875 2735.929688 3659.320312 C 2577.960938 3686.238281 2340.640625 3467.070312 2302.121094 3325.960938 C 2297.320312 3308.488281 2304.480469 3289.929688 2319.78125 3280.21875 C 2403.890625 3226.800781 2698.609375 3039.679688 2846.738281 2945.621094 "/>
<path fill-rule="evenodd" fill="rgb(100%, 46.604919%, 0%)" fill-opacity="1" d="M 2668.808594 3238.910156 C 2669.558594 3241.078125 2672.480469 3234.820312 2674.078125 3233.039062 C 2700.359375 3203.738281 2723.109375 3161.199219 2726.308594 3122.511719 C 2726.789062 3116.679688 2729.03125 3108.578125 2726.789062 3103.351562 C 2725.179688 3099.558594 2727.050781 3094.851562 2725.578125 3091.410156 C 2725.441406 3091.089844 2725.390625 3088.519531 2724.960938 3088.558594 C 2723.339844 3088.699219 2721.339844 3093.800781 2721.019531 3094.71875 C 2716.699219 3107.429688 2714.75 3120.570312 2710.511719 3133.039062 C 2702.210938 3157.449219 2685.699219 3178.410156 2676.851562 3202.46875 C 2673.570312 3211.378906 2670.371094 3219.421875 2669.03125 3228.921875 C 2668.671875 3231.460938 2668.96875 3239.03125 2668.808594 3238.910156 "/>
<path fill-rule="evenodd" fill="rgb(97.068787%, 82.8125%, 62.109375%)" fill-opacity="1" d="M 2808.429688 3122.921875 C 2809.320312 3123.609375 2812.839844 3117.578125 2812.839844 3117.578125 C 2834.910156 3090.871094 2855.78125 3051.828125 2854.359375 3015.179688 C 2854.140625 3009.660156 2856.898438 2982.808594 2852.839844 2981.378906 C 2842.730469 2977.820312 2836.589844 3011.128906 2833.929688 3022.808594 C 2828.738281 3045.648438 2817.730469 3066.148438 2811.949219 3088.628906 C 2809.820312 3096.960938 2807.648438 3104.46875 2807.460938 3113.429688 C 2807.410156 3115.839844 2807.53125 3122.230469 2808.429688 3122.921875 "/>
<path fill-rule="evenodd" fill="rgb(97.068787%, 82.8125%, 62.109375%)" fill-opacity="1" d="M 2489.851562 3341.460938 C 2490.109375 3341.929688 2494.519531 3339.050781 2494.519531 3339.050781 C 2517.839844 3327 2545.261719 3308.101562 2558.648438 3287.988281 C 2560.671875 3284.960938 2572.710938 3270.660156 2570.878906 3269.429688 C 2566.328125 3266.339844 2549.789062 3283.789062 2543.699219 3289.839844 C 2531.78125 3301.691406 2517.351562 3311.601562 2505.230469 3323.191406 C 2500.738281 3327.480469 2496.558594 3331.320312 2492.96875 3336.191406 C 2492.011719 3337.488281 2489.589844 3340.980469 2489.851562 3341.460938 "/>
<path fill-rule="evenodd" fill="rgb(100%, 46.604919%, 0%)" fill-opacity="1" d="M 2611.230469 3496.960938 C 2608.671875 3496.800781 2613.601562 3492.511719 2614.628906 3490.570312 C 2631.628906 3458.621094 2663.730469 3426.691406 2701.378906 3414.089844 C 2707.039062 3412.199219 2714.160156 3408.089844 2720.539062 3408.890625 C 2725.148438 3409.46875 2729.03125 3406.550781 2733.210938 3407.070312 C 2733.601562 3407.121094 2736.230469 3406.539062 2736.398438 3406.949219 C 2737.039062 3408.511719 2732.839844 3411.648438 2732.058594 3412.179688 C 2721.28125 3419.378906 2708.921875 3424.480469 2698.328125 3431.550781 C 2677.609375 3445.398438 2664.339844 3466.109375 2644.25 3480.378906 C 2636.800781 3485.671875 2630.210938 3490.679688 2621.238281 3494.289062 C 2618.839844 3495.25 2611.03125 3496.851562 2611.230469 3496.960938 "/>
<path fill-rule="evenodd" fill="rgb(98.826599%, 65.625%, 17.504883%)" fill-opacity="1" d="M 2893.148438 2971.878906 C 2895.019531 2953.929688 2908.339844 2939.28125 2926.03125 2935.71875 C 2943.71875 2932.148438 2961.671875 2940.488281 2970.351562 2956.308594 C 3081.75 3158.171875 3212.859375 3366.800781 3297.230469 3548.851562 C 3302.148438 3559.53125 3302.28125 3571.800781 3297.578125 3582.570312 C 3233.660156 3729.371094 2951.03125 3732.550781 2841.949219 3644.640625 C 2831.101562 3635.871094 2825.429688 3622.199219 2826.871094 3608.320312 C 2835.960938 3520.820312 2872.679688 3168.421875 2893.148438 2971.878906 "/>
<path fill-rule="evenodd" fill="rgb(100%, 46.604919%, 0%)" fill-opacity="1" d="M 3102.28125 3575.730469 C 3103.480469 3577.46875 3104.050781 3570 3104.820312 3567.511719 C 3117.511719 3526.480469 3123.730469 3474.328125 3115.539062 3435.308594 C 3114.308594 3429.429688 3113.839844 3420.519531 3110.621094 3416.53125 C 3108.289062 3413.640625 3108.460938 3408.171875 3106.351562 3405.550781 C 3106.148438 3405.308594 3105.398438 3402.839844 3105.058594 3403.078125 C 3103.820312 3404 3103.648438 3409.898438 3103.660156 3410.949219 C 3103.761719 3425.328125 3105.851562 3439 3105.949219 3453.121094 C 3106.140625 3480.761719 3098.890625 3509.011719 3098.550781 3536.570312 C 3098.421875 3546.78125 3098.109375 3556.109375 3099.679688 3565.949219 C 3100.109375 3568.578125 3102.441406 3575.769531 3102.28125 3575.730469 "/>
<path fill-rule="evenodd" fill="rgb(97.068787%, 82.8125%, 62.109375%)" fill-opacity="1" d="M 3063.25 3308.058594 C 3064.179688 3307.941406 3062.191406 3300.578125 3062.191406 3300.578125 C 3056.890625 3263.171875 3043.03125 3216.96875 3018.710938 3189.230469 C 3015.050781 3185.050781 2999.289062 3161.898438 2996.191406 3163.789062 C 2988.460938 3168.511719 3006.558594 3199.261719 3012.640625 3210.410156 C 3024.519531 3232.230469 3031.769531 3256.53125 3043.121094 3278.488281 C 3047.320312 3286.628906 3050.980469 3294.140625 3056.640625 3301.320312 C 3058.148438 3303.25 3062.328125 3308.191406 3063.25 3308.058594 "/>
<path fill-rule="evenodd" fill="rgb(97.068787%, 82.8125%, 62.109375%)" fill-opacity="1" d="M 2957.359375 3135.910156 C 2957.808594 3136.03125 2958.308594 3130.550781 2958.308594 3130.550781 C 2963.109375 3103.730469 2965.609375 3068.980469 2959.640625 3044.589844 C 2958.75 3040.910156 2955.878906 3021.558594 2954.058594 3022.171875 C 2949.539062 3023.699219 2952.019531 3048.789062 2952.691406 3057.769531 C 2954 3075.359375 2952.671875 3093.621094 2953.699219 3111.191406 C 2954.078125 3117.699219 2954.328125 3123.648438 2955.578125 3129.828125 C 2955.910156 3131.480469 2956.898438 3135.789062 2957.359375 3135.910156 "/>
<path fill-rule="evenodd" fill="rgb(100%, 46.604919%, 0%)" fill-opacity="1" d="M 2945.339844 3459.078125 C 2943.859375 3460.859375 2943.75 3453.820312 2943.058594 3451.53125 C 2931.671875 3413.769531 2928.410156 3364.808594 2940.539062 3326.910156 C 2942.371094 3321.199219 2943.558594 3312.679688 2947.5 3308.570312 C 2950.351562 3305.589844 2950.558594 3300.410156 2953.140625 3297.710938 C 2953.378906 3297.460938 2954.421875 3295.039062 2954.78125 3295.25 C 2956.121094 3296 2955.890625 3301.589844 2955.800781 3302.578125 C 2954.640625 3316.269531 2951.269531 3329.460938 2950.128906 3342.898438 C 2947.890625 3369.191406 2954.058594 3395.328125 2952.429688 3421.5 C 2951.828125 3431.191406 2951.5 3440.03125 2949 3449.539062 C 2948.328125 3452.078125 2945.160156 3459.140625 2945.339844 3459.078125 "/>
<path fill-rule="evenodd" fill="rgb(98.826599%, 65.625%, 17.504883%)" fill-opacity="1" d="M 2971.519531 2974.71875 C 2961.570312 2959.75 2962.460938 2940.050781 2973.71875 2926.039062 C 2984.988281 2912.03125 3004.03125 2906.929688 3020.789062 2913.429688 C 3229.898438 2993.910156 3457.96875 3067.230469 3634.378906 3149.820312 C 3645.308594 3154.960938 3653.429688 3164.640625 3656.601562 3176.300781 C 3696.761719 3324.828125 3484.351562 3501.941406 3347.058594 3505.140625 C 3332.929688 3505.449219 3319.628906 3498.511719 3311.808594 3486.738281 C 3264.101562 3414.988281 3077.070312 3133.550781 2971.519531 2974.71875 "/>
<path fill-rule="evenodd" fill="rgb(100%, 46.604919%, 0%)" fill-opacity="1" d="M 3392.320312 3141.820312 C 3394.398438 3141.558594 3388.148438 3137.800781 3386.339844 3136.058594 C 3356.460938 3107.308594 3313.839844 3079.25 3275.898438 3069.269531 C 3270.191406 3067.761719 3262.179688 3064.28125 3257.179688 3065.300781 C 3253.558594 3066.039062 3248.871094 3063.511719 3245.578125 3064.179688 C 3245.28125 3064.238281 3242.769531 3063.808594 3242.828125 3064.199219 C 3243.039062 3065.671875 3248.121094 3068.390625 3249.03125 3068.839844 C 3261.648438 3075.019531 3274.570312 3079.179688 3286.949219 3085.25 C 3311.179688 3097.128906 3332.441406 3115.660156 3356.359375 3127.960938 C 3365.21875 3132.511719 3373.21875 3136.839844 3382.550781 3139.78125 C 3385.050781 3140.570312 3392.429688 3141.699219 3392.320312 3141.820312 "/>
<path fill-rule="evenodd" fill="rgb(97.068787%, 82.8125%, 62.109375%)" fill-opacity="1" d="M 3167.128906 3144.191406 C 3167.558594 3143.988281 3164.550781 3139.601562 3164.550781 3139.601562 C 3151.660156 3116.648438 3132.128906 3089.238281 3112.511719 3074.800781 C 3109.550781 3072.628906 3095.410156 3060.011719 3094.398438 3061.601562 C 3091.890625 3065.558594 3109.269531 3082.679688 3115.328125 3088.949219 C 3127.191406 3101.21875 3137.441406 3115.640625 3149.070312 3128.070312 C 3153.378906 3132.671875 3157.25 3136.949219 3162.019531 3140.769531 C 3163.289062 3141.789062 3166.710938 3144.378906 3167.128906 3144.191406 "/>
<path fill-rule="evenodd" fill="rgb(100%, 46.604919%, 0%)" fill-opacity="1" d="M 3383.929688 3353.199219 C 3383.898438 3355.449219 3379.460938 3350.269531 3377.519531 3349 C 3345.511719 3328.011719 3312.789062 3293.601562 3298.671875 3257.839844 C 3296.550781 3252.449219 3292.191406 3245.371094 3292.671875 3239.859375 C 3293.011719 3235.859375 3289.96875 3231.878906 3290.28125 3228.261719 C 3290.308594 3227.921875 3289.609375 3225.480469 3290.011719 3225.410156 C 3291.5 3225.128906 3294.769531 3229.429688 3295.320312 3230.230469 C 3302.878906 3241.128906 3308.449219 3253.058594 3315.859375 3263.761719 C 3330.390625 3284.71875 3351.238281 3300.328125 3366.148438 3320.808594 C 3371.671875 3328.398438 3376.878906 3335.191406 3380.828125 3343.820312 C 3381.890625 3346.128906 3383.828125 3353.359375 3383.929688 3353.199219 "/>
<path fill-rule="evenodd" fill="rgb(98.826599%, 65.625%, 17.504883%)" fill-opacity="1" d="M 3040.449219 2940.789062 C 3022.960938 2938.5 3008.859375 2925.328125 3005.378906 2908.039062 C 3001.898438 2890.75 3009.800781 2873.160156 3025.039062 2864.28125 C 3198.949219 2761.941406 3368.828125 2643.441406 3590.96875 2583.71875 C 3599.441406 2581.460938 3608.410156 2581.960938 3616.578125 2585.140625 C 3764.558594 2642.191406 3779.199219 2964.871094 3694.878906 3072.109375 C 3686.179688 3083.160156 3672.441406 3089.011719 3658.441406 3087.621094 C 3433.429688 3064.808594 3240.28125 2966.640625 3040.449219 2940.789062 "/>
<path fill-rule="evenodd" fill="rgb(100%, 46.604919%, 0%)" fill-opacity="1" d="M 3601.441406 2721.25 C 3602.558594 2719.648438 3595.621094 2721.859375 3593.089844 2722.121094 C 3551.421875 2726.460938 3502.171875 2740.101562 3470.148438 2760.820312 C 3465.328125 2763.941406 3457.488281 2767.53125 3455.109375 2771.601562 C 3453.378906 2774.550781 3448.398438 2776.371094 3446.839844 2779.039062 C 3446.691406 2779.289062 3444.761719 2780.789062 3445.101562 2780.980469 C 3446.398438 2781.671875 3451.769531 2779.691406 3452.710938 2779.308594 C 3465.609375 2774.058594 3477.109375 2767.441406 3489.78125 2762.28125 C 3514.570312 2752.199219 3542.699219 2748 3567.621094 2738.371094 C 3576.851562 2734.808594 3585.359375 2731.710938 3593.621094 2726.890625 C 3595.828125 2725.601562 3601.421875 2721.109375 3601.441406 2721.25 "/>
<path fill-rule="evenodd" fill="rgb(97.068787%, 82.8125%, 62.109375%)" fill-opacity="1" d="M 3352.820312 2796.140625 C 3352.691406 2795.320312 3345.488281 2797.121094 3345.488281 2797.121094 C 3308.878906 2801.96875 3263.691406 2814.488281 3236.621094 2836.238281 C 3232.550781 2839.511719 3209.941406 2853.628906 3211.808594 2856.378906 C 3216.460938 2863.25 3246.5 2847.011719 3257.390625 2841.570312 C 3278.710938 2830.898438 3302.480469 2824.359375 3323.941406 2814.179688 C 3331.890625 2810.410156 3339.230469 2807.121094 3346.238281 2802.058594 C 3348.121094 2800.699219 3352.941406 2796.96875 3352.820312 2796.140625 "/>
<path fill-rule="evenodd" fill="rgb(97.068787%, 82.8125%, 62.109375%)" fill-opacity="1" d="M 3164.421875 2911.578125 C 3164.539062 2911.171875 3159.160156 2910.738281 3159.160156 2910.738281 C 3132.878906 2906.570312 3098.839844 2904.480469 3074.96875 2909.878906 C 3071.378906 2910.699219 3052.441406 2913.320312 3053.039062 2914.929688 C 3054.558594 2918.960938 3079.121094 2916.660156 3087.910156 2916.019531 C 3105.128906 2914.789062 3123.019531 2915.910156 3140.21875 2914.929688 C 3146.589844 2914.558594 3152.429688 2914.320312 3158.46875 2913.179688 C 3160.089844 2912.878906 3164.308594 2911.980469 3164.421875 2911.578125 "/>
<path fill-rule="evenodd" fill="rgb(100%, 46.604919%, 0%)" fill-opacity="1" d="M 3450.5 2919.078125 C 3452.25 2920.390625 3445.351562 2920.519531 3443.109375 2921.140625 C 3406.179688 2931.421875 3358.25 2934.511719 3321.078125 2923.851562 C 3315.480469 2922.238281 3307.128906 2921.21875 3303.089844 2917.730469 C 3300.160156 2915.199219 3295.089844 2915.03125 3292.429688 2912.738281 C 3292.191406 2912.53125 3289.808594 2911.621094 3290.011719 2911.300781 C 3290.738281 2910.101562 3296.21875 2910.28125 3297.191406 2910.359375 C 3310.601562 2911.339844 3323.53125 2914.289062 3336.691406 2915.261719 C 3362.449219 2917.148438 3388.03125 2911.558594 3413.660156 2912.910156 C 3423.160156 2913.410156 3431.808594 2913.671875 3441.128906 2915.859375 C 3443.628906 2916.449219 3450.558594 2919.238281 3450.5 2919.078125 "/>
<path fill-rule="evenodd" fill="rgb(98.826599%, 65.625%, 17.504883%)" fill-opacity="1" d="M 3038.839844 2854.929688 C 3023.738281 2864.828125 3003.960938 2863.761719 2990.011719 2852.289062 C 2976.070312 2840.820312 2971.210938 2821.621094 2978.011719 2804.890625 C 3056.339844 2611.128906 3128.289062 2401.390625 3208.578125 2237.988281 C 3213.738281 2227.570312 3223.058594 2219.800781 3234.25 2216.609375 C 3378.148438 2175.761719 3547.828125 2367.109375 3551.890625 2494.878906 C 3552.359375 2509.238281 3545.308594 2522.808594 3533.289062 2530.691406 C 3463.191406 2576.691406 3194.511719 2752.859375 3038.839844 2854.929688 "/>
<path fill-rule="evenodd" fill="rgb(100%, 46.604919%, 0%)" fill-opacity="1" d="M 3309.390625 2334.320312 C 3309.160156 2332.390625 3305.460938 2338.289062 3303.761719 2340.011719 C 3275.589844 2368.449219 3247.988281 2408.730469 3238.011719 2444.25 C 3236.5 2449.601562 3233.058594 2457.128906 3234.011719 2461.761719 C 3234.710938 2465.109375 3232.210938 2469.53125 3232.839844 2472.570312 C 3232.890625 2472.851562 3232.460938 2475.199219 3232.839844 2475.128906 C 3234.269531 2474.898438 3236.949219 2470.121094 3237.390625 2469.261719 C 3243.488281 2457.390625 3247.640625 2445.269531 3253.628906 2433.621094 C 3265.351562 2410.800781 3283.519531 2390.609375 3295.648438 2368.078125 C 3300.148438 2359.738281 3304.421875 2352.199219 3307.339844 2343.449219 C 3308.128906 2341.109375 3309.28125 2334.21875 3309.390625 2334.320312 "/>
<path fill-rule="evenodd" fill="rgb(97.068787%, 82.8125%, 62.109375%)" fill-opacity="1" d="M 3174.179688 2542.46875 C 3173.53125 2541.898438 3169.359375 2547.628906 3169.359375 2547.628906 C 3145.308594 2573.429688 3120 2610.398438 3114.390625 2643.75 C 3113.550781 2648.769531 3106.160156 2673.441406 3109.390625 2674.488281 C 3117.460938 2677.089844 3128.988281 2646.289062 3133.460938 2635.46875 C 3142.210938 2614.28125 3155.550781 2594.871094 3164.730469 2573.980469 C 3168.128906 2566.238281 3171.398438 2559.261719 3173.238281 2551.058594 C 3173.730469 2548.871094 3174.820312 2543.039062 3174.179688 2542.46875 "/>
<path fill-rule="evenodd" fill="rgb(97.068787%, 82.8125%, 62.109375%)" fill-opacity="1" d="M 3111.058594 2746.320312 C 3110.871094 2745.941406 3106.570312 2748.828125 3106.570312 2748.828125 C 3084.179688 2761.328125 3057.378906 2780.121094 3043.199219 2798.699219 C 3041.070312 2801.488281 3028.699219 2814.929688 3030.238281 2815.828125 C 3034.058594 2818.089844 3050.839844 2801.53125 3056.980469 2795.75 C 3068.988281 2784.449219 3083.089844 2774.589844 3095.25 2763.488281 C 3099.761719 2759.371094 3103.949219 2755.679688 3107.699219 2751.160156 C 3108.699219 2749.949219 3111.238281 2746.710938 3111.058594 2746.320312 "/>
<path fill-rule="evenodd" fill="rgb(100%, 46.604919%, 0%)" fill-opacity="1" d="M 3323.511719 2555.761719 C 3325.691406 2555.738281 3320.628906 2559.988281 3319.378906 2561.820312 C 3298.730469 2592.070312 3265.039062 2623.28125 3230.179688 2637.210938 C 3224.929688 2639.308594 3218.011719 2643.519531 3212.660156 2643.199219 C 3208.78125 2642.96875 3204.878906 2645.890625 3201.371094 2645.679688 C 3201.039062 2645.660156 3198.660156 2646.371094 3198.589844 2646 C 3198.328125 2644.621094 3202.539062 2641.480469 3203.308594 2640.949219 C 3213.96875 2633.671875 3225.601562 2628.230469 3236.058594 2621.089844 C 3256.550781 2607.109375 3271.871094 2587.359375 3291.890625 2573.03125 C 3299.308594 2567.71875 3305.941406 2562.730469 3314.359375 2558.859375 C 3316.621094 2557.820312 3323.660156 2555.851562 3323.511719 2555.761719 "/>
</svg>
