<?xml version="1.0" encoding="UTF-8"?>
<svg xmlns="http://www.w3.org/2000/svg" xmlns:xlink="http://www.w3.org/1999/xlink" width="1800" height="1800" viewBox="0 0 1800 1800">
<rect x="-180" y="-180" width="2160" height="2160" fill="rgb(100%, 100%, 100%)" fill-opacity="1"/>
<rect x="-180" y="-180" width="2160" height="2160" fill="rgb(100%, 100%, 100%)" fill-opacity="1"/>
<path fill-rule="evenodd" fill="rgb(87.109375%, 91.796875%, 88.671875%)" fill-opacity="1" d="M 1073.460938 488.878906 C 1071.789062 489.351562 1069.421875 489.730469 1068.210938 489.738281 C 1066.691406 489.75 1065.539062 490.21875 1064.511719 491.25 C 1062.328125 493.429688 1060.730469 493.851562 1054.050781 493.980469 C 1046.738281 494.121094 1045.320312 494.609375 1044.160156 497.371094 L 1043.269531 499.5 L 1038.859375 499.53125 C 1032.550781 499.570312 1029.199219 500.339844 1027.941406 502.039062 C 1025.519531 505.320312 1025.050781 505.601562 1021.988281 505.601562 C 1017.78125 505.601562 1015.941406 506.449219 1014.929688 508.871094 C 1014.101562 510.859375 1013.898438 510.960938 1009.929688 511.378906 C 1004.839844 511.929688 1003.871094 512.421875 1003.359375 514.710938 C 1003.019531 516.261719 1002.511719 516.640625 999.742188 517.449219 C 997.703125 518.039062 995.53125 519.289062 993.839844 520.828125 C 992.226562 522.308594 990.558594 523.28125 989.640625 523.289062 C 987.523438 523.300781 986.78125 523.898438 985.722656 526.429688 C 985.085938 527.949219 984.289062 528.75 983.109375 529.050781 C 980.804688 529.621094 980.03125 530.371094 979.578125 532.429688 C 979.285156 533.769531 978.746094 534.269531 977.253906 534.589844 C 974.410156 535.199219 972.25 536.441406 969.855469 538.839844 C 968.6875 540 967.238281 540.960938 966.628906 540.960938 C 964.878906 540.960938 962.945312 542.640625 962.53125 544.519531 C 962.273438 545.691406 961.484375 546.558594 960.058594 547.25 C 958.738281 547.871094 957.5625 549.089844 956.882812 550.539062 C 956.203125 551.988281 955.3125 552.921875 954.496094 553.03125 C 952.371094 553.339844 951.210938 555.199219 950.507812 559.449219 C 949.894531 563.140625 949.707031 563.480469 948.101562 563.839844 C 946.207031 564.25 944.527344 566.179688 944.527344 567.941406 C 944.527344 568.558594 943.578125 569.601562 942.378906 570.308594 C 941.195312 571.011719 939.917969 572.160156 939.539062 572.859375 C 939.160156 573.570312 938.6875 578.671875 938.480469 584.21875 L 938.109375 594.300781 L 936.023438 596.589844 C 934.085938 598.710938 933.699219 598.871094 930.546875 598.859375 C 927.945312 598.839844 927.402344 598.691406 928.21875 598.210938 C 930.410156 596.941406 931.234375 594.011719 931.757812 585.609375 L 932.265625 577.410156 L 934.671875 575.191406 L 937.074219 572.960938 L 937.527344 562.628906 C 937.957031 552.789062 937.691406 544.75 936.859375 542.578125 C 936.648438 542.03125 935.441406 541.308594 934.175781 540.960938 C 932.269531 540.449219 931.808594 540.011719 931.488281 538.398438 C 931.140625 536.671875 927.074219 529.980469 926.371094 529.980469 C 925.894531 529.980469 926.945312 540.511719 927.554688 541.839844 C 927.871094 542.539062 929.96875 544.070312 932.214844 545.25 C 936.003906 547.230469 936.308594 547.539062 936.484375 549.601562 C 936.585938 550.820312 935.941406 554.660156 935.054688 558.121094 C 933.285156 565.050781 932.988281 566.269531 931.21875 573.878906 C 930.554688 576.730469 929.289062 581.808594 928.402344 585.160156 C 927.519531 588.511719 926.640625 592.351562 926.449219 593.691406 C 926.257812 595.03125 925.859375 596.589844 925.558594 597.160156 C 925.261719 597.71875 925.019531 598.96875 925.019531 599.929688 C 925.019531 600.890625 924.757812 601.941406 924.433594 602.261719 C 924.113281 602.578125 924.046875 603.148438 924.28125 603.519531 C 924.746094 604.230469 937.367188 603.800781 938.125 603.039062 C 938.347656 602.820312 938.609375 601.589844 938.714844 600.300781 C 939.261719 593.441406 939.882812 589.230469 940.589844 587.589844 C 941.027344 586.589844 941.523438 584.808594 941.691406 583.628906 C 942.976562 574.75 944.625 571.800781 955.269531 559.351562 C 962.300781 551.121094 976.332031 537.679688 981.457031 534.25 C 982.210938 533.75 985.082031 531.691406 987.835938 529.679688 C 995.308594 524.230469 996.992188 523.078125 1000 521.371094 C 1006.539062 517.679688 1007.660156 517.03125 1008.261719 516.53125 C 1009.511719 515.53125 1021.859375 509.410156 1026.601562 507.449219 C 1033.628906 504.558594 1035.539062 503.730469 1036.71875 503.109375 C 1037.308594 502.808594 1038.300781 502.558594 1038.929688 502.558594 C 1039.570312 502.558594 1040.429688 502.140625 1040.851562 501.640625 C 1041.269531 501.140625 1042.210938 500.71875 1042.949219 500.71875 C 1043.691406 500.71875 1044.488281 500.53125 1044.71875 500.300781 C 1044.960938 500.070312 1045.640625 499.808594 1046.238281 499.710938 C 1047.230469 499.558594 1050.671875 498.660156 1056.691406 496.96875 C 1057.871094 496.640625 1059.808594 496.160156 1061.011719 495.910156 C 1062.210938 495.648438 1063.519531 495.238281 1063.910156 495 C 1065.269531 494.160156 1089.640625 490.371094 1093.691406 490.359375 C 1095.101562 490.359375 1096.421875 490.089844 1096.628906 489.761719 C 1097.039062 489.078125 1133.578125 489.28125 1138.691406 489.988281 C 1140.371094 490.21875 1145.859375 490.960938 1150.878906 491.628906 C 1163.078125 493.269531 1161.46875 492.941406 1177.859375 497.03125 C 1180.871094 497.78125 1184.730469 498.71875 1189.589844 499.910156 C 1191.769531 500.429688 1193.96875 501.210938 1194.46875 501.621094 C 1194.96875 502.039062 1197.25 503.390625 1199.519531 504.621094 C 1201.789062 505.859375 1204.671875 507.449219 1205.921875 508.160156 C 1207.171875 508.878906 1209.558594 510.140625 1211.230469 510.960938 C 1212.910156 511.78125 1215.429688 513.238281 1216.828125 514.210938 C 1218.230469 515.179688 1219.671875 515.960938 1220.03125 515.960938 C 1220.390625 515.960938 1220.679688 516.238281 1220.679688 516.570312 C 1220.679688 516.910156 1220.988281 517.179688 1221.371094 517.179688 C 1221.75 517.179688 1223.789062 518.421875 1225.898438 519.929688 C 1228.011719 521.441406 1229.980469 522.671875 1230.28125 522.671875 C 1230.570312 522.671875 1231.351562 523.148438 1232 523.738281 C 1232.648438 524.320312 1234.75 525.871094 1236.660156 527.179688 C 1238.578125 528.480469 1240.640625 530 1241.230469 530.550781 C 1241.839844 531.089844 1243.289062 532.210938 1244.460938 533.019531 C 1255.671875 540.761719 1277.359375 563.480469 1286.660156 577.230469 C 1287.570312 578.570312 1289.5 581.320312 1290.949219 583.328125 C 1292.398438 585.339844 1294.261719 588.21875 1295.089844 589.730469 C 1295.910156 591.238281 1296.738281 592.609375 1296.929688 592.78125 C 1297.128906 592.941406 1297.460938 593.488281 1297.679688 594 C 1297.898438 594.5 1298.75 596.011719 1299.570312 597.351562 C 1300.390625 598.691406 1301.820312 601.300781 1302.738281 603.140625 C 1303.660156 604.980469 1305.011719 607.449219 1305.738281 608.621094 C 1306.46875 609.800781 1307.089844 611.03125 1307.121094 611.371094 C 1307.171875 612.058594 1311.929688 624.21875 1312.789062 625.839844 C 1313.089844 626.421875 1313.351562 627.320312 1313.351562 627.828125 C 1313.351562 628.339844 1313.609375 629.238281 1313.921875 629.820312 C 1314.808594 631.441406 1316.769531 637.710938 1317.878906 642.460938 C 1318.429688 644.808594 1319.128906 647.691406 1319.429688 648.859375 C 1320.628906 653.46875 1320.679688 654.988281 1319.660156 655.378906 C 1319.109375 655.589844 1318.109375 655.410156 1317.421875 654.980469 C 1316.210938 654.21875 1314.558594 653.628906 1310.449219 652.46875 C 1309.359375 652.160156 1307.441406 651.609375 1306.179688 651.25 C 1304.929688 650.890625 1302.800781 650.371094 1301.460938 650.089844 C 1300.121094 649.808594 1297.378906 649.121094 1295.359375 648.570312 C 1291.828125 647.601562 1288.5 646.808594 1285.308594 646.191406 C 1283.898438 645.921875 1281.441406 645.539062 1271.128906 644 C 1269.039062 643.679688 1265.738281 643.28125 1263.808594 643.101562 C 1261.871094 642.929688 1259.679688 642.660156 1258.929688 642.5 C 1258.179688 642.339844 1254.269531 642.050781 1250.25 641.839844 C 1246.230469 641.628906 1240.738281 641.261719 1238.058594 641 C 1233.191406 640.539062 1218.011719 640.699219 1216.570312 641.230469 C 1216.160156 641.378906 1212.589844 641.660156 1208.648438 641.839844 C 1198.890625 642.308594 1194.800781 642.640625 1186.238281 643.671875 C 1174.511719 645.089844 1174.039062 645.148438 1161.25 646.871094 C 1159.230469 647.140625 1157.179688 647.628906 1156.679688 647.941406 C 1156.171875 648.269531 1154.25 648.71875 1152.410156 648.960938 C 1141.171875 650.410156 1138.070312 650.890625 1128.941406 652.578125 C 1127.261719 652.890625 1124.519531 653.308594 1122.839844 653.519531 C 1121.160156 653.730469 1119.421875 654.191406 1118.96875 654.550781 C 1118.179688 655.191406 1116.300781 655.53125 1106.988281 656.78125 C 1104.640625 657.101562 1100.941406 657.671875 1098.761719 658.050781 C 1092.460938 659.140625 1087.808594 659.828125 1083.179688 660.351562 C 1080.820312 660.621094 1078.539062 661.039062 1078.128906 661.300781 C 1075.570312 662.878906 1030.019531 664.210938 1024.488281 662.871094 C 1023.039062 662.519531 1020.019531 662.078125 1017.789062 661.890625 C 1015.550781 661.710938 1013.460938 661.308594 1013.140625 661 C 1012.820312 660.691406 1011.46875 660.441406 1010.140625 660.441406 C 1008.800781 660.441406 1006.871094 660.191406 1005.839844 659.878906 C 1004.808594 659.570312 1001.359375 658.738281 998.171875 658.03125 C 989.136719 656.011719 987.007812 655.441406 985.371094 654.609375 C 984.535156 654.191406 982.203125 653.25 980.191406 652.539062 C 976.328125 651.160156 964.316406 645.328125 963.179688 644.28125 C 962.8125 643.941406 961.691406 643.140625 960.691406 642.5 C 957.855469 640.679688 948.671875 632.648438 946.824219 630.371094 C 945.90625 629.230469 943.710938 626.648438 941.945312 624.621094 C 940.179688 622.589844 937.636719 619.109375 936.296875 616.871094 C 932.429688 610.441406 931.578125 609.558594 930.050781 610.371094 C 929.339844 610.75 927.246094 611.070312 925.398438 611.070312 C 923.554688 611.070312 921.902344 611.289062 921.734375 611.570312 C 921.21875 612.390625 920.222656 618.570312 919.839844 623.261719 C 919.453125 628.03125 918.261719 636.261719 917.867188 636.898438 C 917.65625 637.238281 917.296875 639.449219 917.066406 641.820312 C 916.40625 648.589844 914.636719 661.148438 914.011719 663.488281 C 913.699219 664.671875 913.441406 666.890625 913.441406 668.429688 C 913.4375 669.96875 913.195312 672.03125 912.902344 673 C 911.628906 677.210938 910.199219 686.710938 910.757812 687.269531 C 911.078125 687.589844 914.761719 688.011719 918.941406 688.199219 C 923.121094 688.390625 927.777344 688.679688 929.285156 688.851562 C 942.765625 690.300781 949.878906 691.25 954.585938 692.210938 C 956.261719 692.550781 959.003906 693.101562 960.683594 693.429688 C 962.359375 693.761719 964.691406 694.28125 965.863281 694.589844 C 967.039062 694.890625 969.917969 695.589844 972.265625 696.121094 C 976.691406 697.128906 982.214844 698.679688 989.027344 700.828125 C 1002.148438 704.96875 1007.851562 706.980469 1013.511719 709.460938 C 1014.730469 709.988281 1015.941406 710.429688 1016.191406 710.429688 C 1016.441406 710.429688 1018.050781 711.089844 1019.761719 711.890625 C 1021.46875 712.679688 1024.921875 714.21875 1027.429688 715.308594 C 1031.511719 717.070312 1039.679688 720.988281 1042.980469 722.78125 C 1043.648438 723.140625 1045.839844 724.320312 1047.859375 725.390625 C 1049.871094 726.460938 1052.539062 727.929688 1053.800781 728.640625 C 1055.058594 729.359375 1057.011719 730.460938 1058.140625 731.109375 C 1062.238281 733.429688 1084.550781 748.121094 1087.191406 750.230469 C 1087.699219 750.640625 1089.429688 751.929688 1091.03125 753.109375 C 1105.429688 763.640625 1123.191406 779.730469 1134.808594 792.769531 C 1143.558594 802.574219 1146.480469 805.96875 1148.929688 809.191406 C 1150.339844 811.035156 1153.171875 814.601562 1155.210938 817.117188 C 1158.558594 821.210938 1170.089844 837.550781 1170.089844 838.183594 C 1170.089844 838.324219 1171.871094 841.167969 1174.050781 844.503906 C 1176.230469 847.839844 1178.011719 850.703125 1178.011719 850.863281 C 1178.011719 851.023438 1179.191406 853.164062 1180.628906 855.625 C 1183.078125 859.832031 1191.429688 876.445312 1193.429688 881.125 C 1194.949219 884.675781 1196.988281 889.21875 1198.199219 891.757812 C 1198.828125 893.078125 1199.351562 894.519531 1199.351562 894.964844 C 1199.351562 895.410156 1199.589844 896.25 1199.890625 896.832031 C 1201.578125 900.167969 1206.050781 912.882812 1207.960938 919.835938 C 1208.328125 921.179688 1208.839844 922.960938 1209.101562 923.800781 C 1209.359375 924.636719 1209.859375 926.421875 1210.230469 927.761719 C 1210.589844 929.105469 1211.21875 931.296875 1211.640625 932.640625 C 1212.058594 933.980469 1212.351562 935.273438 1212.28125 935.515625 C 1212.21875 935.753906 1212.460938 936.714844 1212.820312 937.648438 C 1213.480469 939.367188 1214.339844 943.550781 1215.179688 949.097656 C 1215.429688 950.777344 1216.070312 954.339844 1216.589844 957.023438 C 1217.421875 961.246094 1218 965.488281 1219.160156 975.789062 C 1220.941406 991.707031 1220.941406 1010.65625 1219.148438 1029.382812 C 1217.679688 1044.777344 1217.140625 1049.640625 1216.839844 1050.601562 C 1216.679688 1051.105469 1216.210938 1053.574219 1215.808594 1056.085938 C 1214.75 1062.578125 1213.371094 1069.617188 1213.03125 1070.160156 C 1212.878906 1070.414062 1212.640625 1071.398438 1212.519531 1072.347656 C 1212.238281 1074.445312 1210.941406 1079.714844 1210.300781 1081.386719 C 1210.039062 1082.058594 1209.488281 1083.976562 1209.089844 1085.652344 C 1207.449219 1092.4375 1200.671875 1112.882812 1199.75 1113.800781 C 1199.53125 1114.023438 1199.351562 1114.789062 1199.351562 1115.503906 C 1199.351562 1116.21875 1199.121094 1117.066406 1198.839844 1117.382812 C 1198.558594 1117.703125 1197.960938 1118.921875 1197.519531 1120.097656 C 1196.160156 1123.660156 1186.429688 1143.117188 1182.269531 1150.578125 C 1178.140625 1157.980469 1165.980469 1176.476562 1160.210938 1184.132812 C 1156.460938 1189.113281 1142.269531 1205.796875 1137.460938 1210.890625 C 1116.308594 1233.261719 1098.550781 1248.5625 1076.511719 1263.402344 C 1071.820312 1266.5625 1067.429688 1269.476562 1066.75 1269.878906 C 1066.089844 1270.28125 1063.941406 1271.582031 1061.988281 1272.773438 C 1060.039062 1273.964844 1058.179688 1274.941406 1057.871094 1274.941406 C 1057.558594 1274.941406 1057.308594 1275.183594 1057.308594 1275.480469 C 1057.308594 1275.773438 1056.828125 1276.183594 1056.238281 1276.386719 C 1055.648438 1276.589844 1053.660156 1277.601562 1051.820312 1278.628906 C 1041.640625 1284.308594 1025.019531 1292.253906 1014.679688 1296.378906 C 1010.46875 1298.058594 1006.75 1299.605469 1006.410156 1299.820312 C 1006.070312 1300.03125 1005.519531 1300.25 1005.179688 1300.308594 C 1004.851562 1300.367188 1002.109375 1301.257812 999.085938 1302.289062 C 986.144531 1306.710938 973.417969 1310.363281 964.949219 1312.078125 C 963.609375 1312.351562 962.085938 1312.753906 961.5625 1312.980469 C 959.042969 1314.058594 942.960938 1316.597656 933.859375 1317.355469 C 930.609375 1317.625 927.269531 1318.023438 923.496094 1318.59375 C 922.824219 1318.695312 915.828125 1318.890625 907.949219 1319.027344 C 895.042969 1319.253906 887.488281 1318.988281 877.46875 1317.949219 C 866.1875 1316.78125 858.472656 1315.894531 856.132812 1315.496094 C 854.957031 1315.296875 852.351562 1314.851562 850.339844 1314.511719 C 848.328125 1314.167969 845.039062 1313.46875 843.027344 1312.957031 C 836.058594 1311.191406 835.085938 1310.957031 832.050781 1310.3125 C 829.5625 1309.785156 821.925781 1307.988281 817.726562 1306.941406 C 817.222656 1306.816406 815.988281 1306.441406 814.984375 1306.113281 C 812.757812 1305.386719 806.226562 1303.441406 802.484375 1302.386719 C 800.003906 1301.691406 789.96875 1298.148438 786.941406 1296.902344 C 786.269531 1296.625 784.761719 1296.070312 783.585938 1295.667969 C 782.414062 1295.265625 780.90625 1294.703125 780.234375 1294.421875 C 779.5625 1294.140625 775.585938 1292.488281 771.394531 1290.753906 C 767.203125 1289.015625 763.089844 1287.234375 762.25 1286.792969 C 761.414062 1286.351562 757.160156 1284.238281 752.800781 1282.09375 C 748.441406 1279.953125 743.230469 1277.292969 741.21875 1276.1875 C 735.804688 1273.203125 723.570312 1265.582031 723.335938 1265.042969 C 723.226562 1264.789062 722.867188 1264.578125 722.542969 1264.578125 C 721.972656 1264.578125 703.070312 1251.738281 701.898438 1250.550781 C 701.730469 1250.382812 700.589844 1249.496094 699.359375 1248.578125 C 698.132812 1247.664062 696.753906 1246.570312 696.296875 1246.144531 C 695.839844 1245.722656 693.964844 1244.148438 692.128906 1242.652344 C 685.316406 1237.101562 670.445312 1222.632812 661.710938 1213.0625 C 653.648438 1204.230469 640.382812 1187.148438 633.304688 1176.488281 C 631.96875 1174.476562 630.742188 1172.691406 630.574219 1172.523438 C 630.40625 1172.355469 629.871094 1171.535156 629.386719 1170.695312 C 628.902344 1169.855469 627.007812 1166.703125 625.175781 1163.683594 C 619.085938 1153.65625 608.605469 1132.949219 607.121094 1128.023438 C 606.867188 1127.183594 606.28125 1125.605469 605.816406 1124.515625 C 604.277344 1120.914062 603.332031 1118.597656 602.523438 1116.441406 C 602.085938 1115.265625 601.496094 1114.042969 601.214844 1113.726562 C 600.933594 1113.40625 600.703125 1112.433594 600.703125 1111.5625 C 600.703125 1110.691406 600.472656 1109.71875 600.191406 1109.398438 C 599.910156 1109.082031 598.792969 1105.9375 597.710938 1102.417969 C 596.628906 1098.898438 595.347656 1094.910156 594.867188 1093.558594 C 594.386719 1092.207031 593.996094 1090.625 593.996094 1090.042969 C 593.996094 1089.464844 593.75 1088.511719 593.453125 1087.929688 C 592.941406 1086.9375 591.042969 1079.101562 589.644531 1072.242188 C 589.304688 1070.566406 588.792969 1068.371094 588.511719 1067.363281 C 586.839844 1061.421875 585.023438 1048.246094 583.019531 1027.5625 C 582.125 1018.324219 582.296875 996.089844 583.339844 986.589844 C 585.601562 965.898438 586.410156 959.488281 586.847656 958.746094 C 587.011719 958.46875 587.324219 956.765625 587.535156 954.964844 C 587.75 953.160156 588.082031 951.429688 588.273438 951.117188 C 588.46875 950.808594 588.859375 949.128906 589.152344 947.386719 C 589.441406 945.648438 589.964844 942.917969 590.3125 941.328125 C 590.664062 939.734375 591.199219 937.265625 591.503906 935.839844 C 593.667969 925.796875 601.816406 899.582031 604.308594 894.652344 C 604.804688 893.664062 605.578125 891.828125 606.726562 888.898438 C 608.003906 885.640625 614.824219 870.304688 615.878906 868.324219 C 616.144531 867.820312 618.230469 863.84375 620.515625 859.484375 C 622.796875 855.125 625.585938 850.113281 626.707031 848.347656 C 627.828125 846.582031 628.746094 844.867188 628.746094 844.539062 C 628.746094 844.207031 629.019531 843.941406 629.355469 843.941406 C 629.6875 843.941406 629.964844 843.617188 629.964844 843.226562 C 629.964844 842.652344 635.648438 833.9375 642.765625 823.601562 C 644.589844 820.953125 648.757812 815.5 652.15625 811.324219 C 654.0625 808.976562 656.066406 806.507812 656.605469 805.839844 C 657.140625 805.167969 658.707031 803.359375 660.082031 801.820312 C 661.453125 800.28125 664.363281 797 666.539062 794.519531 C 673.238281 786.910156 688.84375 771.640625 695.578125 766.109375 C 696.875 765.039062 698.808594 763.390625 699.871094 762.441406 C 703.808594 758.949219 716.261719 749.351562 718.222656 748.300781 C 718.914062 747.929688 719.847656 747.269531 720.292969 746.839844 C 721.605469 745.558594 740.289062 733.351562 744.265625 731.171875 C 746.277344 730.070312 749.707031 728.109375 751.886719 726.828125 C 758.453125 722.96875 767.742188 718.160156 774.75 715.011719 C 776.425781 714.261719 779.050781 713.058594 780.578125 712.339844 C 782.109375 711.621094 783.542969 711.039062 783.765625 711.039062 C 783.984375 711.039062 785.964844 710.21875 788.160156 709.210938 C 790.355469 708.210938 792.542969 707.390625 793.015625 707.390625 C 793.492188 707.390625 794.046875 707.109375 794.257812 706.78125 C 794.464844 706.441406 795.246094 706.160156 796 706.160156 C 796.75 706.160156 797.644531 705.890625 797.988281 705.539062 C 798.332031 705.199219 799.140625 704.800781 799.785156 704.660156 C 800.433594 704.519531 802.46875 703.871094 804.316406 703.230469 C 811.398438 700.761719 822.601562 697.550781 822.601562 697.988281 C 822.601562 698.148438 823.144531 697.988281 823.804688 697.640625 C 824.46875 697.28125 826.320312 696.730469 827.921875 696.410156 C 829.523438 696.089844 833.4375 695.238281 836.625 694.519531 C 839.808594 693.800781 843.789062 693 845.464844 692.738281 C 847.140625 692.480469 851.117188 691.859375 854.304688 691.339844 C 857.488281 690.828125 863.332031 690.058594 867.285156 689.628906 L 874.480469 688.851562 L 875.425781 686.691406 C 875.949219 685.5 876.609375 683.980469 876.898438 683.308594 C 878.207031 680.269531 881.242188 671.011719 881.226562 670.089844 C 881.214844 669.53125 881.601562 668.929688 882.082031 668.738281 C 882.5625 668.558594 882.957031 667.710938 882.957031 666.859375 C 882.957031 666 883.21875 664.828125 883.542969 664.25 C 883.867188 663.660156 885.121094 660.171875 886.332031 656.480469 C 887.542969 652.789062 888.789062 649.300781 889.097656 648.71875 C 889.40625 648.140625 889.660156 647.121094 889.660156 646.46875 C 889.660156 645.808594 889.90625 645.121094 890.203125 644.941406 C 890.5 644.761719 890.886719 643.710938 891.0625 642.621094 C 891.429688 640.289062 892.007812 638.21875 894.242188 631.179688 C 895.148438 628.328125 896.015625 625.320312 896.171875 624.480469 C 896.332031 623.640625 896.695312 622.398438 896.984375 621.730469 C 897.273438 621.058594 897.640625 619.558594 897.796875 618.378906 C 897.953125 617.210938 898.402344 615.148438 898.796875 613.808594 C 900.324219 608.589844 902.5 599.058594 902.722656 596.621094 C 902.851562 595.21875 903.183594 593.710938 903.457031 593.269531 C 903.734375 592.828125 904.171875 590.890625 904.429688 588.960938 C 904.691406 587.039062 905.171875 583.75 905.503906 581.648438 C 907.296875 570.28125 907.640625 565.199219 907.609375 550.710938 C 907.59375 542.160156 907.347656 532.921875 907.066406 530.160156 L 906.558594 525.160156 L 908.320312 524.449219 C 909.289062 524.058594 910.632812 523.53125 911.304688 523.28125 C 911.972656 523.019531 913.621094 522.390625 914.960938 521.871094 C 916.300781 521.359375 919.109375 520.300781 921.203125 519.519531 C 925.648438 517.871094 925.0625 517.28125 918.921875 517.238281 C 912.6875 517.191406 910.949219 517.839844 907.121094 521.640625 L 903.683594 525.058594 L 903.679688 554.800781 C 903.671875 589.019531 903.476562 592.648438 901.609375 593.371094 C 898.53125 594.539062 898.078125 595.871094 897.578125 605.089844 L 897.109375 613.789062 L 894.789062 615.800781 C 892.664062 617.628906 892.425781 618.160156 892.007812 621.910156 C 891.757812 624.160156 891.539062 628.089844 891.519531 630.648438 C 891.496094 634.230469 891.253906 635.488281 890.472656 636.140625 C 889.910156 636.601562 888.675781 638.191406 887.726562 639.679688 C 886.308594 641.921875 886.003906 643.070312 886.003906 646.210938 C 886.003906 650.53125 885.167969 652.890625 883.484375 653.328125 C 881.671875 653.800781 880.378906 657.789062 880.046875 663.941406 C 879.75 669.398438 879.683594 669.609375 877.804688 671.050781 C 875.832031 672.550781 874.421875 675.871094 874.421875 678.988281 C 874.421875 681.921875 873.105469 686 872.066406 686.289062 C 871.519531 686.441406 865.445312 686.738281 858.570312 686.941406 C 843.480469 687.398438 842.429688 687.558594 840.886719 689.621094 C 840.226562 690.511719 839.398438 691.570312 839.046875 691.988281 C 838.601562 692.519531 836.214844 692.761719 831.265625 692.769531 C 823.59375 692.78125 820.445312 693.640625 817.875 696.390625 C 816.230469 698.160156 813.132812 698.820312 806.414062 698.839844 C 800.300781 698.851562 799.074219 699.359375 798.316406 702.199219 L 797.828125 704.03125 L 791.808594 704.460938 C 784.738281 704.96875 783.101562 705.558594 781.445312 708.179688 C 780.292969 710 779.9375 710.148438 775.855469 710.46875 C 771.035156 710.839844 769.828125 711.511719 769.261719 714.089844 C 768.894531 715.761719 768.707031 715.839844 764.265625 716.25 C 759.367188 716.710938 757.375 717.851562 757.375 720.179688 C 757.375 721.429688 756.855469 721.640625 751.964844 722.300781 C 748.3125 722.800781 747.054688 723.589844 746.035156 726.03125 C 745.308594 727.769531 744.851562 728.109375 743.265625 728.109375 C 741.136719 728.109375 738.195312 729.71875 736.265625 731.941406 C 735.5 732.820312 734.007812 733.570312 732.566406 733.808594 C 730.03125 734.210938 728.386719 735.550781 728.023438 737.5 C 727.773438 738.839844 726.964844 739.320312 723.285156 740.308594 C 721.585938 740.761719 719.71875 741.910156 718.230469 743.410156 C 716.917969 744.730469 715.273438 745.800781 714.523438 745.800781 C 712.550781 745.808594 711.457031 746.699219 710.71875 748.890625 C 710.25 750.289062 709.496094 751.019531 708.023438 751.511719 C 705.910156 752.210938 705.367188 752.839844 704.351562 755.699219 C 703.941406 756.859375 703.328125 757.371094 702.371094 757.378906 C 700.460938 757.390625 699.601562 758.050781 698.304688 760.460938 C 697.5625 761.851562 696.609375 762.648438 695.429688 762.890625 C 692.292969 763.539062 689.113281 765.398438 688.328125 767.039062 C 687.902344 767.929688 686.503906 769.140625 685.210938 769.75 C 683.742188 770.441406 682.621094 771.511719 682.207031 772.601562 C 681.765625 773.769531 680.78125 774.648438 679.214844 775.269531 C 677.574219 775.910156 676.632812 776.78125 676.035156 778.210938 C 675.507812 779.46875 674.3125 780.691406 672.867188 781.449219 C 671.277344 782.289062 670.375 783.269531 670.003906 784.570312 C 669.640625 785.839844 668.824219 786.75 667.542969 787.320312 C 666.429688 787.808594 665.113281 789.128906 664.40625 790.460938 C 663.738281 791.730469 662.308594 793.300781 661.238281 793.941406 C 659.6875 794.871094 659.046875 795.910156 658.121094 798.949219 C 657.109375 802.277344 656.660156 802.933594 654.753906 803.855469 C 653.179688 804.613281 652.414062 805.472656 652.046875 806.878906 C 651.683594 808.28125 650.871094 809.191406 649.179688 810.082031 C 647.550781 810.941406 646.605469 811.964844 646.132812 813.390625 C 645.617188 814.9375 644.925781 815.621094 643.359375 816.132812 C 641.957031 816.585938 641.125 817.3125 640.839844 818.335938 C 639.144531 824.386719 638.78125 825.144531 636.957031 826.539062 C 635.601562 827.570312 634.785156 828.886719 634.300781 830.804688 C 633.722656 833.101562 633.359375 833.578125 632.183594 833.578125 C 630.210938 833.578125 628.949219 835.226562 628.460938 838.453125 C 627.808594 842.757812 627.589844 843.1875 625.378906 844.554688 C 623.875 845.484375 623.1875 846.433594 622.898438 847.980469 C 622.597656 849.578125 621.90625 850.488281 620.144531 851.601562 C 617.691406 853.152344 617.445312 853.691406 616.691406 859.179688 C 616.304688 862.007812 616.023438 862.5625 614.882812 862.726562 C 612.417969 863.078125 611.066406 865.625 611.066406 869.914062 C 611.066406 873.523438 610.945312 873.863281 609.175781 875.164062 C 606.648438 877.027344 605.738281 878.953125 604.929688 884.167969 C 604.339844 887.964844 603.960938 888.820312 602.097656 890.578125 C 599.773438 892.773438 598.949219 895.453125 598.898438 900.976562 C 598.875 903.695312 598.652344 904.226562 597.011719 905.4375 C 594.519531 907.28125 593.898438 909.058594 593.414062 915.730469 C 593.035156 920.964844 592.867188 921.515625 591.097656 923.347656 C 588.085938 926.472656 587.722656 928.089844 587.429688 939.78125 L 587.15625 950.582031 L 585.179688 952.089844 C 583.84375 953.109375 582.988281 954.445312 582.539062 956.226562 C 581.9375 958.597656 580.871094 994.78125 580.949219 1010.0625 C 581.046875 1028.28125 582 1060.363281 582.507812 1062.382812 C 582.96875 1064.214844 583.542969 1064.902344 585.191406 1065.589844 L 587.289062 1066.46875 L 587.328125 1074.230469 C 587.375 1084.921875 587.894531 1087.660156 590.226562 1089.609375 C 592.382812 1091.410156 593.34375 1094.664062 593.378906 1100.285156 C 593.40625 1104.429688 594.316406 1106.71875 596.277344 1107.585938 C 598.128906 1108.40625 598.734375 1110.332031 599.210938 1116.96875 C 599.648438 1123.039062 600.597656 1124.972656 603.140625 1124.972656 C 603.8125 1124.972656 604.371094 1125.179688 604.386719 1125.429688 C 604.824219 1132.929688 606.257812 1137.167969 608.359375 1137.167969 C 609.261719 1137.167969 611.066406 1142.128906 611.066406 1144.613281 C 611.066406 1146.949219 613.160156 1150.933594 615.035156 1152.164062 C 615.929688 1152.75 616.550781 1153.738281 616.550781 1154.570312 C 616.550781 1157.042969 617.695312 1159.113281 619.425781 1159.769531 C 621.609375 1160.601562 621.867188 1161.089844 622.363281 1165.390625 C 622.8125 1169.242188 624.175781 1171.304688 626.285156 1171.304688 C 627.667969 1171.304688 628.417969 1172.519531 628.992188 1175.699219 C 629.25 1177.136719 630.277344 1178.871094 631.816406 1180.472656 C 633.144531 1181.855469 634.230469 1183.5 634.230469 1184.128906 C 634.230469 1186.339844 635.636719 1188.386719 637.484375 1188.867188 C 638.488281 1189.128906 639.496094 1189.738281 639.722656 1190.230469 C 641.546875 1194.195312 642.019531 1194.777344 643.84375 1195.300781 C 645.359375 1195.734375 645.8125 1196.203125 645.8125 1197.328125 C 645.8125 1199.398438 648 1203.421875 649.753906 1204.570312 C 650.570312 1205.105469 651.699219 1206.75 652.261719 1208.226562 C 653.054688 1210.300781 653.746094 1211.074219 655.320312 1211.644531 C 656.914062 1212.21875 657.523438 1212.914062 658.136719 1214.855469 C 658.769531 1216.855469 659.324219 1217.460938 661.023438 1218.011719 C 662.53125 1218.5 663.308594 1219.21875 663.765625 1220.558594 C 664.566406 1222.886719 664.949219 1223.269531 667.277344 1224.066406 C 668.617188 1224.527344 669.335938 1225.300781 669.824219 1226.8125 C 670.34375 1228.425781 671 1229.074219 672.636719 1229.597656 C 674.261719 1230.113281 674.929688 1230.769531 675.441406 1232.339844 C 675.941406 1233.871094 676.765625 1234.703125 678.65625 1235.578125 C 680.542969 1236.453125 681.316406 1237.230469 681.671875 1238.625 C 682.050781 1240.089844 682.6875 1240.683594 684.613281 1241.359375 C 686.496094 1242.019531 687.203125 1242.65625 687.625 1244.089844 C 688.191406 1245.996094 689.886719 1247.179688 692.941406 1247.808594 C 693.882812 1248 695.808594 1249.222656 697.21875 1250.523438 C 698.628906 1251.820312 700.71875 1253.128906 701.863281 1253.425781 C 703.488281 1253.84375 704.09375 1254.421875 704.644531 1256.070312 C 705.210938 1257.773438 705.832031 1258.332031 707.890625 1258.996094 C 709.6875 1259.574219 710.542969 1260.238281 710.796875 1261.238281 C 711.371094 1263.523438 713.105469 1264.617188 717.054688 1265.175781 C 721.371094 1265.785156 722.015625 1266.09375 722.015625 1267.566406 C 722.015625 1269.046875 723.714844 1270.457031 726.285156 1271.113281 C 727.753906 1271.492188 728.476562 1272.054688 728.605469 1272.933594 C 728.917969 1275.082031 730.804688 1276.195312 734.894531 1276.644531 C 738.640625 1277.058594 738.8125 1277.15625 740.023438 1279.492188 C 741.421875 1282.179688 742.613281 1282.710938 747.472656 1282.804688 C 750.625 1282.863281 750.695312 1282.90625 751.65625 1285.308594 C 752.71875 1287.96875 753.125 1288.15625 758.824219 1288.625 C 762.898438 1288.957031 762.632812 1288.8125 763.980469 1291.488281 C 765.109375 1293.730469 766.515625 1294.296875 771.175781 1294.386719 C 773.894531 1294.441406 774.703125 1294.773438 777.273438 1296.898438 C 780.730469 1299.761719 783.082031 1300.535156 788.304688 1300.539062 C 792.074219 1300.542969 792.113281 1300.5625 793 1302.683594 C 794.167969 1305.484375 795.796875 1306.03125 802.984375 1306.035156 C 810.652344 1306.039062 813.269531 1306.769531 815.683594 1309.585938 L 817.601562 1311.824219 L 824.21875 1311.992188 C 832.613281 1312.207031 833.355469 1312.382812 833.824219 1314.25 C 834.035156 1315.085938 834.816406 1316.164062 835.566406 1316.644531 C 837.152344 1317.664062 845.0625 1318.136719 861.332031 1318.1875 L 872.320312 1318.222656 L 874.300781 1320.035156 C 877.773438 1323.203125 879.46875 1323.40625 902.769531 1323.40625 C 925.691406 1323.40625 928.574219 1323.101562 931.851562 1320.34375 C 934.101562 1318.453125 934.980469 1318.34375 951.027344 1317.980469 C 965.734375 1317.648438 967.660156 1317.265625 970.074219 1314.195312 C 971.40625 1312.5 971.613281 1312.453125 978.863281 1312.101562 C 986.871094 1311.714844 988.535156 1311.1875 989.761719 1308.640625 C 990.742188 1306.605469 992.25 1306.167969 998.589844 1306.09375 C 1004.96875 1306.015625 1006.398438 1305.460938 1007.308594 1302.714844 L 1008.019531 1300.542969 L 1011.789062 1300.539062 C 1016.789062 1300.535156 1019.609375 1299.679688 1022 1297.449219 C 1024.519531 1295.09375 1025.75 1294.449219 1027.730469 1294.449219 C 1028.609375 1294.449219 1030.570312 1294.136719 1032.089844 1293.753906 C 1034.289062 1293.199219 1035.050781 1292.652344 1035.800781 1291.070312 C 1036.789062 1288.992188 1038.351562 1288.351562 1042.421875 1288.351562 C 1045.480469 1288.351562 1047.578125 1287.15625 1047.96875 1285.179688 C 1048.21875 1283.949219 1048.769531 1283.363281 1049.921875 1283.121094 C 1053.628906 1282.332031 1056.691406 1280.855469 1058.730469 1278.878906 C 1060.058594 1277.59375 1061.511719 1276.769531 1062.460938 1276.769531 C 1064.410156 1276.769531 1066.449219 1274.785156 1066.449219 1272.890625 C 1066.449219 1271.554688 1066.738281 1271.425781 1070.410156 1271.132812 C 1074.808594 1270.777344 1077.230469 1269.558594 1077.53125 1267.550781 C 1077.640625 1266.820312 1078.140625 1266.035156 1078.640625 1265.804688 C 1082.679688 1263.945312 1083.261719 1263.488281 1083.78125 1261.734375 C 1084.289062 1260.035156 1084.660156 1259.789062 1087.230469 1259.445312 C 1091.910156 1258.824219 1093.601562 1257.996094 1094.640625 1255.800781 C 1095.320312 1254.382812 1096.148438 1253.667969 1097.421875 1253.414062 C 1099.589844 1252.980469 1101.199219 1251.5 1101.199219 1249.9375 C 1101.199219 1248.667969 1101.890625 1248.097656 1104.5 1247.203125 C 1105.738281 1246.777344 1106.5 1245.953125 1106.980469 1244.496094 C 1107.480469 1243.015625 1108.210938 1242.230469 1109.46875 1241.824219 C 1111.960938 1241.023438 1112.578125 1240.421875 1112.980469 1238.457031 C 1113.230469 1237.160156 1113.910156 1236.515625 1115.78125 1235.78125 C 1117.539062 1235.09375 1118.53125 1234.191406 1119.28125 1232.628906 C 1119.941406 1231.230469 1120.75 1230.4375 1121.5 1230.4375 C 1122.148438 1230.4375 1124.070312 1229.066406 1125.761719 1227.390625 C 1127.449219 1225.714844 1129.039062 1224.34375 1129.28125 1224.34375 C 1129.519531 1224.34375 1130.160156 1223.25 1130.691406 1221.910156 C 1131.390625 1220.175781 1132.308594 1219.175781 1133.910156 1218.40625 C 1135.5 1217.648438 1136.359375 1216.714844 1136.859375 1215.222656 C 1137.390625 1213.628906 1138.03125 1213 1139.480469 1212.621094 C 1141.03125 1212.21875 1141.519531 1211.679688 1142.019531 1209.792969 C 1142.539062 1207.863281 1143.070312 1207.292969 1145.101562 1206.496094 C 1147.03125 1205.738281 1147.621094 1205.144531 1147.921875 1203.648438 C 1148.328125 1201.59375 1148.761719 1201.179688 1151.441406 1200.261719 C 1152.679688 1199.839844 1153.441406 1199.015625 1153.921875 1197.558594 C 1154.429688 1196.03125 1155.148438 1195.289062 1156.589844 1194.804688 C 1158.808594 1194.054688 1159.699219 1192.96875 1159.710938 1190.976562 C 1159.71875 1190.015625 1160.421875 1189.261719 1162.109375 1188.398438 C 1164.160156 1187.351562 1164.640625 1186.707031 1165.46875 1183.871094 C 1166 1182.054688 1166.429688 1180.195312 1166.441406 1179.746094 C 1166.449219 1179.292969 1167.339844 1178.515625 1168.421875 1178.011719 C 1169.871094 1177.332031 1170.621094 1176.394531 1171.308594 1174.390625 C 1172.070312 1172.15625 1172.578125 1171.59375 1174.230469 1171.167969 C 1176.480469 1170.585938 1177.128906 1169.367188 1177.769531 1164.578125 C 1178.128906 1161.8125 1178.441406 1161.292969 1180.53125 1159.976562 C 1182.441406 1158.769531 1182.949219 1158.03125 1183.269531 1156 C 1183.589844 1154.027344 1184.011719 1153.382812 1185.269531 1152.945312 C 1187.511719 1152.164062 1188.449219 1150.359375 1188.839844 1146.164062 C 1189.140625 1142.800781 1189.320312 1142.457031 1191.441406 1141.117188 C 1193.75 1139.660156 1193.921875 1139.269531 1195.421875 1131.894531 C 1195.570312 1131.109375 1196.421875 1130.324219 1197.519531 1129.941406 C 1199.878906 1129.117188 1200.320312 1127.84375 1200.859375 1120.230469 L 1201.308594 1113.960938 L 1203.328125 1113.117188 C 1205.941406 1112.023438 1206.660156 1110.578125 1206.660156 1106.386719 C 1206.660156 1101.726562 1207.761719 1097.726562 1209.390625 1096.445312 C 1211.820312 1094.53125 1212.371094 1092.640625 1212.640625 1085.210938 L 1212.910156 1078.066406 L 1214.949219 1076.507812 C 1217.699219 1074.410156 1218.070312 1072.566406 1218.480469 1058.832031 C 1218.851562 1046.921875 1219.128906 1044.8125 1221.191406 1038.960938 C 1223.800781 1031.53125 1224.339844 1025.402344 1224.339844 1003.328125 C 1224.339844 979.285156 1223.679688 973.59375 1219.730469 963.425781 C 1218.890625 961.25 1218.609375 958.226562 1218.421875 948.792969 C 1218.289062 942.257812 1217.878906 936.136719 1217.511719 935.199219 C 1217.070312 934.042969 1216.28125 933.375 1215.101562 933.136719 C 1212.988281 932.714844 1212.890625 932.320312 1212.589844 923.496094 C 1212.351562 916.339844 1211.910156 914.933594 1208.929688 911.78125 C 1207.269531 910.027344 1207.039062 909.292969 1206.679688 904.738281 C 1206.210938 898.851562 1205.980469 898.359375 1203.300781 897.238281 L 1201.300781 896.402344 L 1200.859375 889.972656 C 1200.390625 883.039062 1199.421875 880.785156 1196.75 880.40625 C 1195.519531 880.230469 1195.359375 879.78125 1195.070312 875.945312 C 1194.730469 871.261719 1193.769531 868.945312 1192.160156 868.914062 C 1189.890625 868.871094 1188.980469 867.421875 1188.980469 863.796875 C 1188.980469 859.558594 1188.269531 858.113281 1185.660156 857.015625 C 1183.800781 856.242188 1183.609375 855.902344 1183.210938 852.648438 C 1182.730469 848.617188 1181.628906 846.566406 1179.539062 845.769531 C 1178.519531 845.382812 1177.859375 844.4375 1177.390625 842.683594 C 1176.820312 840.570312 1176.320312 840 1174.390625 839.242188 C 1172.109375 838.34375 1172.058594 838.265625 1171.660156 834.339844 C 1171.160156 829.425781 1170.589844 828.296875 1168.339844 827.804688 C 1167.019531 827.511719 1166.359375 826.828125 1165.640625 825 C 1164.941406 823.214844 1164.121094 822.339844 1162.519531 821.671875 C 1160.988281 821.035156 1160.25 820.273438 1160 819.09375 C 1159.101562 814.894531 1157.71875 812.183594 1156.058594 811.324219 C 1154.921875 810.730469 1154.191406 809.761719 1153.910156 808.441406 C 1153.410156 806.050781 1152 804.316406 1150.558594 804.316406 C 1149.238281 804.316406 1148.359375 803.273438 1147.808594 801.0625 C 1147.539062 800 1146.761719 799.101562 1145.78125 798.710938 C 1142.820312 797.558594 1142.5 797.269531 1141.808594 795.199219 C 1141.308594 793.660156 1140.601562 792.960938 1139.070312 792.441406 C 1137.511719 791.929688 1136.828125 791.230469 1136.320312 789.648438 C 1135.808594 788.050781 1135.140625 787.390625 1133.53125 786.871094 C 1131.398438 786.179688 1131.128906 785.878906 1129.941406 782.851562 C 1129.5 781.75 1128.640625 781.03125 1127.320312 780.691406 C 1125.890625 780.320312 1125.230469 779.710938 1124.898438 778.488281 C 1124.28125 776.160156 1123.410156 775.261719 1121.410156 774.859375 C 1120.121094 774.601562 1119.46875 773.921875 1118.738281 772.070312 C 1118.019531 770.238281 1117.339844 769.519531 1116.039062 769.199219 C 1113.660156 768.628906 1112.78125 767.828125 1112.78125 766.210938 C 1112.78125 764.628906 1111.980469 763.871094 1109.46875 763.058594 C 1108.238281 762.660156 1107.480469 761.859375 1107.019531 760.511719 C 1106.269531 758.269531 1105.179688 757.398438 1103.148438 757.378906 C 1102.128906 757.371094 1101.5 756.789062 1100.851562 755.230469 C 1100.140625 753.53125 1099.238281 752.769531 1096.609375 751.601562 C 1094.78125 750.789062 1093.269531 749.839844 1093.269531 749.488281 C 1093.269531 748.480469 1088.910156 745.960938 1086.421875 745.519531 C 1084.589844 745.210938 1084.058594 744.800781 1083.75 743.480469 C 1083.179688 741.089844 1082.449219 740.390625 1079.820312 739.679688 C 1078.421875 739.308594 1076.988281 738.359375 1076.230469 737.300781 C 1074.980469 735.53125 1070.628906 733.601562 1067.910156 733.601562 C 1066.890625 733.601562 1066.441406 733.140625 1066.140625 731.769531 C 1065.691406 729.679688 1063.789062 728.109375 1061.710938 728.109375 C 1060.929688 728.109375 1059.070312 727.808594 1057.578125 727.429688 C 1055.621094 726.941406 1054.871094 726.441406 1054.871094 725.640625 C 1054.871094 724.011719 1052.238281 722.238281 1049.199219 721.820312 C 1047.179688 721.550781 1045.941406 720.871094 1044.140625 719.070312 C 1042.058594 716.988281 1041.28125 716.628906 1038 716.25 C 1034.460938 715.839844 1031.699219 714.359375 1031.699219 712.859375 C 1031.699219 711.789062 1028.339844 710.558594 1024.179688 710.109375 C 1020.289062 709.699219 1019.960938 709.550781 1019.390625 707.910156 C 1018.539062 705.460938 1017.058594 704.851562 1011.191406 704.480469 C 1006.339844 704.179688 1006 704.058594 1003.519531 701.808594 C 1000.5 699.070312 1000.339844 699.019531 992.6875 698.628906 C 986.078125 698.300781 984.957031 697.988281 984.433594 696.339844 C 983.65625 693.890625 981.394531 693.179688 972.9375 692.730469 C 965.253906 692.339844 964.792969 692.238281 963.226562 690.671875 C 959.96875 687.410156 958.96875 687.269531 936.136719 686.871094 C 924.488281 686.660156 914.859375 686.398438 914.730469 686.289062 C 914.605469 686.191406 914.46875 683.238281 914.425781 679.738281 C 914.351562 673.46875 914.378906 673.351562 916.367188 670.578125 C 919.113281 666.75 919.472656 664.171875 919.929688 644.75 L 920.324219 628.148438 L 922.324219 626.960938 C 924.539062 625.660156 925.621094 622.921875 925.625 618.601562 C 925.628906 615.921875 926.246094 615.328125 929.070312 615.328125 C 931.273438 615.328125 932.945312 616.410156 932.945312 617.828125 C 932.945312 619.800781 933.996094 621.25 935.886719 621.910156 C 937.285156 622.398438 937.851562 623.179688 938.691406 625.78125 C 939.945312 629.660156 941.214844 631.789062 942.285156 631.789062 C 943.222656 631.789062 950.492188 638.671875 952.277344 641.25 C 953.566406 643.109375 955.785156 644.160156 959.917969 644.871094 C 961.8125 645.191406 962.207031 645.511719 962.207031 646.710938 C 962.207031 648.820312 964.886719 650.691406 967.925781 650.699219 C 971.773438 650.710938 973.03125 651.25 974.332031 653.460938 C 975.777344 655.910156 978.398438 656.78125 984.332031 656.78125 C 988.03125 656.78125 988.640625 656.960938 989.972656 658.398438 C 990.792969 659.28125 991.46875 660.25 991.46875 660.550781 C 991.46875 661.679688 994.742188 662.21875 1002.261719 662.328125 C 1009.871094 662.429688 1013.929688 663.039062 1019.511719 664.910156 C 1026.199219 667.140625 1047.160156 668.558594 1053.339844 667.191406 C 1055.679688 666.679688 1063.371094 665.941406 1069.808594 665.621094 C 1071.480469 665.53125 1073.949219 665.03125 1075.289062 664.5 C 1079.28125 662.910156 1085.058594 662.28125 1095.710938 662.269531 C 1107.480469 662.269531 1109.710938 661.800781 1111.929688 658.890625 L 1113.539062 656.78125 L 1122.761719 656.769531 C 1138.570312 656.738281 1145.820312 655.621094 1146.628906 653.089844 C 1146.808594 652.5 1147.441406 651.839844 1148.011719 651.609375 C 1148.589844 651.371094 1154.539062 650.980469 1161.25 650.71875 C 1174.359375 650.21875 1175.941406 649.859375 1177.640625 646.980469 L 1178.691406 645.199219 L 1193.441406 645.089844 C 1201.550781 645.03125 1223.269531 645 1241.699219 645.039062 L 1275.21875 645.109375 L 1277.460938 647.738281 L 1279.699219 650.359375 L 1288.441406 650.75 C 1293.25 650.96875 1297.738281 651.371094 1298.410156 651.640625 C 1299.078125 651.910156 1300.320312 652.910156 1301.148438 653.859375 C 1302.320312 655.179688 1303.53125 655.71875 1306.339844 656.179688 C 1311.070312 656.949219 1320.050781 656.960938 1320.050781 656.191406 C 1320.050781 655.871094 1320.429688 655.75 1320.898438 655.929688 C 1322.558594 656.570312 1323.710938 653.730469 1323.648438 649.179688 C 1323.558594 643.171875 1323.140625 642.03125 1320.5 640.730469 C 1318.25 639.628906 1318.21875 639.570312 1318.179688 635.859375 C 1318.128906 631.871094 1317.808594 627.828125 1317.300781 624.738281 C 1317.128906 623.699219 1316.058594 621.96875 1314.890625 620.839844 C 1313.320312 619.320312 1312.679688 618.078125 1312.378906 616 C 1311.808594 612.03125 1310.550781 609.261719 1308.210938 606.800781 C 1306.601562 605.109375 1306.109375 603.988281 1305.820312 601.390625 C 1305.410156 597.621094 1304.171875 595.410156 1302.039062 594.589844 C 1301.191406 594.269531 1300.539062 593.53125 1300.539062 592.878906 C 1300.539062 590.160156 1299.199219 587.839844 1297.421875 587.488281 C 1296.148438 587.230469 1295.550781 586.679688 1295.289062 585.53125 C 1293.558594 577.890625 1293.550781 577.878906 1291.078125 576.589844 C 1289.28125 575.648438 1288.589844 574.851562 1288.289062 573.359375 C 1287.808594 571 1287.949219 571.160156 1285.378906 570.109375 C 1283.890625 569.511719 1283.128906 568.691406 1282.640625 567.160156 C 1282.171875 565.710938 1281.320312 564.75 1279.980469 564.121094 C 1277.980469 563.191406 1277.238281 561.769531 1276.5 557.351562 C 1276.109375 555.011719 1274.871094 553.550781 1272.691406 552.890625 C 1271.878906 552.640625 1271.078125 551.640625 1270.640625 550.320312 C 1270.128906 548.761719 1269.351562 547.910156 1267.859375 547.289062 C 1266.5 546.730469 1265.429688 545.648438 1264.730469 544.148438 C 1263.960938 542.519531 1263.058594 541.679688 1261.589844 541.199219 C 1260.171875 540.75 1259.160156 539.839844 1258.390625 538.328125 C 1257.480469 536.570312 1256.730469 536 1254.671875 535.488281 C 1247.820312 533.800781 1247.511719 533.648438 1247.511719 532.171875 C 1247.511719 530.441406 1246.46875 529.5 1244.011719 529.011719 C 1242.589844 528.730469 1242.070312 528.230469 1241.808594 526.949219 C 1241.371094 524.738281 1239.859375 523.28125 1238.019531 523.28125 C 1236.96875 523.28125 1236.121094 522.589844 1235.039062 520.890625 C 1233.539062 518.511719 1232 517.859375 1225.921875 517.039062 C 1225.210938 516.941406 1224.488281 516.078125 1224.078125 514.871094 C 1223.238281 512.371094 1222.410156 511.851562 1218.550781 511.371094 C 1215.191406 510.941406 1214.160156 510.359375 1212.640625 507.96875 C 1211.960938 506.898438 1210.691406 506.140625 1208.820312 505.671875 C 1206.71875 505.140625 1205.859375 504.570312 1205.429688 503.429688 C 1204.691406 501.5 1201.71875 500.21875 1196.789062 499.699219 C 1193.570312 499.359375 1192.640625 498.96875 1190.539062 497.070312 C 1189.179688 495.839844 1187.589844 494.660156 1187.019531 494.449219 C 1186.441406 494.238281 1182.871094 494.03125 1179.089844 493.980469 C 1172.128906 493.890625 1171.789062 493.800781 1166.53125 490.808594 C 1161.789062 488.121094 1158.261719 487.921875 1116.25 487.980469 C 1084.300781 488.019531 1075.910156 488.199219 1073.460938 488.878906 M 925.019531 520.761719 C 925.019531 523.550781 925.757812 528.160156 926.207031 528.160156 C 926.433594 528.160156 927.199219 527.011719 927.914062 525.609375 C 929.285156 522.910156 929.027344 521.429688 926.902344 519.789062 C 925.417969 518.660156 925.019531 518.859375 925.019531 520.761719 "/>
<path fill-rule="evenodd" fill="rgb(9.423828%, 46.655273%, 34.910583%)" fill-opacity="1" d="M 1096.628906 489.761719 C 1096.421875 490.089844 1095.101562 490.359375 1093.691406 490.359375 C 1089.640625 490.371094 1065.269531 494.160156 1063.910156 495 C 1063.519531 495.238281 1062.210938 495.648438 1061.011719 495.910156 C 1059.808594 496.160156 1057.871094 496.640625 1056.691406 496.96875 C 1050.671875 498.660156 1047.230469 499.558594 1046.238281 499.710938 C 1045.640625 499.808594 1044.960938 500.070312 1044.71875 500.300781 C 1044.488281 500.53125 1043.691406 500.71875 1042.949219 500.71875 C 1042.210938 500.71875 1041.269531 501.140625 1040.851562 501.640625 C 1040.429688 502.140625 1039.570312 502.558594 1038.929688 502.558594 C 1038.300781 502.558594 1037.308594 502.808594 1036.71875 503.109375 C 1035.539062 503.730469 1033.628906 504.558594 1026.601562 507.449219 C 1021.859375 509.410156 1009.511719 515.53125 1008.261719 516.53125 C 1007.660156 517.03125 1006.539062 517.679688 1000 521.371094 C 996.992188 523.078125 995.308594 524.230469 987.835938 529.679688 C 985.082031 531.691406 982.210938 533.75 981.457031 534.25 C 976.332031 537.679688 962.300781 551.121094 955.269531 559.351562 C 944.625 571.800781 942.976562 574.75 941.691406 583.628906 C 941.523438 584.808594 941.027344 586.589844 940.589844 587.589844 C 939.882812 589.230469 939.261719 593.441406 938.714844 600.300781 C 938.609375 601.589844 938.347656 602.820312 938.125 603.039062 C 937.367188 603.800781 924.746094 604.230469 924.28125 603.519531 C 924.046875 603.148438 924.113281 602.578125 924.433594 602.261719 C 924.757812 601.941406 925.019531 600.890625 925.019531 599.929688 C 925.019531 598.96875 925.261719 597.71875 925.558594 597.160156 C 925.859375 596.589844 926.257812 595.03125 926.449219 593.691406 C 926.640625 592.351562 927.519531 588.511719 928.402344 585.160156 C 929.289062 581.808594 930.554688 576.730469 931.21875 573.878906 C 932.988281 566.269531 933.285156 565.050781 935.054688 558.121094 C 935.941406 554.660156 936.585938 550.820312 936.484375 549.601562 C 936.308594 547.539062 936.007812 547.230469 932.195312 545.238281 C 929.519531 543.839844 927.886719 542.558594 927.5 541.570312 C 926.984375 540.230469 926.453125 535.699219 925.191406 521.910156 C 925.015625 519.980469 924.667969 518.398438 924.417969 518.398438 C 924.167969 518.398438 922.484375 518.980469 920.679688 519.679688 C 917.761719 520.820312 915.214844 521.800781 911.304688 523.28125 C 910.632812 523.53125 909.289062 524.058594 908.320312 524.449219 L 906.558594 525.160156 L 907.066406 530.160156 C 907.347656 532.921875 907.59375 542.160156 907.609375 550.710938 C 907.640625 565.199219 907.296875 570.28125 905.503906 581.648438 C 905.171875 583.75 904.691406 587.039062 904.429688 588.960938 C 904.171875 590.890625 903.734375 592.828125 903.457031 593.269531 C 903.183594 593.710938 902.851562 595.21875 902.722656 596.621094 C 902.5 599.058594 900.324219 608.589844 898.796875 613.808594 C 898.402344 615.148438 897.953125 617.210938 897.796875 618.378906 C 897.640625 619.558594 897.273438 621.058594 896.984375 621.730469 C 896.695312 622.398438 896.332031 623.640625 896.171875 624.480469 C 896.015625 625.320312 895.148438 628.328125 894.242188 631.179688 C 892.007812 638.21875 891.429688 640.289062 891.0625 642.621094 C 890.886719 643.710938 890.5 644.761719 890.203125 644.941406 C 889.90625 645.121094 889.660156 645.808594 889.660156 646.46875 C 889.660156 647.121094 889.40625 648.140625 889.097656 648.71875 C 888.789062 649.300781 887.542969 652.789062 886.332031 656.480469 C 885.121094 660.171875 883.867188 663.660156 883.542969 664.25 C 883.21875 664.828125 882.957031 666 882.957031 666.859375 C 882.957031 667.710938 882.5625 668.558594 882.082031 668.738281 C 881.601562 668.929688 881.214844 669.53125 881.226562 670.089844 C 881.25 671.578125 877.335938 682.71875 875.570312 686.191406 C 874.566406 688.160156 874.957031 688.480469 877.925781 688.148438 C 883.554688 687.53125 887.648438 687.359375 898.828125 687.269531 L 910.132812 687.171875 L 911.242188 680.96875 C 911.851562 677.558594 912.597656 673.980469 912.894531 673 C 913.191406 672.03125 913.4375 669.96875 913.441406 668.429688 C 913.441406 666.890625 913.699219 664.671875 914.011719 663.488281 C 914.636719 661.148438 916.40625 648.589844 917.066406 641.820312 C 917.296875 639.449219 917.65625 637.238281 917.867188 636.898438 C 918.261719 636.261719 919.453125 628.03125 919.839844 623.261719 C 920.222656 618.570312 921.21875 612.390625 921.734375 611.570312 C 921.902344 611.289062 923.554688 611.070312 925.398438 611.070312 C 927.246094 611.070312 929.339844 610.75 930.050781 610.371094 C 931.578125 609.558594 932.429688 610.441406 936.296875 616.871094 C 937.636719 619.109375 940.179688 622.589844 941.945312 624.621094 C 943.710938 626.648438 945.90625 629.230469 946.824219 630.371094 C 948.671875 632.648438 957.855469 640.679688 960.691406 642.5 C 961.691406 643.140625 962.8125 643.941406 963.179688 644.28125 C 964.316406 645.328125 976.328125 651.160156 980.191406 652.539062 C 982.203125 653.25 984.535156 654.191406 985.371094 654.609375 C 987.007812 655.441406 989.136719 656.011719 998.171875 658.03125 C 1001.359375 658.738281 1004.808594 659.570312 1005.839844 659.878906 C 1006.871094 660.191406 1008.800781 660.441406 1010.140625 660.441406 C 1011.46875 660.441406 1012.820312 660.691406 1013.140625 661 C 1013.460938 661.308594 1015.550781 661.710938 1017.789062 661.890625 C 1020.019531 662.078125 1023.039062 662.519531 1024.488281 662.871094 C 1030.019531 664.210938 1075.570312 662.878906 1078.128906 661.300781 C 1078.539062 661.039062 1080.820312 660.621094 1083.179688 660.351562 C 1087.808594 659.828125 1092.460938 659.140625 1098.761719 658.050781 C 1100.941406 657.671875 1104.640625 657.101562 1106.988281 656.78125 C 1116.300781 655.53125 1118.179688 655.191406 1118.96875 654.550781 C 1119.421875 654.191406 1121.160156 653.730469 1122.839844 653.519531 C 1124.519531 653.308594 1127.261719 652.890625 1128.941406 652.578125 C 1138.070312 650.890625 1141.171875 650.410156 1152.410156 648.960938 C 1154.25 648.71875 1156.171875 648.269531 1156.679688 647.941406 C 1157.179688 647.628906 1159.230469 647.140625 1161.25 646.871094 C 1174.230469 645.121094 1174.929688 645.03125 1186.238281 643.679688 C 1195.648438 642.558594 1199.25 642.25 1208.140625 641.851562 C 1212.140625 641.660156 1215.980469 641.378906 1216.679688 641.21875 C 1218.988281 640.671875 1233.109375 640.53125 1238.058594 641 C 1240.738281 641.25 1246.230469 641.628906 1250.25 641.839844 C 1254.269531 642.050781 1258.179688 642.339844 1258.929688 642.5 C 1259.679688 642.660156 1261.871094 642.929688 1263.808594 643.101562 C 1265.738281 643.28125 1269.039062 643.679688 1271.128906 644 C 1281.441406 645.539062 1283.898438 645.921875 1285.308594 646.191406 C 1288.5 646.808594 1291.828125 647.601562 1295.359375 648.570312 C 1297.378906 649.121094 1300.121094 649.808594 1301.460938 650.089844 C 1303.679688 650.558594 1305.261719 650.96875 1310.601562 652.5 C 1314.800781 653.710938 1316.550781 654.328125 1317.210938 654.839844 C 1317.601562 655.140625 1318.511719 655.53125 1319.230469 655.710938 C 1320.441406 656.011719 1320.519531 655.828125 1320.300781 653.511719 C 1320.160156 652.128906 1319.789062 650.03125 1319.460938 648.859375 C 1319.140625 647.691406 1318.429688 644.808594 1317.878906 642.460938 C 1316.769531 637.710938 1314.808594 631.441406 1313.921875 629.820312 C 1313.609375 629.238281 1313.351562 628.339844 1313.351562 627.828125 C 1313.351562 627.320312 1313.089844 626.421875 1312.789062 625.839844 C 1311.921875 624.191406 1306.941406 611.480469 1307.011719 611.101562 C 1307.039062 610.910156 1306.46875 609.800781 1305.738281 608.621094 C 1305.011719 607.449219 1303.660156 604.980469 1302.738281 603.140625 C 1301.820312 601.300781 1300.390625 598.691406 1299.570312 597.351562 C 1298.75 596.011719 1297.898438 594.5 1297.679688 594 C 1297.460938 593.488281 1297.128906 592.941406 1296.929688 592.78125 C 1296.738281 592.609375 1295.910156 591.238281 1295.089844 589.730469 C 1294.261719 588.21875 1292.398438 585.339844 1290.949219 583.328125 C 1289.5 581.320312 1287.570312 578.570312 1286.660156 577.230469 C 1277.359375 563.480469 1255.671875 540.761719 1244.460938 533.019531 C 1243.289062 532.210938 1241.839844 531.089844 1241.230469 530.550781 C 1240.640625 530 1238.578125 528.480469 1236.660156 527.179688 C 1234.75 525.871094 1232.648438 524.320312 1232 523.738281 C 1231.351562 523.148438 1230.570312 522.671875 1230.28125 522.671875 C 1229.980469 522.671875 1228.011719 521.441406 1225.898438 519.929688 C 1223.789062 518.421875 1221.75 517.179688 1221.371094 517.179688 C 1220.988281 517.179688 1220.679688 516.910156 1220.679688 516.570312 C 1220.679688 516.238281 1220.390625 515.960938 1220.03125 515.960938 C 1219.671875 515.960938 1218.230469 515.179688 1216.828125 514.210938 C 1215.429688 513.238281 1212.910156 511.78125 1211.230469 510.960938 C 1209.558594 510.140625 1207.171875 508.878906 1205.921875 508.160156 C 1204.671875 507.449219 1201.789062 505.859375 1199.519531 504.621094 C 1197.25 503.390625 1194.96875 502.039062 1194.46875 501.621094 C 1193.96875 501.210938 1191.769531 500.429688 1189.589844 499.910156 C 1183.75 498.488281 1180.410156 497.660156 1178.011719 497.058594 C 1171.769531 495.46875 1163.160156 493.421875 1161.550781 493.128906 C 1160.710938 492.980469 1155.910156 492.308594 1150.878906 491.628906 C 1145.859375 490.960938 1140.371094 490.21875 1138.691406 489.988281 C 1133.578125 489.28125 1097.039062 489.078125 1096.628906 489.761719 "/>
<path fill-rule="evenodd" fill="rgb(98.4375%, 49.021912%, 3.921509%)" fill-opacity="1" d="M 908.863281 687 C 908.527344 687.101562 901.808594 687.320312 893.929688 687.5 C 886.050781 687.660156 878.917969 687.941406 878.078125 688.101562 C 877.242188 688.261719 872.164062 688.949219 866.800781 689.628906 C 861.4375 690.308594 855.125 691.179688 852.78125 691.558594 C 850.433594 691.941406 847.140625 692.46875 845.464844 692.730469 C 843.789062 693 839.808594 693.800781 836.625 694.519531 C 833.4375 695.238281 829.523438 696.089844 827.921875 696.410156 C 826.320312 696.730469 824.46875 697.28125 823.804688 697.640625 C 823.144531 697.988281 822.601562 698.148438 822.601562 697.988281 C 822.601562 697.550781 811.398438 700.761719 804.316406 703.230469 C 802.46875 703.871094 800.433594 704.519531 799.785156 704.660156 C 799.140625 704.800781 798.332031 705.199219 797.988281 705.539062 C 797.644531 705.890625 796.75 706.160156 796 706.160156 C 795.246094 706.160156 794.464844 706.441406 794.257812 706.78125 C 794.046875 707.109375 793.492188 707.390625 793.015625 707.390625 C 792.542969 707.390625 790.355469 708.210938 788.160156 709.210938 C 785.964844 710.21875 783.984375 711.039062 783.765625 711.039062 C 783.542969 711.039062 782.109375 711.621094 780.578125 712.339844 C 779.050781 713.058594 776.425781 714.261719 774.75 715.011719 C 767.742188 718.160156 758.453125 722.96875 751.886719 726.828125 C 749.707031 728.109375 746.277344 730.070312 744.265625 731.171875 C 740.289062 733.351562 721.605469 745.558594 720.292969 746.839844 C 719.847656 747.269531 718.914062 747.929688 718.222656 748.300781 C 716.261719 749.351562 703.808594 758.949219 699.871094 762.441406 C 698.808594 763.390625 696.875 765.039062 695.578125 766.109375 C 688.84375 771.640625 673.238281 786.910156 666.539062 794.519531 C 664.363281 797 661.453125 800.28125 660.082031 801.820312 C 658.707031 803.359375 657.140625 805.167969 656.605469 805.839844 C 656.066406 806.507812 654.0625 808.976562 652.15625 811.324219 C 648.757812 815.5 644.589844 820.953125 642.765625 823.601562 C 635.648438 833.9375 629.964844 842.652344 629.964844 843.226562 C 629.964844 843.617188 629.6875 843.941406 629.355469 843.941406 C 629.019531 843.941406 628.746094 844.207031 628.746094 844.539062 C 628.746094 844.867188 627.828125 846.582031 626.707031 848.347656 C 625.585938 850.113281 622.796875 855.125 620.515625 859.484375 C 618.230469 863.84375 616.144531 867.820312 615.878906 868.324219 C 614.824219 870.304688 608.003906 885.640625 606.726562 888.898438 C 605.578125 891.828125 604.804688 893.664062 604.308594 894.652344 C 601.816406 899.582031 593.667969 925.796875 591.503906 935.839844 C 591.199219 937.265625 590.664062 939.734375 590.3125 941.328125 C 589.964844 942.917969 589.441406 945.648438 589.152344 947.386719 C 588.859375 949.128906 588.46875 950.808594 588.273438 951.117188 C 588.082031 951.429688 587.75 953.160156 587.535156 954.964844 C 587.324219 956.765625 587.011719 958.46875 586.847656 958.746094 C 586.410156 959.488281 585.601562 965.898438 583.339844 986.589844 C 582.296875 996.089844 582.125 1018.324219 583.019531 1027.5625 C 585.023438 1048.246094 586.839844 1061.421875 588.511719 1067.363281 C 588.792969 1068.371094 589.304688 1070.566406 589.644531 1072.242188 C 591.042969 1079.101562 592.941406 1086.9375 593.453125 1087.929688 C 593.75 1088.511719 593.996094 1089.464844 593.996094 1090.042969 C 593.996094 1090.625 594.386719 1092.207031 594.867188 1093.558594 C 595.347656 1094.910156 596.628906 1098.898438 597.710938 1102.417969 C 598.792969 1105.9375 599.910156 1109.078125 600.191406 1109.398438 C 600.472656 1109.714844 600.703125 1110.691406 600.703125 1111.5625 C 600.703125 1112.433594 600.933594 1113.410156 601.214844 1113.726562 C 601.496094 1114.046875 602.085938 1115.265625 602.523438 1116.441406 C 603.332031 1118.597656 604.277344 1120.914062 605.816406 1124.515625 C 606.28125 1125.605469 606.867188 1127.183594 607.121094 1128.023438 C 608.605469 1132.949219 619.085938 1153.65625 625.175781 1163.683594 C 627.007812 1166.703125 628.902344 1169.855469 629.386719 1170.695312 C 629.871094 1171.535156 630.40625 1172.355469 630.574219 1172.523438 C 630.742188 1172.691406 631.96875 1174.476562 633.304688 1176.488281 C 640.382812 1187.148438 653.648438 1204.230469 661.710938 1213.0625 C 670.445312 1222.632812 685.316406 1237.101562 692.128906 1242.652344 C 693.964844 1244.148438 695.839844 1245.722656 696.296875 1246.144531 C 696.753906 1246.570312 698.132812 1247.664062 699.359375 1248.578125 C 700.589844 1249.496094 701.730469 1250.382812 701.898438 1250.550781 C 703.070312 1251.738281 721.972656 1264.578125 722.542969 1264.578125 C 722.867188 1264.578125 723.226562 1264.789062 723.335938 1265.042969 C 723.570312 1265.582031 735.804688 1273.203125 741.21875 1276.1875 C 743.230469 1277.292969 748.441406 1279.953125 752.800781 1282.09375 C 757.160156 1284.238281 761.414062 1286.351562 762.25 1286.792969 C 763.089844 1287.234375 767.203125 1289.015625 771.394531 1290.753906 C 775.585938 1292.488281 779.5625 1294.140625 780.234375 1294.421875 C 780.90625 1294.703125 782.414062 1295.265625 783.585938 1295.667969 C 784.761719 1296.070312 786.269531 1296.625 786.941406 1296.902344 C 789.96875 1298.148438 800.003906 1301.691406 802.484375 1302.386719 C 806.226562 1303.441406 812.757812 1305.386719 814.984375 1306.113281 C 815.988281 1306.441406 817.222656 1306.816406 817.726562 1306.941406 C 821.925781 1307.988281 829.5625 1309.785156 832.050781 1310.3125 C 835.085938 1310.957031 836.058594 1311.191406 843.027344 1312.957031 C 845.039062 1313.46875 848.328125 1314.167969 850.339844 1314.511719 C 852.351562 1314.851562 854.957031 1315.296875 856.132812 1315.496094 C 858.472656 1315.894531 866.1875 1316.78125 877.46875 1317.949219 C 887.488281 1318.988281 895.042969 1319.253906 907.949219 1319.027344 C 915.828125 1318.890625 922.824219 1318.695312 923.496094 1318.59375 C 927.269531 1318.023438 930.609375 1317.625 933.859375 1317.355469 C 937.503906 1317.050781 941.089844 1316.660156 945.136719 1316.117188 C 949.101562 1315.585938 960.609375 1313.390625 961.5625 1312.980469 C 962.085938 1312.753906 963.609375 1312.351562 964.949219 1312.078125 C 973.417969 1310.363281 986.144531 1306.710938 999.085938 1302.289062 C 1002.109375 1301.257812 1004.851562 1300.367188 1005.179688 1300.308594 C 1005.519531 1300.25 1006.070312 1300.03125 1006.410156 1299.820312 C 1006.75 1299.605469 1010.46875 1298.058594 1014.679688 1296.378906 C 1025.019531 1292.253906 1041.640625 1284.308594 1051.820312 1278.628906 C 1053.660156 1277.601562 1055.648438 1276.589844 1056.238281 1276.386719 C 1056.828125 1276.183594 1057.308594 1275.773438 1057.308594 1275.480469 C 1057.308594 1275.183594 1057.558594 1274.941406 1057.871094 1274.941406 C 1058.179688 1274.941406 1060.039062 1273.964844 1061.988281 1272.773438 C 1063.941406 1271.582031 1066.089844 1270.28125 1066.75 1269.878906 C 1067.429688 1269.476562 1071.820312 1266.5625 1076.511719 1263.402344 C 1098.550781 1248.5625 1116.308594 1233.261719 1137.460938 1210.890625 C 1142.269531 1205.796875 1156.460938 1189.113281 1160.210938 1184.132812 C 1165.980469 1176.476562 1178.140625 1157.980469 1182.269531 1150.578125 C 1186.429688 1143.117188 1196.160156 1123.660156 1197.519531 1120.097656 C 1197.960938 1118.921875 1198.558594 1117.703125 1198.839844 1117.382812 C 1199.121094 1117.066406 1199.351562 1116.21875 1199.351562 1115.503906 C 1199.351562 1114.789062 1199.53125 1114.023438 1199.75 1113.800781 C 1200.671875 1112.882812 1207.449219 1092.4375 1209.089844 1085.652344 C 1209.488281 1083.976562 1210.039062 1082.058594 1210.300781 1081.386719 C 1210.941406 1079.714844 1212.238281 1074.445312 1212.519531 1072.347656 C 1212.640625 1071.398438 1212.878906 1070.414062 1213.03125 1070.160156 C 1213.371094 1069.617188 1214.75 1062.578125 1215.808594 1056.085938 C 1216.210938 1053.574219 1216.679688 1051.105469 1216.839844 1050.601562 C 1217.140625 1049.640625 1217.679688 1044.777344 1219.148438 1029.382812 C 1220.941406 1010.65625 1220.941406 991.707031 1219.160156 975.789062 C 1218 965.488281 1217.421875 961.246094 1216.589844 957.023438 C 1216.070312 954.339844 1215.429688 950.777344 1215.179688 949.097656 C 1214.339844 943.550781 1213.480469 939.367188 1212.820312 937.648438 C 1212.460938 936.714844 1212.21875 935.753906 1212.28125 935.515625 C 1212.351562 935.273438 1212.058594 933.980469 1211.640625 932.640625 C 1211.21875 931.296875 1210.589844 929.105469 1210.230469 927.761719 C 1209.859375 926.421875 1209.359375 924.636719 1209.101562 923.800781 C 1208.839844 922.960938 1208.328125 921.179688 1207.960938 919.835938 C 1206.050781 912.882812 1201.578125 900.167969 1199.890625 896.832031 C 1199.589844 896.25 1199.351562 895.410156 1199.351562 894.964844 C 1199.351562 894.519531 1198.828125 893.078125 1198.199219 891.757812 C 1196.988281 889.21875 1194.949219 884.675781 1193.429688 881.125 C 1191.429688 876.445312 1183.078125 859.832031 1180.628906 855.625 C 1179.191406 853.164062 1178.011719 851.023438 1178.011719 850.863281 C 1178.011719 850.703125 1176.230469 847.839844 1174.050781 844.503906 C 1171.871094 841.167969 1170.089844 838.324219 1170.089844 838.183594 C 1170.089844 837.550781 1158.558594 821.210938 1155.210938 817.117188 C 1153.171875 814.601562 1150.339844 811.035156 1148.929688 809.191406 C 1146.480469 805.96875 1143.558594 802.574219 1134.808594 792.769531 C 1123.191406 779.730469 1105.429688 763.640625 1091.03125 753.109375 C 1089.429688 751.929688 1087.699219 750.640625 1087.191406 750.230469 C 1084.550781 748.121094 1062.238281 733.429688 1058.140625 731.109375 C 1057.011719 730.460938 1055.058594 729.359375 1053.800781 728.640625 C 1052.539062 727.929688 1049.871094 726.460938 1047.859375 725.390625 C 1045.839844 724.320312 1043.648438 723.140625 1042.980469 722.78125 C 1039.679688 720.988281 1031.511719 717.070312 1027.429688 715.308594 C 1024.921875 714.21875 1021.46875 712.679688 1019.761719 711.890625 C 1018.050781 711.089844 1016.441406 710.429688 1016.191406 710.429688 C 1015.941406 710.429688 1014.730469 709.988281 1013.511719 709.460938 C 1007.851562 706.980469 1002.148438 704.96875 989.027344 700.828125 C 982.214844 698.679688 976.691406 697.128906 972.265625 696.121094 C 969.917969 695.589844 967.039062 694.890625 965.863281 694.589844 C 964.691406 694.28125 962.359375 693.761719 960.683594 693.429688 C 959.003906 693.101562 956.261719 692.550781 954.585938 692.210938 C 949.878906 691.25 942.765625 690.300781 929.285156 688.851562 C 927.777344 688.679688 923.15625 688.398438 919.019531 688.210938 C 914.882812 688.019531 911.042969 687.628906 910.484375 687.339844 C 909.929688 687.058594 909.199219 686.898438 908.863281 687 "/>
</svg>
