<?xml version="1.0" encoding="UTF-8"?>
<svg xmlns="http://www.w3.org/2000/svg" xmlns:xlink="http://www.w3.org/1999/xlink" width="3873" height="3873" viewBox="0 0 3873 3873">
<defs>
<clipPath id="clip-0">
<path clip-rule="evenodd" d="M 1936.5 0 C 3006 0 3873 867 3873 1936.5 C 3873 3006 3006 3873 1936.5 3873 C 867 3873 0 3006 0 1936.5 C 0 867 867 0 1936.5 0 "/>
</clipPath>
<linearGradient id="linear-pattern-0" gradientUnits="userSpaceOnUse" x1="-0.500008" y1="0" x2="1.500007" y2="0" gradientTransform="matrix(2072.1, -1778.48, 1778.48, 2072.1, 900.452, 2825.74)">
<stop offset="0" stop-color="rgb(95.684814%, 2.745056%, 40.783691%)" stop-opacity="1"/>
<stop offset="0.25" stop-color="rgb(95.684814%, 2.745056%, 40.783691%)" stop-opacity="1"/>
<stop offset="0.253906" stop-color="rgb(94.86084%, 3.482056%, 41.343689%)" stop-opacity="1"/>
<stop offset="0.257812" stop-color="rgb(94.038391%, 4.220581%, 41.905212%)" stop-opacity="1"/>
<stop offset="0.261719" stop-color="rgb(93.214417%, 4.959106%, 42.46521%)" stop-opacity="1"/>
<stop offset="0.265625" stop-color="rgb(92.390442%, 5.697632%, 43.026733%)" stop-opacity="1"/>
<stop offset="0.269531" stop-color="rgb(91.566467%, 6.436157%, 43.588257%)" stop-opacity="1"/>
<stop offset="0.273437" stop-color="rgb(90.742493%, 7.176208%, 44.14978%)" stop-opacity="1"/>
<stop offset="0.277344" stop-color="rgb(89.918518%, 7.914734%, 44.709778%)" stop-opacity="1"/>
<stop offset="0.28125" stop-color="rgb(89.096069%, 8.653259%, 45.271301%)" stop-opacity="1"/>
<stop offset="0.285156" stop-color="rgb(88.272095%, 9.391785%, 45.832825%)" stop-opacity="1"/>
<stop offset="0.289062" stop-color="rgb(87.44812%, 10.13031%, 46.394348%)" stop-opacity="1"/>
<stop offset="0.292969" stop-color="rgb(86.624146%, 10.868835%, 46.954346%)" stop-opacity="1"/>
<stop offset="0.296875" stop-color="rgb(85.800171%, 11.607361%, 47.515869%)" stop-opacity="1"/>
<stop offset="0.300781" stop-color="rgb(84.976196%, 12.345886%, 48.075867%)" stop-opacity="1"/>
<stop offset="0.304688" stop-color="rgb(84.152222%, 13.084412%, 48.63739%)" stop-opacity="1"/>
<stop offset="0.308594" stop-color="rgb(83.328247%, 13.822937%, 49.198914%)" stop-opacity="1"/>
<stop offset="0.3125" stop-color="rgb(82.504272%, 14.561462%, 49.760437%)" stop-opacity="1"/>
<stop offset="0.316406" stop-color="rgb(81.680298%, 15.299988%, 50.320435%)" stop-opacity="1"/>
<stop offset="0.320312" stop-color="rgb(80.857849%, 16.038513%, 50.881958%)" stop-opacity="1"/>
<stop offset="0.324219" stop-color="rgb(80.033875%, 16.777039%, 51.441956%)" stop-opacity="1"/>
<stop offset="0.328125" stop-color="rgb(79.2099%, 17.515564%, 52.003479%)" stop-opacity="1"/>
<stop offset="0.332031" stop-color="rgb(78.385925%, 18.254089%, 52.565002%)" stop-opacity="1"/>
<stop offset="0.335938" stop-color="rgb(77.561951%, 18.992615%, 53.126526%)" stop-opacity="1"/>
<stop offset="0.339844" stop-color="rgb(76.737976%, 19.73114%, 53.686523%)" stop-opacity="1"/>
<stop offset="0.34375" stop-color="rgb(75.914001%, 20.469666%, 54.248047%)" stop-opacity="1"/>
<stop offset="0.347656" stop-color="rgb(75.090027%, 21.208191%, 54.80957%)" stop-opacity="1"/>
<stop offset="0.351562" stop-color="rgb(74.266052%, 21.946716%, 55.371094%)" stop-opacity="1"/>
<stop offset="0.355469" stop-color="rgb(73.442078%, 22.685242%, 55.931091%)" stop-opacity="1"/>
<stop offset="0.359375" stop-color="rgb(72.619629%, 23.425293%, 56.492615%)" stop-opacity="1"/>
<stop offset="0.363281" stop-color="rgb(71.795654%, 24.163818%, 57.052612%)" stop-opacity="1"/>
<stop offset="0.367187" stop-color="rgb(70.97168%, 24.902344%, 57.614136%)" stop-opacity="1"/>
<stop offset="0.371094" stop-color="rgb(70.147705%, 25.640869%, 58.175659%)" stop-opacity="1"/>
<stop offset="0.375" stop-color="rgb(69.32373%, 26.379395%, 58.737183%)" stop-opacity="1"/>
<stop offset="0.378906" stop-color="rgb(68.499756%, 27.11792%, 59.29718%)" stop-opacity="1"/>
<stop offset="0.382812" stop-color="rgb(67.675781%, 27.856445%, 59.858704%)" stop-opacity="1"/>
<stop offset="0.386719" stop-color="rgb(66.851807%, 28.594971%, 60.418701%)" stop-opacity="1"/>
<stop offset="0.390625" stop-color="rgb(66.027832%, 29.333496%, 60.980225%)" stop-opacity="1"/>
<stop offset="0.394531" stop-color="rgb(65.203857%, 30.072021%, 61.541748%)" stop-opacity="1"/>
<stop offset="0.398438" stop-color="rgb(64.381409%, 30.810547%, 62.103271%)" stop-opacity="1"/>
<stop offset="0.402344" stop-color="rgb(63.557434%, 31.549072%, 62.663269%)" stop-opacity="1"/>
<stop offset="0.40625" stop-color="rgb(62.733459%, 32.287598%, 63.224792%)" stop-opacity="1"/>
<stop offset="0.410156" stop-color="rgb(61.909485%, 33.026123%, 63.786316%)" stop-opacity="1"/>
<stop offset="0.414062" stop-color="rgb(61.08551%, 33.764648%, 64.347839%)" stop-opacity="1"/>
<stop offset="0.417969" stop-color="rgb(60.261536%, 34.503174%, 64.907837%)" stop-opacity="1"/>
<stop offset="0.421875" stop-color="rgb(59.437561%, 35.241699%, 65.46936%)" stop-opacity="1"/>
<stop offset="0.425781" stop-color="rgb(58.613586%, 35.980225%, 66.029358%)" stop-opacity="1"/>
<stop offset="0.429688" stop-color="rgb(57.791138%, 36.71875%, 66.590881%)" stop-opacity="1"/>
<stop offset="0.433594" stop-color="rgb(56.967163%, 37.457275%, 67.152405%)" stop-opacity="1"/>
<stop offset="0.4375" stop-color="rgb(56.143188%, 38.195801%, 67.713928%)" stop-opacity="1"/>
<stop offset="0.441406" stop-color="rgb(55.319214%, 38.934326%, 68.273926%)" stop-opacity="1"/>
<stop offset="0.445312" stop-color="rgb(54.495239%, 39.674377%, 68.835449%)" stop-opacity="1"/>
<stop offset="0.449219" stop-color="rgb(53.671265%, 40.412903%, 69.395447%)" stop-opacity="1"/>
<stop offset="0.453125" stop-color="rgb(52.84729%, 41.151428%, 69.95697%)" stop-opacity="1"/>
<stop offset="0.457031" stop-color="rgb(52.023315%, 41.889954%, 70.518494%)" stop-opacity="1"/>
<stop offset="0.460938" stop-color="rgb(51.199341%, 42.628479%, 71.080017%)" stop-opacity="1"/>
<stop offset="0.464844" stop-color="rgb(50.505066%, 43.251038%, 71.556091%)" stop-opacity="1"/>
<stop offset="0.46875" stop-color="rgb(49.812317%, 43.873596%, 72.033691%)" stop-opacity="1"/>
<stop offset="0.472656" stop-color="rgb(49.320984%, 44.314575%, 72.37854%)" stop-opacity="1"/>
<stop offset="0.476562" stop-color="rgb(48.831177%, 44.75708%, 72.723389%)" stop-opacity="1"/>
<stop offset="0.480469" stop-color="rgb(48.34137%, 45.198059%, 73.068237%)" stop-opacity="1"/>
<stop offset="0.484375" stop-color="rgb(47.851562%, 45.640564%, 73.413086%)" stop-opacity="1"/>
<stop offset="0.488281" stop-color="rgb(47.360229%, 46.081543%, 73.757935%)" stop-opacity="1"/>
<stop offset="0.492188" stop-color="rgb(46.870422%, 46.524048%, 74.102783%)" stop-opacity="1"/>
<stop offset="0.496094" stop-color="rgb(46.379089%, 46.965027%, 74.447632%)" stop-opacity="1"/>
<stop offset="0.5" stop-color="rgb(45.889282%, 47.407532%, 74.79248%)" stop-opacity="1"/>
<stop offset="0.503906" stop-color="rgb(45.399475%, 47.850037%, 75.137329%)" stop-opacity="1"/>
<stop offset="0.507812" stop-color="rgb(44.909668%, 48.292542%, 75.482178%)" stop-opacity="1"/>
<stop offset="0.511719" stop-color="rgb(44.418335%, 48.733521%, 75.827026%)" stop-opacity="1"/>
<stop offset="0.515625" stop-color="rgb(43.928528%, 49.176025%, 76.171875%)" stop-opacity="1"/>
<stop offset="0.519531" stop-color="rgb(43.437195%, 49.617004%, 76.516724%)" stop-opacity="1"/>
<stop offset="0.523438" stop-color="rgb(42.947388%, 50.059509%, 76.861572%)" stop-opacity="1"/>
<stop offset="0.527344" stop-color="rgb(42.457581%, 50.500488%, 77.206421%)" stop-opacity="1"/>
<stop offset="0.53125" stop-color="rgb(41.967773%, 50.942993%, 77.55127%)" stop-opacity="1"/>
<stop offset="0.535156" stop-color="rgb(41.47644%, 51.383972%, 77.896118%)" stop-opacity="1"/>
<stop offset="0.539062" stop-color="rgb(40.986633%, 51.826477%, 78.240967%)" stop-opacity="1"/>
<stop offset="0.542969" stop-color="rgb(40.4953%, 52.267456%, 78.585815%)" stop-opacity="1"/>
<stop offset="0.546875" stop-color="rgb(40.005493%, 52.709961%, 78.930664%)" stop-opacity="1"/>
<stop offset="0.550781" stop-color="rgb(39.515686%, 53.15094%, 79.275513%)" stop-opacity="1"/>
<stop offset="0.554688" stop-color="rgb(39.025879%, 53.593445%, 79.620361%)" stop-opacity="1"/>
<stop offset="0.558594" stop-color="rgb(38.534546%, 54.034424%, 79.96521%)" stop-opacity="1"/>
<stop offset="0.5625" stop-color="rgb(38.044739%, 54.476929%, 80.310059%)" stop-opacity="1"/>
<stop offset="0.566406" stop-color="rgb(37.553406%, 54.919434%, 80.654907%)" stop-opacity="1"/>
<stop offset="0.570312" stop-color="rgb(37.063599%, 55.361938%, 80.999756%)" stop-opacity="1"/>
<stop offset="0.574219" stop-color="rgb(36.573792%, 55.802917%, 81.344604%)" stop-opacity="1"/>
<stop offset="0.578125" stop-color="rgb(36.083984%, 56.245422%, 81.689453%)" stop-opacity="1"/>
<stop offset="0.582031" stop-color="rgb(35.592651%, 56.686401%, 82.034302%)" stop-opacity="1"/>
<stop offset="0.585938" stop-color="rgb(35.102844%, 57.128906%, 82.37915%)" stop-opacity="1"/>
<stop offset="0.589844" stop-color="rgb(34.611511%, 57.569885%, 82.723999%)" stop-opacity="1"/>
<stop offset="0.59375" stop-color="rgb(34.121704%, 58.01239%, 83.068848%)" stop-opacity="1"/>
<stop offset="0.597656" stop-color="rgb(33.631897%, 58.453369%, 83.413696%)" stop-opacity="1"/>
<stop offset="0.601562" stop-color="rgb(33.14209%, 58.895874%, 83.758545%)" stop-opacity="1"/>
<stop offset="0.605469" stop-color="rgb(32.650757%, 59.336853%, 84.103394%)" stop-opacity="1"/>
<stop offset="0.609375" stop-color="rgb(32.16095%, 59.779358%, 84.448242%)" stop-opacity="1"/>
<stop offset="0.613281" stop-color="rgb(31.669617%, 60.220337%, 84.793091%)" stop-opacity="1"/>
<stop offset="0.617188" stop-color="rgb(31.17981%, 60.662842%, 85.137939%)" stop-opacity="1"/>
<stop offset="0.621094" stop-color="rgb(30.688477%, 61.103821%, 85.482788%)" stop-opacity="1"/>
<stop offset="0.625" stop-color="rgb(30.198669%, 61.546326%, 85.827637%)" stop-opacity="1"/>
<stop offset="0.628906" stop-color="rgb(29.708862%, 61.988831%, 86.172485%)" stop-opacity="1"/>
<stop offset="0.632812" stop-color="rgb(29.219055%, 62.431335%, 86.517334%)" stop-opacity="1"/>
<stop offset="0.636719" stop-color="rgb(28.727722%, 62.872314%, 86.862183%)" stop-opacity="1"/>
<stop offset="0.640625" stop-color="rgb(28.237915%, 63.314819%, 87.207031%)" stop-opacity="1"/>
<stop offset="0.644531" stop-color="rgb(27.746582%, 63.755798%, 87.55188%)" stop-opacity="1"/>
<stop offset="0.648437" stop-color="rgb(27.256775%, 64.198303%, 87.896729%)" stop-opacity="1"/>
<stop offset="0.652344" stop-color="rgb(26.766968%, 64.639282%, 88.241577%)" stop-opacity="1"/>
<stop offset="0.65625" stop-color="rgb(26.277161%, 65.081787%, 88.586426%)" stop-opacity="1"/>
<stop offset="0.660156" stop-color="rgb(25.785828%, 65.522766%, 88.931274%)" stop-opacity="1"/>
<stop offset="0.664062" stop-color="rgb(25.296021%, 65.965271%, 89.276123%)" stop-opacity="1"/>
<stop offset="0.667969" stop-color="rgb(24.804688%, 66.40625%, 89.620972%)" stop-opacity="1"/>
<stop offset="0.671875" stop-color="rgb(24.31488%, 66.848755%, 89.96582%)" stop-opacity="1"/>
<stop offset="0.675781" stop-color="rgb(23.825073%, 67.289734%, 90.310669%)" stop-opacity="1"/>
<stop offset="0.679688" stop-color="rgb(23.335266%, 67.732239%, 90.655518%)" stop-opacity="1"/>
<stop offset="0.683594" stop-color="rgb(22.843933%, 68.173218%, 91.000366%)" stop-opacity="1"/>
<stop offset="0.6875" stop-color="rgb(22.354126%, 68.615723%, 91.345215%)" stop-opacity="1"/>
<stop offset="0.691406" stop-color="rgb(21.862793%, 69.058228%, 91.690063%)" stop-opacity="1"/>
<stop offset="0.695312" stop-color="rgb(21.372986%, 69.500732%, 92.034912%)" stop-opacity="1"/>
<stop offset="0.699219" stop-color="rgb(20.883179%, 69.941711%, 92.379761%)" stop-opacity="1"/>
<stop offset="0.703125" stop-color="rgb(20.393372%, 70.384216%, 92.724609%)" stop-opacity="1"/>
<stop offset="0.707031" stop-color="rgb(19.902039%, 70.825195%, 93.069458%)" stop-opacity="1"/>
<stop offset="0.710938" stop-color="rgb(19.412231%, 71.2677%, 93.414307%)" stop-opacity="1"/>
<stop offset="0.714844" stop-color="rgb(18.920898%, 71.708679%, 93.759155%)" stop-opacity="1"/>
<stop offset="0.71875" stop-color="rgb(18.431091%, 72.151184%, 94.104004%)" stop-opacity="1"/>
<stop offset="0.722656" stop-color="rgb(17.941284%, 72.592163%, 94.448853%)" stop-opacity="1"/>
<stop offset="0.726562" stop-color="rgb(17.451477%, 73.034668%, 94.793701%)" stop-opacity="1"/>
<stop offset="0.730469" stop-color="rgb(16.960144%, 73.475647%, 95.13855%)" stop-opacity="1"/>
<stop offset="0.734375" stop-color="rgb(16.470337%, 73.918152%, 95.483398%)" stop-opacity="1"/>
<stop offset="0.738281" stop-color="rgb(15.979004%, 74.359131%, 95.828247%)" stop-opacity="1"/>
<stop offset="0.742187" stop-color="rgb(15.489197%, 74.801636%, 96.173096%)" stop-opacity="1"/>
<stop offset="0.746094" stop-color="rgb(14.99939%, 75.242615%, 96.516418%)" stop-opacity="1"/>
<stop offset="0.75" stop-color="rgb(14.509583%, 75.68512%, 96.861267%)" stop-opacity="1"/>
<stop offset="1" stop-color="rgb(14.509583%, 75.68512%, 96.861267%)" stop-opacity="1"/>
</linearGradient>
</defs>
<g clip-path="url(#clip-0)">
<path fill-rule="nonzero" fill="url(#linear-pattern-0)" d="M -1914.109375 1642.878906 L 1642.878906 5787.109375 L 5787.109375 2230.121094 L 2230.121094 -1914.109375 Z M -1914.109375 1642.878906 "/>
</g>
<path fill-rule="evenodd" fill="rgb(100%, 100%, 99.609375%)" fill-opacity="1" d="M 2333.601562 2427.898438 L 2184 2514.300781 C 2164.101562 2525.800781 2138.601562 2518.898438 2127.199219 2499 C 2115.800781 2479.101562 2122.699219 2453.699219 2142.5 2442.300781 L 2292 2356 L 2292 2056.300781 C 2292 2033.300781 2310.699219 2014.601562 2333.699219 2014.601562 C 2356.699219 2014.601562 2375.398438 2033.300781 2375.398438 2056.300781 L 2375.398438 2356 L 2524.800781 2442.300781 C 2544.601562 2453.699219 2551.5 2479.199219 2540.101562 2499 C 2528.699219 2518.898438 2503.199219 2525.800781 2483.300781 2514.300781 L 2333.601562 2427.898438 "/>
<path fill-rule="nonzero" fill="rgb(100%, 100%, 99.609375%)" fill-opacity="1" d="M 1824.699219 1502.898438 L 1824.699219 1402 C 1824.699219 1370.199219 1822.101562 1339.898438 1790.5 1324.300781 C 1769.398438 1313.800781 1741.199219 1312.300781 1718.101562 1314.800781 C 1697.800781 1317 1685.398438 1315.300781 1672.699219 1297.398438 C 1667.800781 1290.5 1665.101562 1282.898438 1664.5 1274.5 C 1663.898438 1267.199219 1665.101562 1260.5 1665.101562 1253.300781 L 1665.101562 978 L 1493.5 978 L 1493.5 1242.300781 C 1493.5 1260.101562 1496.699219 1285.101562 1485.101562 1299.699219 C 1472.601562 1315.398438 1449.300781 1315 1431.199219 1314 C 1409.601562 1312.800781 1384.101562 1315.199219 1364.898438 1325.898438 C 1336.101562 1342 1333.898438 1371.800781 1333.898438 1401.699219 L 1333.898438 1558.5 C 1348 1557.800781 1370.101562 1554.5 1376.699219 1553.699219 C 1411.5 1549.5 1446.101562 1545.601562 1481.199219 1548.898438 C 1522.601562 1552.800781 1559.699219 1566.398438 1591.5 1593.601562 C 1636.800781 1632.398438 1682.898438 1631.800781 1730.898438 1600.101562 C 1767.699219 1575.898438 1799.699219 1539.300781 1824.699219 1502.898438 Z M 1268.398438 2496 L 1268.398438 1401.800781 C 1268.398438 1345.199219 1280.699219 1298.199219 1333.101562 1268.898438 C 1365.800781 1250.601562 1403.300781 1247.800781 1428.101562 1248.5 C 1426.101562 1167.300781 1428 1083.300781 1428 1001.800781 L 1428 817.101562 C 1428 803.898438 1438.699219 793.300781 1451.800781 793.300781 L 1706.699219 793.300781 C 1719.898438 793.300781 1730.5 804 1730.5 817.101562 L 1730.5 1248.398438 C 1753.800781 1247.800781 1788.300781 1250.300781 1819.398438 1265.699219 C 1859.5 1285.601562 1893 1325 1890 1401.800781 L 1890.101562 2496 C 1890.101562 2509.199219 1879.398438 2519.800781 1866.300781 2519.800781 L 1292.101562 2519.800781 C 1279.101562 2519.898438 1268.398438 2509.199219 1268.398438 2496 "/>
<path fill-rule="nonzero" fill="rgb(100%, 100%, 99.609375%)" fill-opacity="1" d="M 2086.398438 1549.898438 L 2580.800781 1549.898438 C 2594 1549.898438 2604.601562 1560.601562 2604.601562 1573.699219 L 2604.601562 1820.898438 C 2604.601562 1895.5 2574.101562 1963.199219 2525 2012.300781 C 2475.898438 2061.398438 2408.101562 2091.898438 2333.601562 2091.898438 C 2261.5 2091.898438 2193.101562 2063.199219 2142.199219 2012.300781 C 2093.101562 1963.199219 2062.601562 1895.398438 2062.601562 1820.898438 L 2062.601562 1573.699219 C 2062.601562 1560.5 2073.300781 1549.898438 2086.398438 1549.898438 "/>
<path fill-rule="evenodd" fill="rgb(100%, 100%, 99.609375%)" fill-opacity="1" d="M 2289.5 2941.699219 L 2289.5 2730.5 L 2379.300781 2730.5 C 2401.898438 2730.5 2418.199219 2732.398438 2428.5 2736.199219 C 2438.699219 2740 2446.898438 2746.699219 2453.101562 2756.398438 C 2459.199219 2766.101562 2462.300781 2777.199219 2462.300781 2789.699219 C 2462.300781 2805.5 2457.601562 2818.699219 2448.300781 2829 C 2439 2839.300781 2425 2845.800781 2406.5 2848.5 C 2415.699219 2853.898438 2423.398438 2859.800781 2429.398438 2866.199219 C 2435.398438 2872.601562 2443.5 2884 2453.601562 2900.5 L 2479.398438 2941.699219 L 2428.398438 2941.699219 L 2397.601562 2895.699219 C 2386.601562 2879.300781 2379.199219 2869 2375.101562 2864.699219 C 2371.101562 2860.398438 2366.800781 2857.5 2362.300781 2855.898438 C 2357.800781 2854.300781 2350.601562 2853.5 2340.800781 2853.5 L 2332.199219 2853.5 L 2332.199219 2941.699219 Z M 1820 2941.699219 L 1902.300781 2730.5 L 1947.398438 2730.5 L 2032 2941.699219 L 1985.601562 2941.699219 L 1967.199219 2893.699219 L 1882.800781 2893.699219 L 1865.398438 2941.699219 Z M 1393.601562 2941.699219 L 1393.601562 2730.5 L 1478 2730.5 C 1494.699219 2730.5 1507.199219 2731.199219 1515.398438 2732.601562 C 1523.601562 2734 1530.898438 2736.898438 1537.398438 2741.300781 C 1543.898438 2745.699219 1549.199219 2751.601562 1553.601562 2758.898438 C 1557.898438 2766.199219 1560.101562 2774.5 1560.101562 2783.601562 C 1560.101562 2793.5 1557.398438 2802.601562 1552.101562 2810.800781 C 1546.699219 2819.101562 1539.5 2825.300781 1530.398438 2829.398438 C 1543.199219 2833.101562 1553.199219 2839.5 1560 2848.5 C 1566.898438 2857.5 1570.398438 2868.199219 1570.398438 2880.398438 C 1570.398438 2890 1568.199219 2899.300781 1563.699219 2908.398438 C 1559.199219 2917.398438 1553.101562 2924.699219 1545.398438 2930.101562 C 1537.699219 2935.5 1528.101562 2938.898438 1516.800781 2940.101562 C 1509.699219 2940.800781 1492.601562 2941.300781 1465.398438 2941.5 Z M 2952.800781 2592.601562 L 920.199219 2592.601562 C 907 2592.601562 896.398438 2603.300781 896.398438 2616.398438 L 896.398438 3055.898438 C 896.398438 3069.101562 907.101562 3079.699219 920.199219 3079.699219 L 2952.800781 3079.699219 C 2966 3079.699219 2976.601562 3069 2976.601562 3055.898438 L 2976.601562 2616.398438 C 2976.601562 2603.199219 2965.898438 2592.601562 2952.800781 2592.601562 "/>
<path fill-rule="evenodd" fill="rgb(100%, 100%, 99.609375%)" fill-opacity="1" d="M 2332.199219 2766.300781 L 2332.199219 2819.800781 L 2363.699219 2819.800781 C 2384.199219 2819.800781 2396.898438 2819 2402 2817.199219 C 2407.101562 2815.5 2411 2812.5 2413.898438 2808.300781 C 2416.800781 2804.101562 2418.199219 2798.800781 2418.199219 2792.5 C 2418.199219 2785.398438 2416.300781 2779.699219 2412.5 2775.300781 C 2408.699219 2770.898438 2403.398438 2768.199219 2396.398438 2767 C 2393 2766.601562 2382.601562 2766.300781 2365.300781 2766.300781 L 2332.199219 2766.300781 "/>
<path fill-rule="evenodd" fill="rgb(100%, 100%, 99.609375%)" fill-opacity="1" d="M 1953.398438 2858.199219 L 1924.300781 2779.800781 L 1895.699219 2858.199219 Z M 1953.398438 2858.199219 "/>
<path fill-rule="evenodd" fill="rgb(100%, 100%, 99.609375%)" fill-opacity="1" d="M 1512.398438 2806.300781 C 1516.601562 2802.101562 1518.601562 2796.601562 1518.601562 2789.800781 C 1518.601562 2783.300781 1516.800781 2778 1513.199219 2773.898438 C 1509.601562 2769.800781 1504.199219 2767.398438 1497.101562 2766.5 C 1492.898438 2766 1480.699219 2765.800781 1460.699219 2765.800781 L 1436.199219 2765.800781 L 1436.199219 2814.601562 L 1464.101562 2814.601562 C 1480.699219 2814.601562 1491 2814.398438 1495.101562 2813.898438 C 1502.5 2813 1508.199219 2810.398438 1512.398438 2806.300781 "/>
<path fill-rule="evenodd" fill="rgb(100%, 100%, 99.609375%)" fill-opacity="1" d="M 1508.5 2852.699219 C 1502.699219 2850.699219 1490.101562 2849.699219 1470.699219 2849.699219 L 1436.300781 2849.699219 L 1436.300781 2906.101562 L 1475.699219 2906.101562 C 1491.101562 2906.101562 1500.800781 2905.699219 1505 2904.800781 C 1511.300781 2903.699219 1516.5 2900.800781 1520.5 2896.398438 C 1524.5 2891.898438 1526.5 2885.898438 1526.5 2878.5 C 1526.5 2872.199219 1524.898438 2866.800781 1521.898438 2862.398438 C 1518.699219 2857.898438 1514.300781 2854.699219 1508.5 2852.699219 "/>
</svg>
