<?xml version="1.0" encoding="UTF-8"?>
<svg xmlns="http://www.w3.org/2000/svg" xmlns:xlink="http://www.w3.org/1999/xlink" width="2500" height="2500" viewBox="0 0 2500 2500">
<defs>
<clipPath id="clip-0">
<path clip-rule="nonzero" d="M 1006 519 L 1913 519 L 1913 1510 L 1006 1510 Z M 1006 519 "/>
</clipPath>
<clipPath id="clip-1">
<path clip-rule="evenodd" d="M 643.433594 1814.539062 C 631.464844 1799.542969 619.996094 1783.855469 609.105469 1767.515625 C 384.570312 1430.660156 489.445312 944.519531 843.164062 682.601562 C 1107.820312 486.628906 1437.269531 471.339844 1680.441406 617.148438 C 1680.960938 616.621094 1681.488281 616.101562 1682.019531 615.589844 C 1738.890625 559.910156 1817.5 551.671875 1857.46875 597.191406 C 1892.441406 637.03125 1886.289062 704.929688 1846.109375 758.570312 C 1861.921875 777.410156 1876.878906 797.351562 1890.890625 818.371094 C 2115.429688 1155.230469 2010.550781 1641.363281 1656.839844 1903.285156 C 1385.320312 2104.339844 1045.601562 2115.21875 800.84375 1957.082031 C 746.15625 1999.148438 678.429688 2001.9375 642.300781 1960.777344 C 610.550781 1924.609375 612.6875 1865.3125 643.433594 1814.539062 Z M 643.433594 1814.539062 "/>
</clipPath>
<clipPath id="clip-2">
<path clip-rule="nonzero" d="M 998 519 L 1921 519 L 1921 1518 L 998 1518 Z M 998 519 "/>
</clipPath>
<clipPath id="clip-3">
<path clip-rule="evenodd" d="M 643.433594 1814.539062 C 631.464844 1799.542969 619.996094 1783.855469 609.105469 1767.515625 C 384.570312 1430.660156 489.445312 944.519531 843.164062 682.601562 C 1107.820312 486.628906 1437.269531 471.339844 1680.441406 617.148438 C 1680.960938 616.621094 1681.488281 616.101562 1682.019531 615.589844 C 1738.890625 559.910156 1817.5 551.671875 1857.46875 597.191406 C 1892.441406 637.03125 1886.289062 704.929688 1846.109375 758.570312 C 1861.921875 777.410156 1876.878906 797.351562 1890.890625 818.371094 C 2115.429688 1155.230469 2010.550781 1641.363281 1656.839844 1903.285156 C 1385.320312 2104.339844 1045.601562 2115.21875 800.84375 1957.082031 C 746.15625 1999.148438 678.429688 2001.9375 642.300781 1960.777344 C 610.550781 1924.609375 612.6875 1865.3125 643.433594 1814.539062 Z M 643.433594 1814.539062 "/>
</clipPath>
<clipPath id="clip-4">
<path clip-rule="nonzero" d="M 946 1157 L 2001 1157 L 2001 2066 L 946 2066 Z M 946 1157 "/>
</clipPath>
<clipPath id="clip-5">
<path clip-rule="evenodd" d="M 643.433594 1814.539062 C 631.464844 1799.542969 619.996094 1783.855469 609.105469 1767.515625 C 384.570312 1430.660156 489.445312 944.519531 843.164062 682.601562 C 1107.820312 486.628906 1437.269531 471.339844 1680.441406 617.148438 C 1680.960938 616.621094 1681.488281 616.101562 1682.019531 615.589844 C 1738.890625 559.910156 1817.5 551.671875 1857.46875 597.191406 C 1892.441406 637.03125 1886.289062 704.929688 1846.109375 758.570312 C 1861.921875 777.410156 1876.878906 797.351562 1890.890625 818.371094 C 2115.429688 1155.230469 2010.550781 1641.363281 1656.839844 1903.285156 C 1385.320312 2104.339844 1045.601562 2115.21875 800.84375 1957.082031 C 746.15625 1999.148438 678.429688 2001.9375 642.300781 1960.777344 C 610.550781 1924.609375 612.6875 1865.3125 643.433594 1814.539062 Z M 643.433594 1814.539062 "/>
</clipPath>
<clipPath id="clip-6">
<path clip-rule="nonzero" d="M 936 1147 L 2010 1147 L 2010 2066 L 936 2066 Z M 936 1147 "/>
</clipPath>
<clipPath id="clip-7">
<path clip-rule="evenodd" d="M 643.433594 1814.539062 C 631.464844 1799.542969 619.996094 1783.855469 609.105469 1767.515625 C 384.570312 1430.660156 489.445312 944.519531 843.164062 682.601562 C 1107.820312 486.628906 1437.269531 471.339844 1680.441406 617.148438 C 1680.960938 616.621094 1681.488281 616.101562 1682.019531 615.589844 C 1738.890625 559.910156 1817.5 551.671875 1857.46875 597.191406 C 1892.441406 637.03125 1886.289062 704.929688 1846.109375 758.570312 C 1861.921875 777.410156 1876.878906 797.351562 1890.890625 818.371094 C 2115.429688 1155.230469 2010.550781 1641.363281 1656.839844 1903.285156 C 1385.320312 2104.339844 1045.601562 2115.21875 800.84375 1957.082031 C 746.15625 1999.148438 678.429688 2001.9375 642.300781 1960.777344 C 610.550781 1924.609375 612.6875 1865.3125 643.433594 1814.539062 Z M 643.433594 1814.539062 "/>
</clipPath>
<clipPath id="clip-8">
<path clip-rule="nonzero" d="M 490 519 L 1250 519 L 1250 1720 L 490 1720 Z M 490 519 "/>
</clipPath>
<clipPath id="clip-9">
<path clip-rule="evenodd" d="M 643.433594 1814.539062 C 631.464844 1799.542969 619.996094 1783.855469 609.105469 1767.515625 C 384.570312 1430.660156 489.445312 944.519531 843.164062 682.601562 C 1107.820312 486.628906 1437.269531 471.339844 1680.441406 617.148438 C 1680.960938 616.621094 1681.488281 616.101562 1682.019531 615.589844 C 1738.890625 559.910156 1817.5 551.671875 1857.46875 597.191406 C 1892.441406 637.03125 1886.289062 704.929688 1846.109375 758.570312 C 1861.921875 777.410156 1876.878906 797.351562 1890.890625 818.371094 C 2115.429688 1155.230469 2010.550781 1641.363281 1656.839844 1903.285156 C 1385.320312 2104.339844 1045.601562 2115.21875 800.84375 1957.082031 C 746.15625 1999.148438 678.429688 2001.9375 642.300781 1960.777344 C 610.550781 1924.609375 612.6875 1865.3125 643.433594 1814.539062 Z M 643.433594 1814.539062 "/>
</clipPath>
<clipPath id="clip-10">
<path clip-rule="nonzero" d="M 490 519 L 1261 519 L 1261 1730 L 490 1730 Z M 490 519 "/>
</clipPath>
<clipPath id="clip-11">
<path clip-rule="evenodd" d="M 643.433594 1814.539062 C 631.464844 1799.542969 619.996094 1783.855469 609.105469 1767.515625 C 384.570312 1430.660156 489.445312 944.519531 843.164062 682.601562 C 1107.820312 486.628906 1437.269531 471.339844 1680.441406 617.148438 C 1680.960938 616.621094 1681.488281 616.101562 1682.019531 615.589844 C 1738.890625 559.910156 1817.5 551.671875 1857.46875 597.191406 C 1892.441406 637.03125 1886.289062 704.929688 1846.109375 758.570312 C 1861.921875 777.410156 1876.878906 797.351562 1890.890625 818.371094 C 2115.429688 1155.230469 2010.550781 1641.363281 1656.839844 1903.285156 C 1385.320312 2104.339844 1045.601562 2115.21875 800.84375 1957.082031 C 746.15625 1999.148438 678.429688 2001.9375 642.300781 1960.777344 C 610.550781 1924.609375 612.6875 1865.3125 643.433594 1814.539062 Z M 643.433594 1814.539062 "/>
</clipPath>
<clipPath id="clip-12">
<path clip-rule="nonzero" d="M 649 926 L 1285 926 L 1285 1884 L 649 1884 Z M 649 926 "/>
</clipPath>
<clipPath id="clip-13">
<path clip-rule="evenodd" d="M 643.433594 1814.539062 C 631.464844 1799.542969 619.996094 1783.855469 609.105469 1767.515625 C 384.570312 1430.660156 489.445312 944.519531 843.164062 682.601562 C 1107.820312 486.628906 1437.269531 471.339844 1680.441406 617.148438 C 1680.960938 616.621094 1681.488281 616.101562 1682.019531 615.589844 C 1738.890625 559.910156 1817.5 551.671875 1857.46875 597.191406 C 1892.441406 637.03125 1886.289062 704.929688 1846.109375 758.570312 C 1861.921875 777.410156 1876.878906 797.351562 1890.890625 818.371094 C 2115.429688 1155.230469 2010.550781 1641.363281 1656.839844 1903.285156 C 1385.320312 2104.339844 1045.601562 2115.21875 800.84375 1957.082031 C 746.15625 1999.148438 678.429688 2001.9375 642.300781 1960.777344 C 610.550781 1924.609375 612.6875 1865.3125 643.433594 1814.539062 Z M 643.433594 1814.539062 "/>
</clipPath>
<clipPath id="clip-14">
<path clip-rule="nonzero" d="M 629 706 L 1414 706 L 1414 2066 L 629 2066 Z M 629 706 "/>
</clipPath>
<clipPath id="clip-15">
<path clip-rule="evenodd" d="M 643.433594 1814.539062 C 631.464844 1799.542969 619.996094 1783.855469 609.105469 1767.515625 C 384.570312 1430.660156 489.445312 944.519531 843.164062 682.601562 C 1107.820312 486.628906 1437.269531 471.339844 1680.441406 617.148438 C 1680.960938 616.621094 1681.488281 616.101562 1682.019531 615.589844 C 1738.890625 559.910156 1817.5 551.671875 1857.46875 597.191406 C 1892.441406 637.03125 1886.289062 704.929688 1846.109375 758.570312 C 1861.921875 777.410156 1876.878906 797.351562 1890.890625 818.371094 C 2115.429688 1155.230469 2010.550781 1641.363281 1656.839844 1903.285156 C 1385.320312 2104.339844 1045.601562 2115.21875 800.84375 1957.082031 C 746.15625 1999.148438 678.429688 2001.9375 642.300781 1960.777344 C 610.550781 1924.609375 612.6875 1865.3125 643.433594 1814.539062 Z M 643.433594 1814.539062 "/>
</clipPath>
<clipPath id="clip-16">
<path clip-rule="nonzero" d="M 540 789 L 1227 789 L 1227 2066 L 540 2066 Z M 540 789 "/>
</clipPath>
<clipPath id="clip-17">
<path clip-rule="evenodd" d="M 643.433594 1814.539062 C 631.464844 1799.542969 619.996094 1783.855469 609.105469 1767.515625 C 384.570312 1430.660156 489.445312 944.519531 843.164062 682.601562 C 1107.820312 486.628906 1437.269531 471.339844 1680.441406 617.148438 C 1680.960938 616.621094 1681.488281 616.101562 1682.019531 615.589844 C 1738.890625 559.910156 1817.5 551.671875 1857.46875 597.191406 C 1892.441406 637.03125 1886.289062 704.929688 1846.109375 758.570312 C 1861.921875 777.410156 1876.878906 797.351562 1890.890625 818.371094 C 2115.429688 1155.230469 2010.550781 1641.363281 1656.839844 1903.285156 C 1385.320312 2104.339844 1045.601562 2115.21875 800.84375 1957.082031 C 746.15625 1999.148438 678.429688 2001.9375 642.300781 1960.777344 C 610.550781 1924.609375 612.6875 1865.3125 643.433594 1814.539062 Z M 643.433594 1814.539062 "/>
</clipPath>
</defs>
<path fill-rule="evenodd" fill="rgb(99.609375%, 90.234375%, 22.801208%)" fill-opacity="1" d="M 643.433594 1814.539062 C 631.464844 1799.542969 619.996094 1783.855469 609.105469 1767.515625 C 384.570312 1430.660156 489.445312 944.519531 843.164062 682.601562 C 1107.820312 486.628906 1437.269531 471.339844 1680.441406 617.148438 C 1680.960938 616.621094 1681.488281 616.101562 1682.019531 615.589844 C 1738.890625 559.910156 1817.5 551.671875 1857.46875 597.191406 C 1892.441406 637.03125 1886.289062 704.929688 1846.109375 758.570312 C 1861.921875 777.410156 1876.878906 797.351562 1890.890625 818.371094 C 2115.429688 1155.230469 2010.550781 1641.363281 1656.839844 1903.285156 C 1385.320312 2104.339844 1045.601562 2115.21875 800.84375 1957.082031 C 746.15625 1999.148438 678.429688 2001.9375 642.300781 1960.777344 C 610.550781 1924.609375 612.6875 1865.3125 643.433594 1814.539062 "/>
<g clip-path="url(#clip-0)">
<g clip-path="url(#clip-1)">
<path fill-rule="evenodd" fill="rgb(96.484375%, 85.15625%, 13.110352%)" fill-opacity="1" d="M 1541.160156 833.699219 C 1539.289062 836.28125 1537.519531 838.890625 1535.839844 841.519531 C 1410.800781 1037.421875 1447.378906 1316.300781 1585.78125 1509.230469 C 1860.878906 1287.109375 1959.148438 1131.601562 1891.441406 816.890625 C 1881.5 770.679688 1857.570312 704.238281 1857.859375 651.761719 C 1858.628906 651.609375 1859.398438 651.46875 1860.171875 651.320312 C 1867.46875 649.960938 1882.300781 648.640625 1882.300781 648.640625 C 1882.300781 648.640625 1874.199219 644.519531 1866.230469 641.199219 C 1863.648438 640.128906 1861.089844 639.128906 1858.53125 638.210938 C 1858.828125 635.148438 1859.238281 632.160156 1859.761719 629.230469 C 1863.238281 609.519531 1867.078125 589.5 1873.058594 570.058594 C 1875.539062 562.03125 1882.300781 546.328125 1882.300781 546.328125 C 1882.300781 546.328125 1872.828125 552.910156 1864.371094 559.699219 C 1838.238281 580.679688 1821.738281 603.371094 1803.121094 624.890625 C 1791.488281 622.648438 1779.980469 620.179688 1768.46875 616.28125 C 1697.710938 592.339844 1617.25 523.769531 1541.339844 519.058594 C 1344.78125 506.859375 1125.730469 640.46875 1006.230469 812.460938 C 1220.449219 900.921875 1363.820312 922.75 1541.160156 833.699219 "/>
</g>
</g>
<g clip-path="url(#clip-2)">
<g clip-path="url(#clip-3)">
<path fill-rule="evenodd" fill="rgb(96.484375%, 85.15625%, 13.110352%)" fill-opacity="1" d="M 1519.351562 853.039062 C 1462.460938 950.691406 1443.011719 1066.730469 1454.441406 1182.179688 C 1466.140625 1300.25 1510.148438 1417.671875 1579.210938 1513.941406 C 1580.511719 1515.746094 1582.488281 1516.941406 1584.691406 1517.238281 C 1586.898438 1517.535156 1589.121094 1516.914062 1590.851562 1515.519531 C 1722.828125 1408.949219 1814.300781 1317.460938 1866.71875 1216.78125 C 1924.769531 1105.269531 1935.320312 982.410156 1899.339844 815.199219 C 1892.410156 782.96875 1878.660156 740.898438 1871.101562 700.601562 C 1868.398438 686.230469 1866.5 672.078125 1866.050781 658.730469 L 1883.011719 656.691406 C 1886.601562 656.371094 1889.550781 653.710938 1890.230469 650.179688 C 1890.921875 646.640625 1889.171875 643.070312 1885.960938 641.441406 L 1869.328125 633.738281 L 1867.390625 632.988281 L 1867.710938 630.640625 C 1869.789062 618.921875 1871.980469 607.078125 1874.691406 595.328125 C 1876.46875 587.640625 1878.460938 579.988281 1880.789062 572.441406 C 1881.550781 569.941406 1882.761719 566.671875 1884.039062 563.398438 C 1886.730469 556.460938 1889.71875 549.53125 1889.71875 549.53125 C 1891.140625 546.21875 1890.199219 542.359375 1887.410156 540.078125 C 1884.621094 537.789062 1880.648438 537.640625 1877.691406 539.699219 L 1859.308594 553.398438 C 1849.101562 561.601562 1840.308594 570.050781 1832.289062 578.601562 C 1820.589844 591.058594 1810.558594 603.71875 1800.058594 616.058594 C 1795.871094 615.21875 1791.699219 614.328125 1787.53125 613.320312 C 1782.03125 612 1776.539062 610.480469 1771.058594 608.628906 C 1722.449219 592.179688 1669.289062 554.539062 1616.148438 531.261719 C 1591.230469 520.339844 1566.300781 512.519531 1541.839844 511 C 1439.988281 504.679688 1332.160156 536.789062 1234.898438 593.101562 C 1141.988281 646.890625 1058.738281 722.71875 999.597656 807.851562 C 998.199219 809.859375 997.789062 812.390625 998.480469 814.738281 C 999.171875 817.078125 1000.890625 818.988281 1003.148438 819.921875 C 1104.851562 861.921875 1190.75 888.949219 1271.808594 896.511719 C 1355.421875 904.320312 1433.960938 891.539062 1519.351562 853.039062 Z M 1864.660156 569.941406 C 1862.511719 577.128906 1860.628906 584.398438 1858.949219 591.699219 C 1856.171875 603.71875 1853.921875 615.828125 1851.800781 627.820312 L 1850.488281 637.429688 C 1850.210938 640.339844 1851.519531 643.121094 1853.820312 644.769531 C 1851.390625 646.171875 1849.800781 648.789062 1849.789062 651.71875 C 1849.691406 668.019531 1851.851562 685.628906 1855.21875 703.578125 C 1862.800781 744.019531 1876.589844 786.261719 1883.550781 818.589844 C 1918.539062 981.269531 1908.871094 1100.839844 1852.390625 1209.320312 C 1801.710938 1306.660156 1713.648438 1395.011719 1587.390625 1497.53125 C 1522.808594 1404.859375 1481.660156 1293.03125 1470.519531 1180.578125 C 1458.820312 1062.46875 1480.230469 943.660156 1542.640625 845.871094 L 1547.710938 838.429688 C 1549.890625 835.410156 1549.730469 831.300781 1547.308594 828.460938 C 1544.898438 825.628906 1540.859375 824.808594 1537.539062 826.480469 C 1445.191406 872.851562 1362.21875 888.71875 1273.308594 880.429688 C 1196.140625 873.21875 1114.558594 847.929688 1018.691406 808.828125 C 1076.101562 728.941406 1155.140625 657.941406 1242.988281 607.078125 C 1337.398438 552.429688 1441.988281 520.988281 1540.839844 527.128906 C 1563.5 528.53125 1586.570312 535.941406 1609.671875 546.058594 C 1663.230469 569.53125 1716.878906 607.359375 1765.878906 623.929688 C 1770.640625 625.539062 1775.398438 626.921875 1780.171875 628.148438 C 1787.28125 629.96875 1794.410156 631.441406 1801.589844 632.820312 C 1804.421875 633.371094 1807.339844 632.359375 1809.230469 630.179688 C 1820.730469 616.890625 1831.398438 603.148438 1844.070312 589.660156 C 1850.320312 583 1857.058594 576.390625 1864.660156 569.941406 "/>
</g>
</g>
<g clip-path="url(#clip-4)">
<g clip-path="url(#clip-5)">
<path fill-rule="evenodd" fill="rgb(96.484375%, 85.15625%, 13.110352%)" fill-opacity="1" d="M 1997.710938 1157.941406 C 1994.511719 1168.871094 1994.460938 1185.261719 1994.300781 1187.949219 C 1990.359375 1256.148438 1962.851562 1330.25 1935.199219 1392.671875 C 1933.578125 1396.320312 1921.78125 1421.859375 1920.019531 1425.511719 C 1814.320312 1644.828125 1617.859375 1835.445312 1397.46875 1943.273438 C 1303.410156 1989.289062 1200.660156 2017.5625 1096.210938 2027.855469 C 1061.878906 2031.238281 1027.441406 2030.347656 993.058594 2032.316406 C 988.003906 2032.605469 944.429688 2037.875 946.34375 2039.453125 C 1007.320312 2089.71875 1302.378906 2074.535156 1374.011719 2058.207031 C 1463.699219 2037.765625 1550.609375 2000.9375 1631.039062 1957.230469 C 1861.191406 1832.167969 1932.050781 1684.609375 1975.671875 1438.621094 C 1991.921875 1346.988281 2007.800781 1251.238281 1997.710938 1157.941406 "/>
</g>
</g>
<g clip-path="url(#clip-6)">
<g clip-path="url(#clip-7)">
<path fill-rule="evenodd" fill="rgb(96.484375%, 85.15625%, 13.110352%)" fill-opacity="1" d="M 2007.699219 1156.859375 C 2007.191406 1152.089844 2003.371094 1148.351562 1998.601562 1147.929688 C 1993.820312 1147.5 1989.410156 1150.511719 1988.058594 1155.109375 C 1986.859375 1159.210938 1986.03125 1163.96875 1985.46875 1168.640625 C 1984.449219 1177.269531 1984.378906 1185.5 1984.269531 1187.371094 C 1982.71875 1214.199219 1977.410156 1241.960938 1969.878906 1269.539062 C 1958.589844 1310.878906 1942.308594 1351.789062 1926.011719 1388.601562 L 1910.96875 1421.148438 C 1858.46875 1530.082031 1783.351562 1631.855469 1693.988281 1719.742188 C 1605.050781 1807.21875 1502 1880.941406 1393.050781 1934.242188 C 1346.539062 1957 1297.871094 1975.363281 1247.921875 1989.3125 C 1198.011719 2003.246094 1146.828125 2012.769531 1095.230469 2017.855469 C 1085.121094 2018.851562 1075 2019.46875 1064.878906 2019.898438 C 1040.761719 2020.921875 1016.609375 2020.902344 992.484375 2022.28125 C 988.394531 2022.515625 959.867188 2025.902344 948.667969 2028.144531 C 945.007812 2028.878906 942.53125 2029.816406 941.582031 2030.351562 C 937.53125 2032.632812 936.625 2035.910156 936.335938 2037.894531 C 935.882812 2041.039062 936.519531 2044.382812 939.949219 2047.210938 C 950.964844 2056.289062 968.886719 2063.679688 991.664062 2069.152344 C 1024.550781 2077.050781 1068.011719 2081.335938 1114.191406 2083.011719 C 1217.480469 2086.761719 1334.46875 2077.527344 1376.25 2068.007812 C 1421.578125 2057.675781 1466.210938 2043.210938 1509.671875 2025.800781 C 1553.050781 2008.421875 1595.261719 1988.113281 1635.839844 1966.0625 C 1752.019531 1902.929688 1828.140625 1834.03125 1880.859375 1750.144531 C 1934.03125 1665.554688 1963.359375 1565.59375 1985.570312 1440.371094 C 1995.371094 1385.101562 2005.03125 1328.328125 2009.011719 1271.488281 C 2011.691406 1233.171875 2011.808594 1194.808594 2007.699219 1156.859375 Z M 1988.351562 1278.128906 C 1984.109375 1331.570312 1975 1384.878906 1965.78125 1436.859375 C 1944.089844 1559.136719 1915.761719 1656.847656 1863.839844 1739.445312 C 1812.761719 1820.722656 1738.808594 1887.234375 1626.238281 1948.402344 C 1586.351562 1970.082031 1544.839844 1990.058594 1502.191406 2007.140625 C 1459.710938 2024.160156 1416.089844 2038.308594 1371.78125 2048.40625 C 1330.828125 2057.742188 1216.148438 2066.597656 1114.921875 2062.925781 C 1070.230469 2061.304688 1028.179688 2057.253906 996.359375 2049.609375 C 989.480469 2047.957031 983.101562 2046.160156 977.324219 2044.183594 C 985.089844 2043.199219 991.847656 2042.453125 993.632812 2042.351562 C 1017.660156 2040.976562 1041.710938 2041 1065.730469 2039.980469 C 1076.230469 2039.53125 1086.71875 2038.890625 1097.199219 2037.855469 C 1149.960938 2032.65625 1202.300781 2022.917969 1253.320312 2008.671875 C 1304.449219 1994.394531 1354.269531 1975.59375 1401.878906 1952.300781 C 1512.738281 1898.066406 1617.589844 1823.074219 1708.078125 1734.074219 C 1799.109375 1644.546875 1875.589844 1540.84375 1929.078125 1429.871094 L 1944.390625 1396.738281 C 1960.648438 1360.039062 1976.839844 1319.328125 1988.351562 1278.128906 "/>
</g>
</g>
<g clip-path="url(#clip-8)">
<g clip-path="url(#clip-9)">
<path fill-rule="evenodd" fill="rgb(96.484375%, 85.15625%, 13.110352%)" fill-opacity="1" d="M 1250 519.921875 C 1239.839844 525.320312 1223.589844 528.839844 1220.949219 529.558594 C 1154.140625 547.808594 1086.46875 590.011719 1030.421875 629.859375 C 1027.140625 632.191406 1004.300781 648.96875 1001.058594 651.441406 C 805.914062 799.699219 658.480469 1029.261719 598.246094 1264.328125 C 572.539062 1364.648438 566.277344 1469.570312 578.203125 1572.320312 C 582.125 1606.089844 590.308594 1639.0625 595.644531 1672.585938 C 596.429688 1677.511719 600.441406 1720.589844 598.46875 1719.078125 C 535.683594 1671.019531 488.199219 1383.710938 489.210938 1311.269531 C 490.476562 1220.578125 508.582031 1129.101562 534.886719 1042.390625 C 610.152344 794.289062 741.5 694.78125 976.261719 600.628906 C 1063.699219 565.558594 1155.308594 529.980469 1250 519.921875 "/>
</g>
</g>
<g clip-path="url(#clip-10)">
<g clip-path="url(#clip-11)">
<path fill-rule="evenodd" fill="rgb(96.484375%, 85.15625%, 13.110352%)" fill-opacity="1" d="M 1254.71875 528.789062 C 1258.96875 526.53125 1261.019531 521.578125 1259.609375 516.96875 C 1258.199219 512.371094 1253.730469 509.410156 1248.941406 509.921875 C 1210.46875 514.011719 1172.511719 522.230469 1135.109375 532.921875 C 1079.570312 548.808594 1025.289062 570.140625 972.519531 591.300781 C 853.960938 638.851562 761.558594 687.878906 689.191406 756.160156 C 616.28125 824.949219 563.5625 913.238281 525.269531 1039.46875 C 512.007812 1083.191406 500.816406 1128.101562 492.773438 1173.519531 C 484.699219 1219.121094 479.800781 1265.230469 479.160156 1311.128906 C 478.570312 1353.441406 494.25 1468.28125 519.917969 1567.046875 C 531.398438 1611.207031 544.886719 1652.160156 559.722656 1682.128906 C 569.953125 1702.796875 581.050781 1718.402344 592.359375 1727.058594 C 595.679688 1729.597656 598.917969 1729.59375 601.769531 1728.648438 C 603.757812 1727.988281 606.863281 1726.453125 608.328125 1721.960938 C 608.667969 1720.921875 609.101562 1718.277344 609.050781 1714.507812 C 608.902344 1703.238281 606.207031 1675 605.570312 1671.003906 C 601.828125 1647.484375 596.6875 1624.234375 592.589844 1600.789062 C 590.871094 1590.960938 589.339844 1581.097656 588.1875 1571.160156 C 582.292969 1520.378906 580.890625 1469.058594 584.144531 1418.039062 C 587.390625 1367.050781 595.285156 1316.371094 607.980469 1266.820312 C 637.886719 1150.128906 689.484375 1034.800781 757.832031 930.28125 C 825.917969 826.160156 910.632812 732.761719 1007.140625 659.441406 L 1036.238281 638.050781 C 1069.351562 614.511719 1106.550781 590.128906 1145.21875 570.480469 C 1170.960938 557.410156 1197.339844 546.429688 1223.601562 539.261719 C 1225.429688 538.761719 1233.558594 536.941406 1241.890625 534.128906 C 1246.390625 532.621094 1250.921875 530.808594 1254.71875 528.789062 Z M 1131.578125 554.890625 C 1093.640625 574.570312 1057.171875 598.511719 1024.589844 621.671875 L 994.976562 643.429688 C 896.679688 718.121094 810.359375 813.230469 741.011719 919.28125 C 671.441406 1025.671875 618.945312 1143.058594 588.511719 1261.828125 C 575.503906 1312.589844 567.414062 1364.519531 564.085938 1416.761719 C 560.757812 1468.980469 562.1875 1521.503906 568.222656 1573.476562 C 569.421875 1583.796875 571.007812 1594.042969 572.789062 1604.25 C 576.867188 1627.59375 581.992188 1650.746094 585.722656 1674.164062 C 586.003906 1675.941406 586.71875 1682.847656 587.402344 1690.734375 C 584.128906 1685.507812 580.914062 1679.628906 577.734375 1673.210938 C 563.402344 1644.257812 550.460938 1604.65625 539.371094 1561.992188 C 514.234375 1465.269531 498.683594 1352.839844 499.261719 1311.410156 C 499.886719 1266.578125 504.683594 1221.558594 512.566406 1177.03125 C 520.46875 1132.398438 531.472656 1088.261719 544.503906 1045.308594 C 581.589844 923.058594 632.378906 837.398438 702.984375 770.78125 C 773.699219 704.058594 864.152344 656.421875 980 609.960938 C 1029.261719 590.199219 1079.851562 570.269531 1131.578125 554.890625 "/>
</g>
</g>
<g clip-path="url(#clip-12)">
<g clip-path="url(#clip-13)">
<path fill-rule="evenodd" fill="rgb(100%, 92.771912%, 40.795898%)" fill-opacity="1" d="M 691.507812 1883.3125 C 694.621094 1881.679688 652.03125 1712.199219 649.914062 1643.664062 C 644.550781 1470.128906 707.988281 1295.730469 840.808594 1135.898438 C 890.136719 1076.539062 949.695312 1014.398438 1035.660156 966.609375 C 1206.300781 871.75 1348.058594 959.980469 1254.480469 1059.308594 C 1147.558594 1172.808594 1003.949219 1271.269531 916.710938 1396.25 C 818.433594 1537.035156 756.566406 1707.453125 691.507812 1883.3125 "/>
</g>
</g>
<g clip-path="url(#clip-14)">
<g clip-path="url(#clip-15)">
<path fill-rule="evenodd" fill="rgb(98.242188%, 95.701599%, 77.146912%)" fill-opacity="1" d="M 773.371094 706.078125 L 629.660156 771.351562 C 629.660156 771.351562 729.875 1227.988281 856.792969 1493.390625 C 1010.039062 1813.847656 1269.628906 2139.09375 1269.628906 2139.09375 L 1413.339844 2073.820312 C 1413.339844 2073.820312 1156.101562 1747.507812 1000.5 1428.109375 C 871.652344 1163.628906 773.371094 706.078125 773.371094 706.078125 "/>
</g>
</g>
<g clip-path="url(#clip-16)">
<g clip-path="url(#clip-17)">
<path fill-rule="evenodd" fill="rgb(98.242188%, 95.701599%, 77.146912%)" fill-opacity="1" d="M 586.230469 789.691406 L 540.738281 810.359375 C 540.738281 810.359375 663.953125 1268.210938 789.328125 1534.3125 C 940.714844 1855.617188 1180.710938 2178.097656 1180.710938 2178.097656 L 1226.210938 2157.433594 C 1226.210938 2157.433594 986.953125 1834.613281 834.820312 1513.648438 C 708.84375 1247.859375 586.230469 789.691406 586.230469 789.691406 "/>
</g>
</g>
<path fill-rule="evenodd" fill="rgb(96.484375%, 79.6875%, 12.889099%)" fill-opacity="1" d="M 629.570312 1815.542969 C 616.675781 1838.992188 609.414062 1863.851562 608.121094 1887.476562 C 606.433594 1918.222656 614.816406 1946.910156 633.652344 1968.367188 C 655.507812 1993.265625 687.539062 2004.148438 722.144531 2001.234375 C 748.277344 1999.035156 775.914062 1988.898438 801.308594 1971.027344 C 929.148438 2051.488281 1081.730469 2087.207031 1237.03125 2075.214844 C 1382.980469 2063.945312 1531.328125 2010.542969 1663.679688 1912.535156 C 1838.191406 1783.3125 1952.910156 1600.21875 1998.441406 1406.960938 C 2046.519531 1202.871094 2017.449219 987.488281 1900.46875 811.988281 C 1893.390625 801.371094 1886.078125 791.03125 1878.539062 780.960938 C 1872.699219 773.160156 1866.71875 765.519531 1860.621094 758.050781 C 1877.371094 733.390625 1887.578125 706.359375 1890.769531 680.371094 C 1894.988281 645.949219 1886.949219 613.339844 1866.109375 589.601562 C 1846.230469 566.949219 1817.941406 555.910156 1786.921875 556.28125 C 1751.289062 556.71875 1711.910156 572.410156 1678.78125 602.808594 C 1552.03125 529.039062 1402.960938 497.730469 1251.808594 511.621094 C 1109.480469 524.691406 965.300781 577.839844 836.316406 673.351562 C 661.808594 802.578125 547.09375 985.671875 501.5625 1178.929688 C 453.484375 1383.011719 482.546875 1598.398438 599.53125 1773.898438 C 605.035156 1782.15625 610.6875 1790.253906 616.472656 1798.179688 C 620.765625 1804.0625 625.132812 1809.847656 629.570312 1815.542969 Z M 653.277344 1820.5 C 655.777344 1816.375 655.4375 1811.128906 652.429688 1807.359375 C 646.511719 1799.949219 640.71875 1792.363281 635.0625 1784.613281 C 629.46875 1776.949219 624.003906 1769.121094 618.683594 1761.136719 C 505.253906 1590.96875 477.347656 1382.089844 523.964844 1184.210938 C 568.304688 995.988281 680.058594 817.699219 850.011719 691.851562 C 975.410156 598.988281 1115.539062 547.25 1253.921875 534.539062 C 1403.128906 520.828125 1550.28125 552.519531 1674.519531 627.019531 C 1679.050781 629.738281 1684.859375 629.019531 1688.589844 625.28125 L 1690.070312 623.808594 C 1714.128906 600.25 1742.308594 585.710938 1769.449219 580.980469 C 1800.230469 575.609375 1829.640625 582.941406 1848.820312 604.78125 C 1865.488281 623.769531 1871.308594 650.03125 1867.929688 677.558594 C 1864.859375 702.511719 1854.25 728.5 1836.898438 751.671875 C 1833.691406 755.949219 1833.859375 761.878906 1837.289062 765.96875 C 1845.121094 775.289062 1852.730469 784.878906 1860.109375 794.75 C 1867.398438 804.488281 1874.480469 814.488281 1881.320312 824.75 C 1994.75 994.921875 2022.648438 1203.800781 1976.039062 1401.679688 C 1931.699219 1589.894531 1819.941406 1768.191406 1649.988281 1894.039062 C 1521.320312 1989.316406 1377.140625 2041.316406 1235.261719 2052.269531 C 1082.339844 2064.078125 932.113281 2028.195312 807.089844 1947.417969 C 803 1944.777344 797.6875 1944.992188 793.828125 1947.960938 C 770.488281 1965.914062 744.632812 1976.246094 720.214844 1978.300781 C 693.203125 1980.574219 668.003906 1972.617188 650.949219 1953.1875 C 635.972656 1936.128906 629.757812 1913.179688 631.101562 1888.738281 C 632.332031 1866.257812 639.941406 1842.523438 653.277344 1820.5 "/>
<path fill-rule="evenodd" fill="rgb(38.305664%, 63.476562%, 28.393555%)" fill-opacity="1" d="M 1006.230469 750.199219 C 1266.871094 857.839844 1422.628906 866.828125 1662.328125 697.46875 C 1702.800781 668.878906 1760.03125 616.929688 1807.71875 602.589844 C 1824.921875 597.421875 1842.480469 592.378906 1860.171875 589.070312 C 1867.46875 587.699219 1882.300781 586.390625 1882.300781 586.390625 C 1882.300781 586.390625 1874.199219 582.269531 1866.230469 578.949219 C 1831.949219 564.671875 1800.21875 564.769531 1768.46875 554.03125 C 1697.710938 530.078125 1617.25 461.519531 1541.339844 456.808594 C 1344.78125 444.609375 1125.730469 578.210938 1006.230469 750.199219 "/>
<path fill-rule="evenodd" fill="rgb(28.393555%, 54.492188%, 18.089294%)" fill-opacity="1" d="M 998.644531 744.941406 C 997.050781 747.230469 996.582031 750.128906 997.371094 752.808594 C 998.160156 755.488281 1000.121094 757.671875 1002.710938 758.738281 C 1135.179688 813.449219 1240.921875 842.730469 1344.058594 836.851562 C 1446.539062 831.011719 1546.589844 790.550781 1667.648438 705.019531 C 1691.53125 688.148438 1721.25 663.128906 1751.398438 642.53125 C 1771.449219 628.828125 1791.660156 617.070312 1810.378906 611.441406 C 1820.570312 608.378906 1830.878906 605.359375 1841.28125 602.730469 C 1848.109375 601 1854.980469 599.441406 1861.859375 598.148438 L 1883.109375 595.589844 C 1887.21875 595.230469 1890.578125 592.191406 1891.371094 588.140625 C 1892.148438 584.101562 1890.160156 580.03125 1886.488281 578.160156 L 1869.78125 570.421875 C 1859.519531 566.148438 1849.488281 563.101562 1839.609375 560.671875 C 1816.28125 554.941406 1793.851562 552.871094 1771.429688 545.28125 C 1722.851562 528.839844 1669.71875 491.21875 1616.609375 467.949219 C 1591.558594 456.96875 1566.5 449.121094 1541.910156 447.589844 C 1439.851562 441.261719 1331.789062 473.421875 1234.320312 529.851562 C 1141.261719 583.71875 1057.878906 659.679688 998.644531 744.941406 Z M 1847.960938 582.148438 C 1844.210938 582.980469 1840.46875 583.878906 1836.738281 584.820312 C 1826.089844 587.519531 1815.511719 590.609375 1805.058594 593.75 C 1789.378906 598.460938 1772.679688 607.011719 1755.871094 617.511719 C 1720.679688 639.519531 1684.871094 670.230469 1656.988281 689.929688 C 1539.460938 772.96875 1442.511719 812.738281 1343 818.410156 C 1245.089844 823.988281 1144.859375 796.679688 1020.480469 746.070312 C 1077.738281 666.789062 1156.300781 596.359375 1243.570312 545.828125 C 1337.769531 491.300781 1442.128906 459.910156 1540.769531 466.03125 C 1563.308594 467.429688 1586.230469 474.800781 1609.199219 484.871094 C 1662.800781 508.351562 1716.480469 546.191406 1765.511719 562.78125 C 1788.441406 570.539062 1811.351562 572.75 1835.199219 578.609375 C 1839.421875 579.648438 1843.671875 580.808594 1847.960938 582.148438 "/>
<path fill-rule="evenodd" fill="rgb(38.305664%, 63.476562%, 28.393555%)" fill-opacity="1" d="M 1595.070312 1415.839844 C 1818.609375 1245.480469 1903.328125 1116.398438 1871.949219 827.449219 C 1866.648438 778.660156 1848.988281 703.988281 1859.839844 656.039062 C 1863.761719 638.75 1867.960938 621.210938 1873.75 604.421875 C 1876.148438 597.488281 1882.300781 584.128906 1882.300781 584.128906 C 1882.300781 584.128906 1874.671875 589.039062 1867.800781 594.238281 C 1838.300781 616.578125 1822.738281 643.828125 1797.601562 665.75 C 1741.570312 714.601562 1641.359375 749.761719 1599.78125 812.511719 C 1492.109375 974.988281 1502.101562 1228.621094 1595.070312 1415.839844 "/>
<path fill-rule="evenodd" fill="rgb(28.393555%, 54.492188%, 18.089294%)" fill-opacity="1" d="M 1586.730469 1419.980469 C 1587.960938 1422.46875 1590.238281 1424.28125 1592.949219 1424.910156 C 1595.660156 1425.539062 1598.511719 1424.941406 1600.710938 1423.25 C 1714.058594 1336.878906 1791.960938 1260.808594 1837.679688 1169.808594 C 1883.371094 1078.851562 1897.121094 972.878906 1881.210938 826.441406 C 1877.589844 793.148438 1868.171875 747.761719 1866.089844 707.121094 C 1865.191406 689.300781 1865.679688 672.441406 1868.929688 658.101562 C 1871.238281 647.859375 1873.660156 637.539062 1876.460938 627.339844 C 1878.300781 620.640625 1880.308594 613.988281 1882.558594 607.460938 L 1890.761719 588.019531 C 1892.488281 584.261719 1891.53125 579.808594 1888.410156 577.089844 C 1885.28125 574.378906 1880.738281 574.050781 1877.261719 576.289062 L 1862.179688 586.808594 C 1853.359375 593.488281 1845.71875 600.578125 1838.710938 607.851562 C 1822.128906 625.03125 1809.238281 643.238281 1791.480469 658.730469 C 1753.078125 692.210938 1693.78125 719.171875 1647.078125 753.148438 C 1624.929688 769.269531 1605.539062 786.960938 1592.019531 807.359375 C 1535.929688 892 1511.039062 1000.898438 1512.960938 1112.640625 C 1514.78125 1218.738281 1540.738281 1327.378906 1586.730469 1419.980469 Z M 1861.671875 611.46875 C 1860.550781 615.089844 1859.5 618.738281 1858.488281 622.410156 C 1855.621094 632.878906 1853.128906 643.480469 1850.761719 653.988281 C 1847.171875 669.808594 1846.480469 688.410156 1847.488281 708.070312 C 1849.578125 749.070312 1859.039062 794.871094 1862.691406 828.449219 C 1878.109375 970.441406 1865.339844 1073.261719 1821.03125 1161.449219 C 1777.640625 1247.808594 1704.199219 1320.070312 1598.460938 1401.5 C 1556.761719 1313.578125 1533.289062 1211.800781 1531.589844 1112.320312 C 1529.738281 1004.488281 1553.421875 899.328125 1607.550781 817.660156 C 1619.921875 798.988281 1637.78125 782.960938 1658.050781 768.210938 C 1705.179688 733.910156 1764.960938 706.570312 1803.730469 672.769531 C 1821.898438 656.929688 1835.148438 638.359375 1852.109375 620.789062 C 1855.148438 617.640625 1858.320312 614.53125 1861.671875 611.46875 "/>
<path fill-rule="evenodd" fill="rgb(38.305664%, 63.476562%, 28.393555%)" fill-opacity="1" d="M 1861.328125 602.550781 C 1861.289062 602.53125 1882.289062 557.179688 1887.589844 541.890625 C 1903.089844 497.191406 1901.929688 477.511719 1893.441406 434.019531 "/>
<path fill-rule="evenodd" fill="rgb(28.393555%, 54.492188%, 18.089294%)" fill-opacity="1" d="M 1885.160156 612.621094 L 1885.160156 612.628906 C 1885.160156 612.628906 1886.441406 609.839844 1887.609375 607.261719 C 1893.710938 593.878906 1907.75 562.699219 1912.03125 550.371094 C 1920.648438 525.488281 1924.519531 507.378906 1925.308594 489.628906 C 1926.121094 471.53125 1923.640625 453.730469 1918.828125 429.070312 C 1916.089844 415.058594 1902.5 405.898438 1888.488281 408.628906 C 1874.46875 411.371094 1865.308594 424.96875 1868.050781 438.980469 C 1871.898438 458.691406 1874.269531 472.871094 1873.628906 487.328125 C 1873.019531 500.828125 1869.699219 514.511719 1863.140625 533.421875 C 1859.199219 544.789062 1846.148438 573.480469 1840.53125 585.808594 C 1839.328125 588.429688 1838.460938 590.351562 1838.039062 591.269531 C 1837.839844 591.71875 1837.699219 592.03125 1837.640625 592.171875 C 1827.960938 614.429688 1850.488281 626.039062 1851.019531 626.28125 C 1864.109375 631.96875 1879.371094 625.960938 1885.058594 612.871094 L 1885.160156 612.621094 "/>
<path fill-rule="evenodd" fill="rgb(100%, 100%, 100%)" fill-opacity="1" d="M 851.308594 1861.515625 C 850.644531 1860.21875 849.914062 1859.542969 849.300781 1860.777344 L 849.734375 1861.105469 L 849.921875 1861.273438 C 850.214844 1861.300781 850.546875 1861.320312 850.796875 1861.386719 L 851.308594 1861.515625 C 851.917969 1862.703125 852.46875 1864.410156 852.820312 1865.640625 C 852.253906 1863.910156 851.234375 1862.417969 849.921875 1861.273438 C 849.476562 1861.242188 849.113281 1861.195312 849.214844 1860.953125 L 849.300781 1860.777344 C 847.132812 1859.144531 844.308594 1858.398438 841.433594 1858.9375 C 835.976562 1859.960938 832.378906 1865.222656 833.402344 1870.679688 C 833.730469 1872.941406 836.765625 1878.183594 844.710938 1881.003906 C 856.664062 1885.25 888.371094 1890.671875 891.789062 1891.347656 C 941.140625 1900.757812 988.765625 1906.296875 1035.339844 1906.695312 C 1084.640625 1907.117188 1132.648438 1902.214844 1179.710938 1892.800781 C 1217.390625 1885.261719 1254.589844 1874.886719 1291.210938 1861.128906 C 1343.429688 1841.515625 1394.300781 1815.203125 1445.890625 1784.699219 C 1450.480469 1782.246094 1452.210938 1776.523438 1449.761719 1771.929688 C 1447.300781 1767.339844 1441.578125 1765.605469 1436.980469 1768.058594 C 1384.300781 1793.398438 1332.191406 1813.125 1280.289062 1829.46875 C 1244.5 1840.738281 1208.851562 1850.292969 1172.691406 1857.410156 C 1127.671875 1866.269531 1082.03125 1871.414062 1034.929688 1872.972656 C 989.945312 1874.457031 943.722656 1873.273438 895.539062 1867.371094 C 892.347656 1867.003906 863.140625 1864.527344 851.308594 1861.515625 "/>
<path fill-rule="evenodd" fill="rgb(100%, 100%, 100%)" fill-opacity="1" d="M 1558.078125 1699.972656 C 1559.421875 1699.703125 1561.269531 1699.304688 1562.589844 1698.925781 C 1565.878906 1697.988281 1568.539062 1696.363281 1570.539062 1695.222656 C 1574.941406 1692.550781 1579.191406 1690.007812 1583.460938 1687.109375 C 1587.640625 1684.261719 1591.539062 1681.160156 1595.589844 1678.125 C 1600.78125 1673.597656 1606.070312 1669.199219 1611.03125 1664.433594 C 1615.980469 1659.679688 1620.828125 1654.828125 1625.300781 1649.632812 C 1628.019531 1646.46875 1630.460938 1643.21875 1632.871094 1639.8125 C 1638.640625 1631.6875 1643.378906 1623.699219 1648.828125 1615.347656 C 1652.539062 1611.691406 1652.589844 1605.714844 1648.929688 1602.003906 C 1645.28125 1598.292969 1639.300781 1598.25 1635.589844 1601.90625 C 1627.171875 1607.222656 1619.128906 1611.867188 1610.921875 1617.488281 C 1607.511719 1619.824219 1604.230469 1622.160156 1601.039062 1624.78125 C 1595.820312 1629.054688 1590.898438 1633.664062 1586.03125 1638.320312 C 1581.171875 1642.953125 1576.621094 1647.878906 1571.851562 1652.609375 L 1553.050781 1674.855469 C 1550.851562 1677.625 1544.738281 1681.289062 1542.671875 1683.835938 C 1540.25 1686.820312 1538.390625 1689.09375 1538.410156 1691.375 C 1538.429688 1694.378906 1537.949219 1697.433594 1540.328125 1699.765625 C 1541.480469 1700.882812 1542.488281 1702.796875 1545 1703.519531 C 1549.660156 1705.914062 1555.328125 1704.3125 1558.078125 1699.972656 "/>
<path fill-rule="evenodd" fill="rgb(100%, 100%, 100%)" fill-opacity="1" d="M 956.355469 886.5 C 956.59375 886.660156 956.429688 886.910156 956.09375 887.210938 L 956.007812 887.460938 L 956.039062 887.261719 L 956.09375 887.210938 L 956.171875 886.96875 L 956.355469 886.5 L 956.347656 886.488281 C 956.0625 886.308594 956.078125 886.898438 956.039062 887.261719 C 955.589844 887.660156 954.878906 888.148438 954.417969 888.640625 C 950.894531 892.410156 944.890625 897.699219 937.390625 904.101562 C 912.535156 925.289062 871.539062 957.019531 843.605469 980.558594 C 829.4375 992.5 818.609375 1002.660156 813.898438 1008.359375 C 795.171875 1031.710938 778.042969 1055.96875 762.800781 1081.28125 C 739.871094 1119.359375 720.496094 1159.390625 704.554688 1200.820312 C 694 1228.238281 685.035156 1256.28125 677.234375 1284.679688 C 665.601562 1327.019531 656.875 1370.050781 649.097656 1413.089844 C 647.9375 1418.171875 651.121094 1423.230469 656.199219 1424.390625 C 661.277344 1425.550781 666.339844 1422.359375 667.496094 1417.289062 C 681.15625 1367.5 697.339844 1318.261719 715.359375 1269.679688 C 727.261719 1237.589844 739.960938 1205.859375 754.375 1174.910156 C 766.328125 1149.25 779.257812 1124.070312 793.582031 1099.578125 C 807.769531 1075.328125 823.089844 1051.628906 840.292969 1028.960938 C 853.785156 1010.371094 931.0625 943.378906 960.800781 912.378906 C 969.464844 903.351562 974.464844 896.320312 975.246094 893.359375 C 976.871094 888.050781 973.882812 882.421875 968.574219 880.789062 C 963.59375 879.269531 958.332031 881.800781 956.355469 886.5 "/>
<path fill-rule="evenodd" fill="rgb(100%, 100%, 100%)" fill-opacity="1" d="M 630.105469 1520.992188 C 630.566406 1521.066406 630.761719 1521.441406 630.765625 1522.054688 L 631.15625 1522.59375 C 631.382812 1522.847656 631.605469 1523.097656 631.828125 1523.347656 L 632.105469 1523.613281 L 631.628906 1523.257812 L 630.71875 1522.605469 L 630.757812 1522.324219 L 630.765625 1522.054688 L 630.570312 1521.789062 L 630.105469 1520.992188 C 630.019531 1520.976562 629.925781 1520.972656 629.824219 1520.976562 C 628.695312 1521.054688 629.628906 1521.828125 630.71875 1522.605469 C 630.378906 1525.433594 627.527344 1531.472656 626.402344 1537.039062 C 625.238281 1542.816406 623.597656 1549.214844 622.554688 1556.386719 C 621.183594 1565.800781 620.1875 1576.066406 619.832031 1586.125 C 619.59375 1592.769531 619.738281 1599.25 620.316406 1605.390625 C 621.480469 1617.78125 623.828125 1627.761719 625.519531 1635.089844 C 625.519531 1640.296875 629.75 1644.527344 634.957031 1644.527344 C 640.164062 1644.527344 644.394531 1640.296875 644.394531 1635.089844 C 645.355469 1631.238281 646.902344 1626.945312 648.421875 1621.472656 C 650.183594 1615.136719 652.445312 1608.363281 653.933594 1600.589844 C 655.242188 1593.75 655.863281 1586.480469 656.445312 1579.257812 C 656.839844 1574.402344 656.996094 1569.558594 657.054688 1564.839844 C 657.101562 1560.820312 657.097656 1556.929688 656.855469 1553.171875 C 656.433594 1546.535156 655.683594 1540.628906 654.824219 1535.335938 C 652.28125 1519.707031 648.238281 1510.039062 645.402344 1508.53125 C 641.121094 1504.996094 634.777344 1505.601562 631.238281 1509.882812 C 628.574219 1513.109375 628.261719 1517.507812 630.105469 1520.992188 "/>
<path fill-rule="evenodd" fill="rgb(28.196716%, 54.492188%, 17.993164%)" fill-opacity="1" d="M 1063.949219 726.691406 C 1062.429688 726.808594 1060.980469 727.621094 1060.101562 729.011719 C 1058.910156 730.828125 1059.238281 732.429688 1059.671875 733.578125 C 1060.101562 734.738281 1061.289062 736.789062 1064.519531 736.789062 C 1064.898438 736.789062 1065.839844 736.660156 1067.140625 736.28125 C 1070.378906 735.320312 1078.421875 732.289062 1079.289062 731.890625 C 1106.320312 719.75 1134.28125 709.179688 1162.640625 699.511719 C 1205.199219 685 1248.679688 672.660156 1291.558594 661.140625 C 1330.160156 650.421875 1370.730469 640.308594 1412.328125 631.011719 C 1452.300781 622.078125 1493.261719 614.101562 1534.410156 607.300781 C 1567.238281 601.878906 1600.179688 597.179688 1632.890625 593.628906 C 1683.570312 588.121094 1733.628906 585.148438 1781.761719 586.261719 C 1784.359375 586.371094 1786.558594 584.339844 1786.671875 581.738281 C 1786.78125 579.140625 1784.761719 576.941406 1782.160156 576.828125 C 1733.578125 573.839844 1682.871094 574.550781 1631.488281 578.511719 C 1598.339844 581.070312 1564.921875 584.921875 1531.660156 589.949219 C 1490.050781 596.230469 1448.699219 604.320312 1408.378906 613.429688 C 1366.488281 622.890625 1325.75 633.660156 1286.941406 644.78125 C 1244.050781 657.488281 1200.511719 670.890625 1158.089844 686.761719 C 1129.660156 697.398438 1101.761719 709.171875 1074.820312 722.371094 C 1074.050781 722.75 1066.96875 725.679688 1064.101562 726.640625 Z M 1069.269531 730.640625 C 1069.488281 731.691406 1069.390625 732.800781 1068.910156 733.808594 C 1069.488281 732.601562 1069.488281 731.53125 1069.269531 730.640625 Z M 1068.5 728.851562 L 1068.550781 728.929688 L 1068.539062 728.910156 Z M 1065.421875 726.789062 C 1067.019531 727.03125 1067.941406 727.949219 1068.480469 728.820312 C 1068.109375 728.28125 1067.628906 727.808594 1067.039062 727.441406 C 1066.53125 727.121094 1065.980469 726.898438 1065.421875 726.789062 "/>
<path fill-rule="evenodd" fill="rgb(28.196716%, 54.492188%, 17.993164%)" fill-opacity="1" d="M 1614.871094 1368.679688 L 1614.859375 1368.679688 C 1614.570312 1368.621094 1614.640625 1368.261719 1614.851562 1367.710938 C 1614.828125 1367.511719 1614.800781 1367.308594 1614.75 1367.109375 C 1614.761719 1367.179688 1614.839844 1367.339844 1614.921875 1367.539062 L 1614.851562 1367.710938 C 1614.890625 1368.039062 1614.898438 1368.359375 1614.871094 1368.679688 C 1615.421875 1368.78125 1615.140625 1368.039062 1614.921875 1367.539062 C 1615.21875 1366.808594 1615.71875 1365.828125 1616.058594 1364.820312 C 1617.449219 1360.699219 1619.851562 1354.121094 1623.089844 1345.421875 C 1633.089844 1318.519531 1651.210938 1271.570312 1672.691406 1214.078125 C 1682.878906 1186.808594 1693.851562 1157.179688 1704.988281 1126.171875 C 1719.179688 1086.679688 1733.71875 1044.988281 1747.730469 1003.28125 C 1761.851562 961.238281 1775.46875 919.191406 1787.460938 879.28125 C 1794.148438 857 1800.269531 835.359375 1805.789062 814.800781 C 1823.898438 747.421875 1835.429688 691.5 1835.519531 660.511719 C 1835.570312 657.910156 1833.511719 655.75 1830.898438 655.691406 C 1828.300781 655.628906 1826.140625 657.699219 1826.078125 660.300781 C 1824.878906 689.609375 1811.839844 741.078125 1793.171875 803.488281 C 1782.71875 838.441406 1770.421875 876.761719 1757.421875 916.539062 C 1739.339844 971.878906 1719.769531 1029.988281 1700.738281 1085.339844 C 1691.441406 1112.398438 1682.339844 1138.820312 1673.699219 1163.960938 C 1658.378906 1208.53125 1644.480469 1249.070312 1633.160156 1281.960938 C 1620.710938 1318.140625 1611.53125 1345.089844 1607.429688 1358.089844 C 1606.148438 1362.128906 1605.339844 1364.898438 1605.058594 1366.28125 C 1604.710938 1367.949219 1604.859375 1369.03125 1604.96875 1369.460938 C 1605.621094 1372.160156 1608.328125 1373.820312 1611.03125 1373.171875 C 1613.199219 1372.648438 1614.710938 1370.789062 1614.871094 1368.679688 "/>
<path fill-rule="evenodd" fill="rgb(28.196716%, 54.492188%, 17.993164%)" fill-opacity="1" d="M 1312.941406 642.960938 L 1312.949219 642.949219 C 1313.070312 642.601562 1312.738281 642.621094 1312.359375 642.730469 C 1312.46875 642.800781 1312.578125 642.871094 1312.671875 642.929688 L 1312.941406 642.960938 C 1312.910156 643.050781 1312.808594 643.011719 1312.671875 642.929688 C 1312.320312 642.898438 1311.960938 642.910156 1311.609375 642.960938 C 1311.769531 642.921875 1312.078125 642.800781 1312.359375 642.730469 C 1312.269531 642.671875 1312.179688 642.609375 1312.101562 642.578125 C 1307.949219 640.808594 1297.921875 635.71875 1297.019531 635.308594 C 1287.839844 631.308594 1278.71875 626.929688 1269.269531 623.050781 C 1262.199219 620.148438 1254.980469 617.539062 1247.710938 615.101562 C 1240.359375 612.640625 1232.941406 610.359375 1225.410156 608.621094 C 1218.609375 607.050781 1211.761719 605.871094 1204.859375 605.128906 C 1194.398438 604.019531 1184.019531 603.921875 1173.5 604.679688 C 1170.898438 604.621094 1168.730469 606.679688 1168.671875 609.28125 C 1168.601562 611.890625 1170.671875 614.050781 1173.269531 614.121094 C 1185.539062 615.570312 1197.25 618.820312 1209.121094 622.238281 C 1214.609375 623.820312 1220.089844 625.421875 1225.578125 627.078125 C 1233.859375 629.589844 1242.109375 632.230469 1250.339844 634.941406 C 1255.898438 636.769531 1261.441406 638.609375 1267.011719 640.339844 C 1275.558594 643 1284.078125 645.371094 1292.53125 647.78125 C 1293.5 648.03125 1304.398438 651.378906 1308.851562 652.441406 C 1310.121094 652.738281 1311.039062 652.949219 1311.488281 652.96875 C 1314.351562 653.050781 1315.761719 651.761719 1316.230469 651.03125 C 1317.941406 648.851562 1317.550781 645.679688 1315.359375 643.980469 C 1314.640625 643.410156 1313.800781 643.070312 1312.941406 642.960938 Z M 1311.5 642.96875 C 1310.351562 643.039062 1309.578125 643.558594 1309.019531 644.101562 C 1309.738281 643.488281 1310.601562 643.109375 1311.5 642.96875 "/>
<path fill-rule="evenodd" fill="rgb(28.196716%, 54.492188%, 17.993164%)" fill-opacity="1" d="M 1475.960938 602.441406 C 1471.601562 601.441406 1466.519531 597.839844 1460.949219 593.589844 C 1454.011719 588.289062 1446.761719 581.671875 1440.019531 575.96875 C 1434.089844 570.949219 1428.5 566.710938 1424.101562 564.121094 C 1414.75 558.941406 1405.289062 554.148438 1395.601562 550.019531 C 1385.820312 545.859375 1375.878906 542.191406 1365.730469 539.199219 C 1359.640625 537.410156 1353.5 535.878906 1347.28125 534.578125 C 1332.929688 531.578125 1318.398438 529.738281 1303.578125 528.390625 C 1301.011719 527.96875 1298.578125 529.710938 1298.148438 532.28125 C 1297.730469 534.851562 1299.46875 537.28125 1302.039062 537.699219 C 1316.488281 541.179688 1330.410156 545.589844 1344.300781 550.210938 C 1353.519531 553.269531 1362.628906 556.511719 1371.710938 559.949219 C 1386.671875 565.609375 1401.519531 571.71875 1415.910156 579.351562 C 1419.871094 581.289062 1424.851562 584.730469 1430.371094 588.550781 C 1437.851562 593.730469 1446.140625 599.550781 1453.910156 604.089844 C 1461.558594 608.570312 1468.710938 611.828125 1474.339844 612.371094 C 1477.078125 612.820312 1479.671875 610.949219 1480.109375 608.210938 C 1480.558594 605.46875 1478.699219 602.890625 1475.960938 602.441406 "/>
<path fill-rule="evenodd" fill="rgb(28.196716%, 54.492188%, 17.993164%)" fill-opacity="1" d="M 1607.609375 589.839844 C 1603.828125 577.429688 1595.019531 564.050781 1582.878906 550.960938 C 1576.390625 543.949219 1568.890625 537.109375 1560.828125 530.539062 C 1555.128906 525.890625 1549.101562 521.421875 1542.921875 517.179688 C 1533.628906 510.800781 1524.050781 504.808594 1514.539062 499.621094 C 1509.519531 496.878906 1504.519531 494.441406 1499.621094 492.171875 C 1485.988281 485.851562 1473.421875 481.078125 1463.371094 477.851562 C 1460.960938 476.859375 1458.210938 478.011719 1457.21875 480.421875 C 1456.230469 482.828125 1457.378906 485.589844 1459.789062 486.578125 C 1468.890625 491.160156 1480 497.859375 1492.25 505.648438 C 1496.660156 508.449219 1501.148438 511.410156 1505.808594 514.390625 C 1514.601562 520 1523.730469 525.878906 1532.648438 532.058594 C 1538.519531 536.140625 1544.339844 540.289062 1549.96875 544.488281 C 1557.800781 550.308594 1565.230469 556.210938 1571.949219 562.148438 C 1583.78125 572.621094 1593.480469 582.910156 1598.199219 593.378906 C 1599.179688 595.980469 1602.078125 597.300781 1604.679688 596.320312 C 1607.269531 595.351562 1608.589844 592.441406 1607.609375 589.839844 "/>
<path fill-rule="evenodd" fill="rgb(28.196716%, 54.492188%, 17.993164%)" fill-opacity="1" d="M 1203.769531 691.210938 C 1206.03125 691.191406 1208.058594 689.628906 1208.601562 687.328125 C 1209.230469 684.628906 1207.539062 681.921875 1204.839844 681.289062 C 1202.871094 680.570312 1201.191406 680.890625 1199.71875 681.199219 C 1197.121094 681.761719 1195.390625 683.828125 1193.910156 686.730469 C 1192.589844 689.320312 1192.03125 693.328125 1191.53125 697.691406 C 1191.078125 701.558594 1190.828125 705.730469 1189.511719 708.308594 C 1187.320312 713.140625 1184.96875 717.898438 1182.820312 722.789062 C 1179.660156 729.96875 1176.488281 737.171875 1173.320312 744.359375 C 1171.921875 747.539062 1170.640625 750.738281 1169.300781 753.949219 C 1167.269531 758.820312 1165.410156 763.609375 1163.128906 768.359375 C 1162.070312 770.570312 1161.039062 772.71875 1159.890625 774.890625 C 1158.359375 777 1158.828125 779.949219 1160.929688 781.480469 C 1163.039062 783.011719 1165.988281 782.539062 1167.519531 780.441406 C 1172.601562 775.148438 1177.199219 769.71875 1181.53125 763.820312 C 1183.371094 761.308594 1185.121094 758.78125 1186.710938 756.109375 C 1190.628906 749.539062 1193.941406 742.601562 1196.910156 735.550781 C 1199.859375 728.570312 1202.191406 721.378906 1204.679688 714.289062 C 1205.75 710.570312 1205.910156 705.320312 1205.378906 700.058594 C 1205.089844 697.238281 1203.410156 692.78125 1203.769531 691.210938 Z M 1203.820312 691.058594 C 1203.941406 690.71875 1204.199219 690.578125 1204.640625 690.679688 C 1204.851562 690.730469 1204.210938 690.71875 1204.101562 690.859375 C 1204.019531 690.949219 1203.921875 691.011719 1203.820312 691.058594 "/>
<path fill-rule="evenodd" fill="rgb(28.196716%, 54.492188%, 17.993164%)" fill-opacity="1" d="M 1394.578125 637.769531 C 1394.828125 637.429688 1395.039062 637.058594 1395.199219 636.648438 C 1396.21875 634.070312 1394.949219 631.148438 1392.371094 630.128906 C 1390.640625 629.289062 1389.171875 629.730469 1387.949219 630.179688 C 1386.839844 630.578125 1385.988281 631.519531 1385.21875 632.78125 C 1384.621094 633.769531 1384.011719 637.589844 1384.011719 637.589844 C 1384.011719 637.589844 1384.019531 637.390625 1384.058594 637.308594 C 1380.378906 646.519531 1376.660156 655.578125 1372.808594 664.671875 C 1370.28125 670.621094 1367.730469 676.539062 1364.941406 682.421875 C 1361.191406 691.03125 1357.25 699.460938 1353.421875 707.890625 C 1349.558594 716.390625 1345.621094 724.808594 1341.800781 733.269531 C 1338.730469 740.070312 1335.78125 746.890625 1332.769531 753.730469 C 1328.261719 763.980469 1323.890625 774.21875 1319.011719 784.488281 C 1317.699219 786.738281 1318.460938 789.640625 1320.710938 790.949219 C 1322.960938 792.261719 1325.851562 791.5 1327.160156 789.25 C 1333.808594 779.789062 1340.230469 770.46875 1346.199219 760.78125 C 1350.199219 754.28125 1354.019531 747.71875 1357.570312 740.988281 C 1362 732.601562 1366.011719 723.988281 1369.871094 715.269531 C 1373.691406 706.640625 1377.171875 697.828125 1380.671875 688.921875 C 1382.929688 682.519531 1385.039062 676.140625 1386.898438 669.648438 C 1389.648438 660.019531 1391.941406 650.359375 1394.320312 640.589844 C 1394.460938 639.988281 1394.539062 638.699219 1394.578125 637.769531 "/>
<path fill-rule="evenodd" fill="rgb(28.196716%, 54.492188%, 17.993164%)" fill-opacity="1" d="M 1545.53125 595.148438 C 1542.308594 598.589844 1539.648438 603.378906 1537.230469 608.738281 C 1532.710938 618.761719 1529.371094 631.03125 1525.03125 638.859375 C 1519.398438 649.699219 1513.519531 660.378906 1507.820312 671.160156 C 1501.859375 682.46875 1495.96875 693.808594 1489.96875 705.101562 C 1487.410156 709.941406 1484.839844 714.769531 1482.328125 719.640625 C 1479.53125 725.050781 1476.800781 730.46875 1474.050781 735.921875 C 1467.609375 748.640625 1461.261719 761.300781 1454.398438 773.851562 C 1452.988281 776.039062 1453.628906 778.960938 1455.820312 780.371094 C 1458.011719 781.769531 1460.929688 781.128906 1462.339844 778.941406 C 1471.601562 766.5 1480.679688 754.078125 1489.109375 741.121094 C 1494.710938 732.480469 1500.019531 723.671875 1505.089844 714.71875 C 1511.421875 703.539062 1517.378906 692.148438 1523.039062 680.609375 C 1528.679688 669.101562 1533.839844 657.359375 1539.058594 645.621094 C 1542.640625 636.988281 1544.808594 623.910156 1548.269531 612.960938 C 1549.648438 608.570312 1551.121094 604.53125 1553.289062 601.550781 C 1555.058594 599.410156 1554.75 596.238281 1552.609375 594.46875 C 1550.46875 592.710938 1547.300781 593.011719 1545.53125 595.148438 "/>
<path fill-rule="evenodd" fill="rgb(28.196716%, 54.492188%, 17.993164%)" fill-opacity="1" d="M 1794.78125 790.621094 C 1789.660156 795.261719 1783.480469 799.078125 1776.859375 802.609375 C 1767.648438 807.53125 1757.550781 811.589844 1747.910156 815.761719 C 1740.789062 818.839844 1733.96875 822 1727.808594 825.308594 C 1716.800781 831.539062 1705.929688 837.878906 1695.410156 844.679688 C 1684.769531 851.570312 1674.371094 858.761719 1664.460938 866.539062 C 1656.488281 872.808594 1648.851562 879.441406 1641.46875 886.410156 C 1630.480469 896.789062 1620.230469 907.898438 1610.429688 919.699219 C 1608.648438 921.589844 1608.738281 924.578125 1610.628906 926.359375 C 1612.53125 928.148438 1615.519531 928.058594 1617.300781 926.160156 C 1631.761719 912.539062 1647.191406 900.621094 1663.019531 889.128906 C 1667.769531 885.679688 1672.519531 882.25 1677.308594 878.851562 C 1684.488281 873.761719 1691.75 868.769531 1699.089844 863.859375 C 1711.300781 855.730469 1723.710938 847.78125 1736.46875 840.21875 C 1750.328125 831.351562 1768.328125 823.511719 1783.371094 813.429688 C 1790.460938 808.679688 1796.898438 803.488281 1802.089844 797.589844 L 1803.25 795.871094 C 1804.398438 793.351562 1803.28125 790.359375 1800.75 789.210938 C 1798.628906 788.25 1796.179688 788.878906 1794.78125 790.621094 "/>
<path fill-rule="evenodd" fill="rgb(28.196716%, 54.492188%, 17.993164%)" fill-opacity="1" d="M 1748.019531 949.359375 C 1746.980469 949.429688 1745.308594 949.261719 1744.238281 949.371094 C 1741.128906 949.699219 1738.03125 950.261719 1735.839844 951.230469 C 1727.46875 954.980469 1719.230469 959 1711.109375 963.328125 C 1703.019531 967.640625 1695.140625 972.261719 1687.300781 976.890625 C 1677.371094 983.128906 1667.5 989.46875 1657.890625 996.199219 C 1648.28125 1002.941406 1638.808594 1009.890625 1629.699219 1017.289062 C 1622.390625 1023.210938 1615.351562 1029.410156 1608.449219 1035.800781 C 1598.101562 1045.398438 1588.300781 1055.429688 1578.640625 1065.71875 C 1576.730469 1067.5 1576.628906 1070.488281 1578.398438 1072.390625 C 1580.179688 1074.300781 1583.160156 1074.398438 1585.070312 1072.628906 C 1597.960938 1062.101562 1611.351562 1052.378906 1624.761719 1042.519531 C 1633.648438 1035.988281 1642.550781 1029.488281 1651.488281 1023.011719 C 1666.371094 1012.230469 1681.25 1001.410156 1696.628906 991.328125 C 1705.351562 985.160156 1714.238281 979.128906 1723.25 973.28125 C 1729.238281 969.390625 1735.21875 965.558594 1741.359375 961.949219 C 1742.859375 961.058594 1745.269531 960.679688 1747.449219 960.171875 C 1750.269531 959.5 1752.851562 958.738281 1754.46875 957.570312 C 1757.300781 955.539062 1758.910156 952.980469 1757.878906 949.230469 C 1757.308594 946.519531 1754.640625 944.769531 1751.929688 945.339844 C 1749.871094 945.78125 1748.371094 947.410156 1748.019531 949.359375 Z M 1748.179688 949.339844 C 1748.769531 949.28125 1749.089844 949.121094 1748.878906 948.730469 C 1748.609375 948.25 1748.339844 948.671875 1748.179688 949.339844 "/>
<path fill-rule="evenodd" fill="rgb(28.196716%, 54.492188%, 17.993164%)" fill-opacity="1" d="M 1685.839844 1115.699219 C 1685.710938 1115.71875 1685.609375 1116.058594 1685.539062 1116.5 C 1684.738281 1116.699219 1683.269531 1116.640625 1682.46875 1116.871094 C 1680.828125 1117.339844 1679.351562 1118.050781 1678.140625 1118.828125 C 1667.078125 1126.101562 1656.089844 1133.480469 1645.609375 1141.710938 C 1635.191406 1149.890625 1625.230469 1158.691406 1615.660156 1167.890625 C 1608.011719 1175.25 1600.578125 1182.851562 1593.660156 1190.871094 C 1583.210938 1203.011719 1573.988281 1215.929688 1564.859375 1228.910156 C 1563.199219 1230.910156 1563.480469 1233.890625 1565.488281 1235.550781 C 1567.488281 1237.210938 1570.46875 1236.929688 1572.128906 1234.921875 C 1582.960938 1223.738281 1594.441406 1213.269531 1605.859375 1202.46875 C 1610.371094 1198.210938 1614.789062 1193.859375 1619.25 1189.53125 C 1625.929688 1183.070312 1632.648438 1176.628906 1639.421875 1170.261719 C 1645.449219 1164.578125 1651.519531 1158.96875 1657.570312 1153.339844 C 1666.730469 1144.808594 1675.730469 1136.261719 1685.171875 1128.171875 C 1687.28125 1126.320312 1691.46875 1125.410156 1693.179688 1123.519531 C 1694.679688 1121.851562 1695.730469 1119.988281 1695.429688 1117.558594 C 1695.300781 1114.78125 1692.941406 1112.640625 1690.171875 1112.769531 C 1688.230469 1112.871094 1686.601562 1114.050781 1685.839844 1115.699219 Z M 1685.839844 1115.699219 L 1685.691406 1116.058594 L 1685.550781 1116.488281 L 1685.539062 1116.5 L 1685.5 1116.710938 L 1685.539062 1116.53125 L 1685.550781 1116.488281 C 1685.96875 1116.390625 1686.191406 1116.210938 1686.03125 1115.871094 C 1685.960938 1115.738281 1685.898438 1115.679688 1685.839844 1115.699219 "/>
<path fill-rule="evenodd" fill="rgb(28.196716%, 54.492188%, 17.993164%)" fill-opacity="1" d="M 1683.589844 1198.878906 C 1683.539062 1198.539062 1683.460938 1198.199219 1683.339844 1197.859375 C 1682.410156 1195.238281 1679.53125 1193.871094 1676.921875 1194.800781 C 1673.929688 1195.429688 1673.28125 1197.660156 1672.761719 1199.390625 C 1672.371094 1200.640625 1672.820312 1202.140625 1673.628906 1203.929688 C 1674.421875 1205.679688 1677.648438 1208.511719 1678.449219 1210.5 L 1685 1228.699219 C 1687.25 1234.011719 1689.21875 1239.410156 1691.238281 1244.761719 C 1692.578125 1248.320312 1693.910156 1251.878906 1695.238281 1255.429688 C 1696.128906 1257.808594 1697.039062 1260.148438 1697.96875 1262.511719 C 1699.378906 1266.101562 1700.890625 1269.539062 1702.230469 1273.171875 C 1703.640625 1276.980469 1705.03125 1280.648438 1706.210938 1284.578125 C 1706.558594 1287.160156 1708.941406 1288.96875 1711.519531 1288.621094 C 1714.101562 1288.269531 1715.910156 1285.890625 1715.558594 1283.308594 C 1715.679688 1276.71875 1715.488281 1270.410156 1714.71875 1263.941406 C 1714.210938 1259.640625 1713.441406 1255.421875 1712.371094 1251.230469 C 1711.039062 1246.058594 1709.21875 1241.011719 1707.21875 1236.039062 C 1705.25 1231.128906 1702.910156 1226.371094 1700.550781 1221.589844 C 1698.871094 1218.660156 1697.28125 1215.71875 1695.511719 1212.839844 C 1693.671875 1209.839844 1691.769531 1206.96875 1689.691406 1204.128906 C 1688.828125 1203 1687.558594 1201.558594 1685.878906 1200.378906 C 1685.21875 1199.921875 1684.289062 1199.320312 1683.589844 1198.878906 "/>
<path fill-rule="evenodd" fill="rgb(28.196716%, 54.492188%, 17.993164%)" fill-opacity="1" d="M 1736.578125 1049.058594 C 1736.179688 1048.691406 1735.71875 1048.390625 1735.191406 1048.171875 C 1732.660156 1046.789062 1731 1048.03125 1730.679688 1048.148438 C 1729.699219 1048.519531 1725.578125 1052.839844 1729.980469 1056.898438 C 1730.5 1057.378906 1732.578125 1058.949219 1733.25 1059.761719 L 1738.03125 1066.960938 C 1739.820312 1069.941406 1741.390625 1072.980469 1742.980469 1076.050781 C 1745.429688 1080.75 1747.738281 1085.488281 1750.019531 1090.289062 C 1752.148438 1094.359375 1754.089844 1098.46875 1756.050781 1102.558594 C 1759.019531 1108.75 1761.828125 1114.949219 1764.460938 1121.210938 C 1766.050781 1124.980469 1767.578125 1128.78125 1769.121094 1132.570312 C 1770.148438 1135.109375 1771.21875 1137.621094 1772.269531 1140.160156 C 1776.261719 1149.730469 1780.050781 1159.238281 1783.148438 1169.351562 C 1783.648438 1171.910156 1786.128906 1173.578125 1788.679688 1173.078125 C 1791.238281 1172.578125 1792.910156 1170.101562 1792.410156 1167.539062 C 1791.640625 1158.371094 1790.578125 1149.480469 1788.78125 1140.621094 C 1787.570312 1134.648438 1786.070312 1128.789062 1784.191406 1123.011719 C 1781.851562 1115.808594 1778.921875 1108.800781 1775.660156 1101.910156 C 1772.449219 1095.121094 1768.75 1088.519531 1764.839844 1081.941406 C 1762.320312 1078.089844 1759.859375 1074.238281 1757.191406 1070.488281 C 1754.460938 1066.648438 1751.609375 1062.949219 1748.519531 1059.371094 L 1741.128906 1051.890625 C 1740.269531 1051.171875 1737.640625 1049.660156 1736.578125 1049.058594 "/>
<path fill-rule="evenodd" fill="rgb(28.196716%, 54.492188%, 17.993164%)" fill-opacity="1" d="M 1782.339844 876.910156 C 1781.738281 877.488281 1781.308594 878.179688 1781.199219 878.988281 C 1780.910156 879.71875 1780.820312 880.300781 1780.980469 880.488281 C 1781.171875 880.78125 1781.390625 881.03125 1781.621094 881.261719 C 1781.75 881.53125 1781.910156 881.808594 1782.101562 882.089844 C 1783.710938 884.5 1787.140625 889.910156 1789.160156 894.039062 C 1791.261719 898.28125 1793.121094 902.609375 1794.980469 906.96875 C 1797.808594 913.589844 1800.46875 920.261719 1803.03125 926.960938 C 1806.269531 934.550781 1809.171875 942.160156 1812.019531 949.738281 C 1814.898438 957.378906 1817.550781 965.050781 1820.171875 972.710938 C 1822.28125 978.878906 1824.429688 984.988281 1826.410156 991.21875 C 1829.378906 1000.550781 1832.230469 1009.851562 1834.449219 1019.609375 C 1834.789062 1022.191406 1837.160156 1024.011719 1839.738281 1023.671875 C 1842.320312 1023.328125 1844.140625 1020.960938 1843.800781 1018.378906 C 1843.308594 1006.210938 1842.25 994.429688 1840.191406 982.710938 C 1839.308594 977.640625 1838.210938 972.640625 1836.890625 967.671875 C 1834.710938 959.441406 1831.96875 951.359375 1828.910156 943.339844 C 1825.910156 935.460938 1822.429688 927.710938 1818.808594 919.921875 C 1815.988281 914.410156 1813.210938 908.890625 1810.128906 903.5 C 1807 898.03125 1803.671875 892.738281 1800.078125 887.570312 C 1797.121094 883.390625 1792.398438 878.03125 1790.179688 875.660156 C 1789.898438 875.359375 1789.609375 875.101562 1789.328125 874.890625 L 1789.308594 874.851562 C 1789.269531 874.78125 1789.179688 874.730469 1789.050781 874.691406 C 1786.351562 872.859375 1783.839844 874.78125 1782.339844 876.910156 "/>
<path fill-rule="evenodd" fill="rgb(100%, 100%, 100%)" fill-opacity="1" d="M 1131.71875 685.25 C 1134.140625 680.308594 1138.808594 675.679688 1143.960938 671.128906 C 1152.511719 663.570312 1162.578125 656.660156 1169.199219 650.820312 C 1188.078125 633.710938 1208.398438 617.710938 1229.421875 602.398438 C 1250.070312 587.351562 1271.539062 573.25 1293.890625 560.710938 C 1311.710938 550.691406 1330.050781 541.699219 1348.820312 533.699219 C 1377.070312 521.660156 1406.140625 511.75 1436.679688 506.378906 C 1440.140625 505.941406 1442.601562 502.78125 1442.171875 499.320312 C 1441.738281 495.859375 1438.570312 493.398438 1435.109375 493.828125 C 1402.78125 496.269531 1371.191406 502.609375 1340.878906 513.21875 C 1320.640625 520.300781 1301.078125 529.328125 1282.210938 539.628906 C 1258.738281 552.449219 1236.328125 567.339844 1215.359375 583.820312 C 1194.25 600.410156 1174.800781 618.769531 1156.46875 637.621094 C 1149.371094 645.109375 1137.761719 654.46875 1129.359375 664.320312 C 1124.96875 669.460938 1121.339844 674.671875 1119.359375 679.871094 C 1117.871094 683.289062 1119.441406 687.261719 1122.851562 688.738281 C 1126.261719 690.21875 1130.238281 688.660156 1131.71875 685.25 "/>
<path fill-rule="evenodd" fill="rgb(100%, 100%, 100%)" fill-opacity="1" d="M 1486.398438 497.050781 C 1493.960938 498.109375 1501.25 499.429688 1509.171875 499.761719 C 1514.070312 499.96875 1519 499.75 1523.949219 499.410156 C 1528.78125 499.070312 1533.621094 498.601562 1538.410156 497.820312 C 1540.609375 497.449219 1542.660156 496.878906 1544.820312 496.328125 C 1550.050781 495 1554.679688 493.429688 1559.890625 492.230469 C 1563.378906 492.308594 1566.269531 489.550781 1566.359375 486.058594 C 1566.441406 482.570312 1563.671875 479.671875 1560.179688 479.589844 C 1553.960938 477.890625 1548.230469 476.25 1541.78125 475.390625 C 1537.71875 474.851562 1533.648438 474.738281 1529.550781 474.820312 C 1525.03125 474.910156 1520.519531 475.371094 1516.058594 475.949219 C 1513.070312 476.339844 1510.140625 476.800781 1507.230469 477.46875 C 1499.671875 479.21875 1492.859375 481.699219 1485.621094 483.589844 C 1481.910156 483.808594 1479.070312 486.988281 1479.28125 490.710938 C 1479.5 494.421875 1482.691406 497.261719 1486.398438 497.050781 "/>
<path fill-rule="evenodd" fill="rgb(100%, 100%, 100%)" fill-opacity="1" d="M 1767.558594 721.539062 C 1762.46875 722.238281 1756.789062 724.710938 1750.980469 728.039062 C 1740.171875 734.21875 1728.960938 743.800781 1721.5 749.050781 C 1701.328125 763.699219 1682.839844 779.300781 1666.488281 796.460938 C 1649.5 814.28125 1634.679688 833.570312 1621.800781 854.039062 C 1611.488281 870.429688 1602.371094 887.589844 1594.738281 905.589844 C 1583.671875 931.730469 1575.730469 959.441406 1569.398438 988.398438 C 1568.46875 991.761719 1570.449219 995.238281 1573.808594 996.171875 C 1577.179688 997.101562 1580.660156 995.128906 1581.589844 991.761719 C 1590.710938 964.609375 1602.070312 939.28125 1614.589844 914.871094 C 1623.058594 898.378906 1632.109375 882.410156 1642.089844 867.011719 C 1654.511719 847.859375 1668.339844 829.660156 1683.691406 812.21875 C 1698.609375 795.28125 1714.671875 778.859375 1732.878906 763.628906 C 1738.671875 758.628906 1746.839844 750.21875 1755.328125 743.511719 C 1760.398438 739.488281 1765.390625 735.898438 1770.058594 734.78125 C 1773.71875 734.089844 1776.121094 730.558594 1775.429688 726.910156 C 1774.738281 723.261719 1771.21875 720.851562 1767.558594 721.539062 "/>
<path fill-rule="evenodd" fill="rgb(100%, 100%, 100%)" fill-opacity="1" d="M 1573.21875 1052.210938 C 1573.949219 1050.101562 1573.609375 1047.679688 1572.121094 1045.808594 C 1570.371094 1042.511719 1567.429688 1042.941406 1566.011719 1042.738281 C 1563.730469 1042.421875 1561.988281 1044.019531 1560.019531 1046.421875 C 1558.949219 1047.71875 1558.320312 1055.328125 1557.640625 1058.488281 C 1556.800781 1062.738281 1556.019531 1066.828125 1555.410156 1071.109375 C 1555.011719 1073.890625 1554.769531 1076.640625 1554.449219 1079.441406 C 1554.261719 1084.558594 1553.980469 1089.671875 1554.050781 1094.789062 C 1554.128906 1099.898438 1554.300781 1105.011719 1554.910156 1110.078125 C 1555.410156 1114.191406 1556.210938 1118.160156 1557.128906 1122.199219 C 1558.539062 1128.371094 1560.308594 1134.050781 1562.039062 1140.160156 C 1562.289062 1143.640625 1565.308594 1146.269531 1568.789062 1146.019531 C 1572.269531 1145.78125 1574.898438 1142.75 1574.660156 1139.269531 C 1575.5 1133.058594 1576.570312 1127.300781 1577.289062 1121.101562 C 1577.761719 1117.070312 1578.191406 1113.148438 1578.339844 1109.109375 C 1578.53125 1104.160156 1578.378906 1099.199219 1578.230469 1094.238281 C 1578.089844 1089.308594 1577.671875 1084.378906 1577.480469 1079.429688 L 1574.769531 1059.070312 C 1574.558594 1057.640625 1573.660156 1053.96875 1573.21875 1052.210938 "/>
</svg>
